%TF.GenerationSoftware,KiCad,Pcbnew,9.0.5*%
%TF.CreationDate,2025-10-31T00:58:49-04:00*%
%TF.ProjectId,powerdist,706f7765-7264-4697-9374-2e6b69636164,v1*%
%TF.SameCoordinates,Original*%
%TF.FileFunction,Paste,Top*%
%TF.FilePolarity,Positive*%
%FSLAX46Y46*%
G04 Gerber Fmt 4.6, Leading zero omitted, Abs format (unit mm)*
G04 Created by KiCad (PCBNEW 9.0.5) date 2025-10-31 00:58:49*
%MOMM*%
%LPD*%
G01*
G04 APERTURE LIST*
G04 Aperture macros list*
%AMRoundRect*
0 Rectangle with rounded corners*
0 $1 Rounding radius*
0 $2 $3 $4 $5 $6 $7 $8 $9 X,Y pos of 4 corners*
0 Add a 4 corners polygon primitive as box body*
4,1,4,$2,$3,$4,$5,$6,$7,$8,$9,$2,$3,0*
0 Add four circle primitives for the rounded corners*
1,1,$1+$1,$2,$3*
1,1,$1+$1,$4,$5*
1,1,$1+$1,$6,$7*
1,1,$1+$1,$8,$9*
0 Add four rect primitives between the rounded corners*
20,1,$1+$1,$2,$3,$4,$5,0*
20,1,$1+$1,$4,$5,$6,$7,0*
20,1,$1+$1,$6,$7,$8,$9,0*
20,1,$1+$1,$8,$9,$2,$3,0*%
%AMFreePoly0*
4,1,21,1.372500,0.787500,0.862500,0.787500,0.862500,0.532500,1.372500,0.532500,1.372500,0.127500,0.862500,0.127500,0.862500,-0.127500,1.372500,-0.127500,1.372500,-0.532500,0.862500,-0.532500,0.862500,-0.787500,1.372500,-0.787500,1.372500,-1.195000,0.612500,-1.195000,0.612500,-1.117500,-0.862500,-1.117500,-0.862500,1.117500,0.612500,1.117500,0.612500,1.195000,1.372500,1.195000,
1.372500,0.787500,1.372500,0.787500,$1*%
G04 Aperture macros list end*
%ADD10C,0.010000*%
%ADD11RoundRect,0.200000X0.275000X-0.200000X0.275000X0.200000X-0.275000X0.200000X-0.275000X-0.200000X0*%
%ADD12RoundRect,0.200000X0.200000X0.275000X-0.200000X0.275000X-0.200000X-0.275000X0.200000X-0.275000X0*%
%ADD13R,3.300000X3.175000*%
%ADD14RoundRect,0.218750X0.218750X0.256250X-0.218750X0.256250X-0.218750X-0.256250X0.218750X-0.256250X0*%
%ADD15RoundRect,0.250000X0.650000X-0.325000X0.650000X0.325000X-0.650000X0.325000X-0.650000X-0.325000X0*%
%ADD16RoundRect,0.200000X-0.275000X0.200000X-0.275000X-0.200000X0.275000X-0.200000X0.275000X0.200000X0*%
%ADD17RoundRect,0.200000X-0.200000X-0.275000X0.200000X-0.275000X0.200000X0.275000X-0.200000X0.275000X0*%
%ADD18RoundRect,0.250000X0.312500X0.625000X-0.312500X0.625000X-0.312500X-0.625000X0.312500X-0.625000X0*%
%ADD19RoundRect,0.225000X-0.250000X0.225000X-0.250000X-0.225000X0.250000X-0.225000X0.250000X0.225000X0*%
%ADD20RoundRect,0.225000X-0.225000X-0.250000X0.225000X-0.250000X0.225000X0.250000X-0.225000X0.250000X0*%
%ADD21R,1.400000X1.400000*%
%ADD22R,0.400000X1.100000*%
%ADD23RoundRect,0.375000X0.375000X-0.375000X0.375000X0.375000X-0.375000X0.375000X-0.375000X-0.375000X0*%
%ADD24RoundRect,0.125000X0.125000X-0.250000X0.125000X0.250000X-0.125000X0.250000X-0.125000X-0.250000X0*%
%ADD25RoundRect,0.100000X0.100000X-0.275000X0.100000X0.275000X-0.100000X0.275000X-0.100000X-0.275000X0*%
%ADD26RoundRect,0.250000X-0.650000X0.325000X-0.650000X-0.325000X0.650000X-0.325000X0.650000X0.325000X0*%
%ADD27RoundRect,0.225000X0.225000X0.250000X-0.225000X0.250000X-0.225000X-0.250000X0.225000X-0.250000X0*%
%ADD28RoundRect,0.225000X0.250000X-0.225000X0.250000X0.225000X-0.250000X0.225000X-0.250000X-0.225000X0*%
%ADD29RoundRect,0.250000X0.325000X0.650000X-0.325000X0.650000X-0.325000X-0.650000X0.325000X-0.650000X0*%
%ADD30RoundRect,0.150000X-0.587500X-0.150000X0.587500X-0.150000X0.587500X0.150000X-0.587500X0.150000X0*%
%ADD31RoundRect,0.225000X-0.375000X0.225000X-0.375000X-0.225000X0.375000X-0.225000X0.375000X0.225000X0*%
%ADD32RoundRect,0.250000X-0.625000X0.312500X-0.625000X-0.312500X0.625000X-0.312500X0.625000X0.312500X0*%
%ADD33R,0.990000X0.405000*%
%ADD34FreePoly0,0.000000*%
%ADD35RoundRect,0.225000X-0.225000X-0.375000X0.225000X-0.375000X0.225000X0.375000X-0.225000X0.375000X0*%
%ADD36RoundRect,0.300000X-0.300000X0.325000X-0.300000X-0.325000X0.300000X-0.325000X0.300000X0.325000X0*%
%ADD37RoundRect,0.317500X0.317500X-0.382500X0.317500X0.382500X-0.317500X0.382500X-0.317500X-0.382500X0*%
%ADD38R,0.405000X0.990000*%
%ADD39FreePoly0,270.000000*%
%ADD40RoundRect,0.225000X0.375000X-0.225000X0.375000X0.225000X-0.375000X0.225000X-0.375000X-0.225000X0*%
%ADD41R,3.175000X3.300000*%
%ADD42RoundRect,0.150000X0.512500X0.150000X-0.512500X0.150000X-0.512500X-0.150000X0.512500X-0.150000X0*%
%ADD43R,1.460500X0.355600*%
%ADD44RoundRect,0.152500X-0.152500X-0.152500X0.152500X-0.152500X0.152500X0.152500X-0.152500X0.152500X0*%
%ADD45RoundRect,0.062500X-0.325000X-0.062500X0.325000X-0.062500X0.325000X0.062500X-0.325000X0.062500X0*%
%ADD46RoundRect,0.062500X-0.062500X-0.325000X0.062500X-0.325000X0.062500X0.325000X-0.062500X0.325000X0*%
%ADD47RoundRect,0.062500X-0.237500X-0.062500X0.237500X-0.062500X0.237500X0.062500X-0.237500X0.062500X0*%
%ADD48RoundRect,0.062500X-0.062500X-0.237500X0.062500X-0.237500X0.062500X0.237500X-0.062500X0.237500X0*%
%ADD49RoundRect,0.250000X0.250000X0.250000X-0.250000X0.250000X-0.250000X-0.250000X0.250000X-0.250000X0*%
%ADD50RoundRect,0.250000X-0.250000X-0.250000X0.250000X-0.250000X0.250000X0.250000X-0.250000X0.250000X0*%
%ADD51RoundRect,0.375000X-0.375000X0.375000X-0.375000X-0.375000X0.375000X-0.375000X0.375000X0.375000X0*%
%ADD52RoundRect,0.125000X-0.125000X0.250000X-0.125000X-0.250000X0.125000X-0.250000X0.125000X0.250000X0*%
%ADD53RoundRect,0.100000X-0.100000X0.275000X-0.100000X-0.275000X0.100000X-0.275000X0.100000X0.275000X0*%
%ADD54RoundRect,0.150000X0.587500X0.150000X-0.587500X0.150000X-0.587500X-0.150000X0.587500X-0.150000X0*%
%ADD55R,1.270000X0.610000*%
%ADD56R,3.810000X3.910000*%
%ADD57R,1.020000X0.610000*%
%ADD58FreePoly0,180.000000*%
%ADD59RoundRect,0.250000X-0.250000X0.250000X-0.250000X-0.250000X0.250000X-0.250000X0.250000X0.250000X0*%
%ADD60RoundRect,0.150000X-0.825000X-0.150000X0.825000X-0.150000X0.825000X0.150000X-0.825000X0.150000X0*%
%ADD61O,1.200000X0.399999*%
G04 APERTURE END LIST*
D10*
%TO.C,U11*%
X110648000Y-180701000D02*
X110650000Y-180701000D01*
X110653000Y-180702000D01*
X110655000Y-180702000D01*
X110658000Y-180703000D01*
X110660000Y-180704000D01*
X110663000Y-180705000D01*
X110665000Y-180707000D01*
X110667000Y-180708000D01*
X110669000Y-180710000D01*
X110671000Y-180711000D01*
X110673000Y-180713000D01*
X110675000Y-180715000D01*
X110677000Y-180717000D01*
X110679000Y-180719000D01*
X110680000Y-180721000D01*
X110682000Y-180723000D01*
X110683000Y-180725000D01*
X110685000Y-180727000D01*
X110686000Y-180730000D01*
X110687000Y-180732000D01*
X110688000Y-180735000D01*
X110688000Y-180737000D01*
X110689000Y-180740000D01*
X110689000Y-180742000D01*
X110690000Y-180745000D01*
X110690000Y-180747000D01*
X110690000Y-180750000D01*
X110690000Y-181600000D01*
X110690000Y-181603000D01*
X110690000Y-181605000D01*
X110689000Y-181608000D01*
X110689000Y-181610000D01*
X110688000Y-181613000D01*
X110688000Y-181615000D01*
X110687000Y-181618000D01*
X110686000Y-181620000D01*
X110685000Y-181623000D01*
X110683000Y-181625000D01*
X110682000Y-181627000D01*
X110680000Y-181629000D01*
X110679000Y-181631000D01*
X110677000Y-181633000D01*
X110675000Y-181635000D01*
X110673000Y-181637000D01*
X110671000Y-181639000D01*
X110669000Y-181640000D01*
X110667000Y-181642000D01*
X110665000Y-181643000D01*
X110663000Y-181645000D01*
X110660000Y-181646000D01*
X110658000Y-181647000D01*
X110655000Y-181648000D01*
X110653000Y-181648000D01*
X110650000Y-181649000D01*
X110648000Y-181649000D01*
X110645000Y-181650000D01*
X110643000Y-181650000D01*
X110640000Y-181650000D01*
X110340000Y-181650000D01*
X110337000Y-181650000D01*
X110335000Y-181650000D01*
X110332000Y-181649000D01*
X110330000Y-181649000D01*
X110327000Y-181648000D01*
X110325000Y-181648000D01*
X110322000Y-181647000D01*
X110320000Y-181646000D01*
X110317000Y-181645000D01*
X110315000Y-181643000D01*
X110313000Y-181642000D01*
X110311000Y-181640000D01*
X110309000Y-181639000D01*
X110307000Y-181637000D01*
X110305000Y-181635000D01*
X110303000Y-181633000D01*
X110301000Y-181631000D01*
X110300000Y-181629000D01*
X110298000Y-181627000D01*
X110297000Y-181625000D01*
X110295000Y-181623000D01*
X110294000Y-181620000D01*
X110293000Y-181618000D01*
X110292000Y-181615000D01*
X110292000Y-181613000D01*
X110291000Y-181610000D01*
X110291000Y-181608000D01*
X110290000Y-181605000D01*
X110290000Y-181603000D01*
X110290000Y-181600000D01*
X110290000Y-180750000D01*
X110290000Y-180747000D01*
X110290000Y-180745000D01*
X110291000Y-180742000D01*
X110291000Y-180740000D01*
X110292000Y-180737000D01*
X110292000Y-180735000D01*
X110293000Y-180732000D01*
X110294000Y-180730000D01*
X110295000Y-180727000D01*
X110297000Y-180725000D01*
X110298000Y-180723000D01*
X110300000Y-180721000D01*
X110301000Y-180719000D01*
X110303000Y-180717000D01*
X110305000Y-180715000D01*
X110307000Y-180713000D01*
X110309000Y-180711000D01*
X110311000Y-180710000D01*
X110313000Y-180708000D01*
X110315000Y-180707000D01*
X110317000Y-180705000D01*
X110320000Y-180704000D01*
X110322000Y-180703000D01*
X110325000Y-180702000D01*
X110327000Y-180702000D01*
X110330000Y-180701000D01*
X110332000Y-180701000D01*
X110335000Y-180700000D01*
X110337000Y-180700000D01*
X110340000Y-180700000D01*
X110640000Y-180700000D01*
X110643000Y-180700000D01*
X110645000Y-180700000D01*
X110648000Y-180701000D01*
G36*
X110648000Y-180701000D02*
G01*
X110650000Y-180701000D01*
X110653000Y-180702000D01*
X110655000Y-180702000D01*
X110658000Y-180703000D01*
X110660000Y-180704000D01*
X110663000Y-180705000D01*
X110665000Y-180707000D01*
X110667000Y-180708000D01*
X110669000Y-180710000D01*
X110671000Y-180711000D01*
X110673000Y-180713000D01*
X110675000Y-180715000D01*
X110677000Y-180717000D01*
X110679000Y-180719000D01*
X110680000Y-180721000D01*
X110682000Y-180723000D01*
X110683000Y-180725000D01*
X110685000Y-180727000D01*
X110686000Y-180730000D01*
X110687000Y-180732000D01*
X110688000Y-180735000D01*
X110688000Y-180737000D01*
X110689000Y-180740000D01*
X110689000Y-180742000D01*
X110690000Y-180745000D01*
X110690000Y-180747000D01*
X110690000Y-180750000D01*
X110690000Y-181600000D01*
X110690000Y-181603000D01*
X110690000Y-181605000D01*
X110689000Y-181608000D01*
X110689000Y-181610000D01*
X110688000Y-181613000D01*
X110688000Y-181615000D01*
X110687000Y-181618000D01*
X110686000Y-181620000D01*
X110685000Y-181623000D01*
X110683000Y-181625000D01*
X110682000Y-181627000D01*
X110680000Y-181629000D01*
X110679000Y-181631000D01*
X110677000Y-181633000D01*
X110675000Y-181635000D01*
X110673000Y-181637000D01*
X110671000Y-181639000D01*
X110669000Y-181640000D01*
X110667000Y-181642000D01*
X110665000Y-181643000D01*
X110663000Y-181645000D01*
X110660000Y-181646000D01*
X110658000Y-181647000D01*
X110655000Y-181648000D01*
X110653000Y-181648000D01*
X110650000Y-181649000D01*
X110648000Y-181649000D01*
X110645000Y-181650000D01*
X110643000Y-181650000D01*
X110640000Y-181650000D01*
X110340000Y-181650000D01*
X110337000Y-181650000D01*
X110335000Y-181650000D01*
X110332000Y-181649000D01*
X110330000Y-181649000D01*
X110327000Y-181648000D01*
X110325000Y-181648000D01*
X110322000Y-181647000D01*
X110320000Y-181646000D01*
X110317000Y-181645000D01*
X110315000Y-181643000D01*
X110313000Y-181642000D01*
X110311000Y-181640000D01*
X110309000Y-181639000D01*
X110307000Y-181637000D01*
X110305000Y-181635000D01*
X110303000Y-181633000D01*
X110301000Y-181631000D01*
X110300000Y-181629000D01*
X110298000Y-181627000D01*
X110297000Y-181625000D01*
X110295000Y-181623000D01*
X110294000Y-181620000D01*
X110293000Y-181618000D01*
X110292000Y-181615000D01*
X110292000Y-181613000D01*
X110291000Y-181610000D01*
X110291000Y-181608000D01*
X110290000Y-181605000D01*
X110290000Y-181603000D01*
X110290000Y-181600000D01*
X110290000Y-180750000D01*
X110290000Y-180747000D01*
X110290000Y-180745000D01*
X110291000Y-180742000D01*
X110291000Y-180740000D01*
X110292000Y-180737000D01*
X110292000Y-180735000D01*
X110293000Y-180732000D01*
X110294000Y-180730000D01*
X110295000Y-180727000D01*
X110297000Y-180725000D01*
X110298000Y-180723000D01*
X110300000Y-180721000D01*
X110301000Y-180719000D01*
X110303000Y-180717000D01*
X110305000Y-180715000D01*
X110307000Y-180713000D01*
X110309000Y-180711000D01*
X110311000Y-180710000D01*
X110313000Y-180708000D01*
X110315000Y-180707000D01*
X110317000Y-180705000D01*
X110320000Y-180704000D01*
X110322000Y-180703000D01*
X110325000Y-180702000D01*
X110327000Y-180702000D01*
X110330000Y-180701000D01*
X110332000Y-180701000D01*
X110335000Y-180700000D01*
X110337000Y-180700000D01*
X110340000Y-180700000D01*
X110640000Y-180700000D01*
X110643000Y-180700000D01*
X110645000Y-180700000D01*
X110648000Y-180701000D01*
G37*
X110648000Y-181851000D02*
X110650000Y-181851000D01*
X110653000Y-181852000D01*
X110655000Y-181852000D01*
X110658000Y-181853000D01*
X110660000Y-181854000D01*
X110663000Y-181855000D01*
X110665000Y-181857000D01*
X110667000Y-181858000D01*
X110669000Y-181860000D01*
X110671000Y-181861000D01*
X110673000Y-181863000D01*
X110675000Y-181865000D01*
X110677000Y-181867000D01*
X110679000Y-181869000D01*
X110680000Y-181871000D01*
X110682000Y-181873000D01*
X110683000Y-181875000D01*
X110685000Y-181877000D01*
X110686000Y-181880000D01*
X110687000Y-181882000D01*
X110688000Y-181885000D01*
X110688000Y-181887000D01*
X110689000Y-181890000D01*
X110689000Y-181892000D01*
X110690000Y-181895000D01*
X110690000Y-181897000D01*
X110690000Y-181900000D01*
X110690000Y-182750000D01*
X110690000Y-182753000D01*
X110690000Y-182755000D01*
X110689000Y-182758000D01*
X110689000Y-182760000D01*
X110688000Y-182763000D01*
X110688000Y-182765000D01*
X110687000Y-182768000D01*
X110686000Y-182770000D01*
X110685000Y-182773000D01*
X110683000Y-182775000D01*
X110682000Y-182777000D01*
X110680000Y-182779000D01*
X110679000Y-182781000D01*
X110677000Y-182783000D01*
X110675000Y-182785000D01*
X110673000Y-182787000D01*
X110671000Y-182789000D01*
X110669000Y-182790000D01*
X110667000Y-182792000D01*
X110665000Y-182793000D01*
X110663000Y-182795000D01*
X110660000Y-182796000D01*
X110658000Y-182797000D01*
X110655000Y-182798000D01*
X110653000Y-182798000D01*
X110650000Y-182799000D01*
X110648000Y-182799000D01*
X110645000Y-182800000D01*
X110643000Y-182800000D01*
X110640000Y-182800000D01*
X110340000Y-182800000D01*
X110337000Y-182800000D01*
X110335000Y-182800000D01*
X110332000Y-182799000D01*
X110330000Y-182799000D01*
X110327000Y-182798000D01*
X110325000Y-182798000D01*
X110322000Y-182797000D01*
X110320000Y-182796000D01*
X110317000Y-182795000D01*
X110315000Y-182793000D01*
X110313000Y-182792000D01*
X110311000Y-182790000D01*
X110309000Y-182789000D01*
X110307000Y-182787000D01*
X110305000Y-182785000D01*
X110303000Y-182783000D01*
X110301000Y-182781000D01*
X110300000Y-182779000D01*
X110298000Y-182777000D01*
X110297000Y-182775000D01*
X110295000Y-182773000D01*
X110294000Y-182770000D01*
X110293000Y-182768000D01*
X110292000Y-182765000D01*
X110292000Y-182763000D01*
X110291000Y-182760000D01*
X110291000Y-182758000D01*
X110290000Y-182755000D01*
X110290000Y-182753000D01*
X110290000Y-182750000D01*
X110290000Y-181900000D01*
X110290000Y-181897000D01*
X110290000Y-181895000D01*
X110291000Y-181892000D01*
X110291000Y-181890000D01*
X110292000Y-181887000D01*
X110292000Y-181885000D01*
X110293000Y-181882000D01*
X110294000Y-181880000D01*
X110295000Y-181877000D01*
X110297000Y-181875000D01*
X110298000Y-181873000D01*
X110300000Y-181871000D01*
X110301000Y-181869000D01*
X110303000Y-181867000D01*
X110305000Y-181865000D01*
X110307000Y-181863000D01*
X110309000Y-181861000D01*
X110311000Y-181860000D01*
X110313000Y-181858000D01*
X110315000Y-181857000D01*
X110317000Y-181855000D01*
X110320000Y-181854000D01*
X110322000Y-181853000D01*
X110325000Y-181852000D01*
X110327000Y-181852000D01*
X110330000Y-181851000D01*
X110332000Y-181851000D01*
X110335000Y-181850000D01*
X110337000Y-181850000D01*
X110340000Y-181850000D01*
X110640000Y-181850000D01*
X110643000Y-181850000D01*
X110645000Y-181850000D01*
X110648000Y-181851000D01*
G36*
X110648000Y-181851000D02*
G01*
X110650000Y-181851000D01*
X110653000Y-181852000D01*
X110655000Y-181852000D01*
X110658000Y-181853000D01*
X110660000Y-181854000D01*
X110663000Y-181855000D01*
X110665000Y-181857000D01*
X110667000Y-181858000D01*
X110669000Y-181860000D01*
X110671000Y-181861000D01*
X110673000Y-181863000D01*
X110675000Y-181865000D01*
X110677000Y-181867000D01*
X110679000Y-181869000D01*
X110680000Y-181871000D01*
X110682000Y-181873000D01*
X110683000Y-181875000D01*
X110685000Y-181877000D01*
X110686000Y-181880000D01*
X110687000Y-181882000D01*
X110688000Y-181885000D01*
X110688000Y-181887000D01*
X110689000Y-181890000D01*
X110689000Y-181892000D01*
X110690000Y-181895000D01*
X110690000Y-181897000D01*
X110690000Y-181900000D01*
X110690000Y-182750000D01*
X110690000Y-182753000D01*
X110690000Y-182755000D01*
X110689000Y-182758000D01*
X110689000Y-182760000D01*
X110688000Y-182763000D01*
X110688000Y-182765000D01*
X110687000Y-182768000D01*
X110686000Y-182770000D01*
X110685000Y-182773000D01*
X110683000Y-182775000D01*
X110682000Y-182777000D01*
X110680000Y-182779000D01*
X110679000Y-182781000D01*
X110677000Y-182783000D01*
X110675000Y-182785000D01*
X110673000Y-182787000D01*
X110671000Y-182789000D01*
X110669000Y-182790000D01*
X110667000Y-182792000D01*
X110665000Y-182793000D01*
X110663000Y-182795000D01*
X110660000Y-182796000D01*
X110658000Y-182797000D01*
X110655000Y-182798000D01*
X110653000Y-182798000D01*
X110650000Y-182799000D01*
X110648000Y-182799000D01*
X110645000Y-182800000D01*
X110643000Y-182800000D01*
X110640000Y-182800000D01*
X110340000Y-182800000D01*
X110337000Y-182800000D01*
X110335000Y-182800000D01*
X110332000Y-182799000D01*
X110330000Y-182799000D01*
X110327000Y-182798000D01*
X110325000Y-182798000D01*
X110322000Y-182797000D01*
X110320000Y-182796000D01*
X110317000Y-182795000D01*
X110315000Y-182793000D01*
X110313000Y-182792000D01*
X110311000Y-182790000D01*
X110309000Y-182789000D01*
X110307000Y-182787000D01*
X110305000Y-182785000D01*
X110303000Y-182783000D01*
X110301000Y-182781000D01*
X110300000Y-182779000D01*
X110298000Y-182777000D01*
X110297000Y-182775000D01*
X110295000Y-182773000D01*
X110294000Y-182770000D01*
X110293000Y-182768000D01*
X110292000Y-182765000D01*
X110292000Y-182763000D01*
X110291000Y-182760000D01*
X110291000Y-182758000D01*
X110290000Y-182755000D01*
X110290000Y-182753000D01*
X110290000Y-182750000D01*
X110290000Y-181900000D01*
X110290000Y-181897000D01*
X110290000Y-181895000D01*
X110291000Y-181892000D01*
X110291000Y-181890000D01*
X110292000Y-181887000D01*
X110292000Y-181885000D01*
X110293000Y-181882000D01*
X110294000Y-181880000D01*
X110295000Y-181877000D01*
X110297000Y-181875000D01*
X110298000Y-181873000D01*
X110300000Y-181871000D01*
X110301000Y-181869000D01*
X110303000Y-181867000D01*
X110305000Y-181865000D01*
X110307000Y-181863000D01*
X110309000Y-181861000D01*
X110311000Y-181860000D01*
X110313000Y-181858000D01*
X110315000Y-181857000D01*
X110317000Y-181855000D01*
X110320000Y-181854000D01*
X110322000Y-181853000D01*
X110325000Y-181852000D01*
X110327000Y-181852000D01*
X110330000Y-181851000D01*
X110332000Y-181851000D01*
X110335000Y-181850000D01*
X110337000Y-181850000D01*
X110340000Y-181850000D01*
X110640000Y-181850000D01*
X110643000Y-181850000D01*
X110645000Y-181850000D01*
X110648000Y-181851000D01*
G37*
X111159000Y-182401000D02*
X111162000Y-182401000D01*
X111164000Y-182402000D01*
X111166000Y-182403000D01*
X111168000Y-182404000D01*
X111171000Y-182405000D01*
X111173000Y-182406000D01*
X111175000Y-182407000D01*
X111177000Y-182408000D01*
X111178000Y-182410000D01*
X111180000Y-182411000D01*
X111182000Y-182413000D01*
X111184000Y-182415000D01*
X111185000Y-182417000D01*
X111187000Y-182418000D01*
X111188000Y-182420000D01*
X111189000Y-182422000D01*
X111190000Y-182424000D01*
X111191000Y-182427000D01*
X111192000Y-182429000D01*
X111193000Y-182431000D01*
X111194000Y-182433000D01*
X111194000Y-182436000D01*
X111195000Y-182438000D01*
X111195000Y-182440000D01*
X111195000Y-182443000D01*
X111195000Y-182445000D01*
X111195000Y-182447000D01*
X111195000Y-182450000D01*
X111195000Y-183100000D01*
X111195000Y-183103000D01*
X111195000Y-183105000D01*
X111195000Y-183107000D01*
X111195000Y-183110000D01*
X111195000Y-183112000D01*
X111194000Y-183114000D01*
X111194000Y-183117000D01*
X111193000Y-183119000D01*
X111192000Y-183121000D01*
X111191000Y-183123000D01*
X111190000Y-183126000D01*
X111189000Y-183128000D01*
X111188000Y-183130000D01*
X111187000Y-183132000D01*
X111185000Y-183133000D01*
X111184000Y-183135000D01*
X111182000Y-183137000D01*
X111180000Y-183139000D01*
X111178000Y-183140000D01*
X111177000Y-183142000D01*
X111175000Y-183143000D01*
X111173000Y-183144000D01*
X111171000Y-183145000D01*
X111168000Y-183146000D01*
X111166000Y-183147000D01*
X111164000Y-183148000D01*
X111162000Y-183149000D01*
X111159000Y-183149000D01*
X111157000Y-183150000D01*
X111155000Y-183150000D01*
X110995000Y-183150000D01*
X110992000Y-183150000D01*
X110990000Y-183150000D01*
X110987000Y-183149000D01*
X110985000Y-183149000D01*
X110982000Y-183148000D01*
X110980000Y-183148000D01*
X110977000Y-183147000D01*
X110975000Y-183146000D01*
X110972000Y-183145000D01*
X110970000Y-183143000D01*
X110968000Y-183142000D01*
X110966000Y-183140000D01*
X110964000Y-183139000D01*
X110962000Y-183137000D01*
X110960000Y-183135000D01*
X110958000Y-183133000D01*
X110956000Y-183131000D01*
X110955000Y-183129000D01*
X110953000Y-183127000D01*
X110952000Y-183125000D01*
X110950000Y-183123000D01*
X110949000Y-183120000D01*
X110948000Y-183118000D01*
X110947000Y-183115000D01*
X110947000Y-183113000D01*
X110946000Y-183110000D01*
X110946000Y-183108000D01*
X110945000Y-183105000D01*
X110945000Y-183103000D01*
X110945000Y-183100000D01*
X110945000Y-182450000D01*
X110945000Y-182447000D01*
X110945000Y-182445000D01*
X110946000Y-182442000D01*
X110946000Y-182440000D01*
X110947000Y-182437000D01*
X110947000Y-182435000D01*
X110948000Y-182432000D01*
X110949000Y-182430000D01*
X110950000Y-182427000D01*
X110952000Y-182425000D01*
X110953000Y-182423000D01*
X110955000Y-182421000D01*
X110956000Y-182419000D01*
X110958000Y-182417000D01*
X110960000Y-182415000D01*
X110962000Y-182413000D01*
X110964000Y-182411000D01*
X110966000Y-182410000D01*
X110968000Y-182408000D01*
X110970000Y-182407000D01*
X110972000Y-182405000D01*
X110975000Y-182404000D01*
X110977000Y-182403000D01*
X110980000Y-182402000D01*
X110982000Y-182402000D01*
X110985000Y-182401000D01*
X110987000Y-182401000D01*
X110990000Y-182400000D01*
X110992000Y-182400000D01*
X110995000Y-182400000D01*
X111155000Y-182400000D01*
X111157000Y-182400000D01*
X111159000Y-182401000D01*
G36*
X111159000Y-182401000D02*
G01*
X111162000Y-182401000D01*
X111164000Y-182402000D01*
X111166000Y-182403000D01*
X111168000Y-182404000D01*
X111171000Y-182405000D01*
X111173000Y-182406000D01*
X111175000Y-182407000D01*
X111177000Y-182408000D01*
X111178000Y-182410000D01*
X111180000Y-182411000D01*
X111182000Y-182413000D01*
X111184000Y-182415000D01*
X111185000Y-182417000D01*
X111187000Y-182418000D01*
X111188000Y-182420000D01*
X111189000Y-182422000D01*
X111190000Y-182424000D01*
X111191000Y-182427000D01*
X111192000Y-182429000D01*
X111193000Y-182431000D01*
X111194000Y-182433000D01*
X111194000Y-182436000D01*
X111195000Y-182438000D01*
X111195000Y-182440000D01*
X111195000Y-182443000D01*
X111195000Y-182445000D01*
X111195000Y-182447000D01*
X111195000Y-182450000D01*
X111195000Y-183100000D01*
X111195000Y-183103000D01*
X111195000Y-183105000D01*
X111195000Y-183107000D01*
X111195000Y-183110000D01*
X111195000Y-183112000D01*
X111194000Y-183114000D01*
X111194000Y-183117000D01*
X111193000Y-183119000D01*
X111192000Y-183121000D01*
X111191000Y-183123000D01*
X111190000Y-183126000D01*
X111189000Y-183128000D01*
X111188000Y-183130000D01*
X111187000Y-183132000D01*
X111185000Y-183133000D01*
X111184000Y-183135000D01*
X111182000Y-183137000D01*
X111180000Y-183139000D01*
X111178000Y-183140000D01*
X111177000Y-183142000D01*
X111175000Y-183143000D01*
X111173000Y-183144000D01*
X111171000Y-183145000D01*
X111168000Y-183146000D01*
X111166000Y-183147000D01*
X111164000Y-183148000D01*
X111162000Y-183149000D01*
X111159000Y-183149000D01*
X111157000Y-183150000D01*
X111155000Y-183150000D01*
X110995000Y-183150000D01*
X110992000Y-183150000D01*
X110990000Y-183150000D01*
X110987000Y-183149000D01*
X110985000Y-183149000D01*
X110982000Y-183148000D01*
X110980000Y-183148000D01*
X110977000Y-183147000D01*
X110975000Y-183146000D01*
X110972000Y-183145000D01*
X110970000Y-183143000D01*
X110968000Y-183142000D01*
X110966000Y-183140000D01*
X110964000Y-183139000D01*
X110962000Y-183137000D01*
X110960000Y-183135000D01*
X110958000Y-183133000D01*
X110956000Y-183131000D01*
X110955000Y-183129000D01*
X110953000Y-183127000D01*
X110952000Y-183125000D01*
X110950000Y-183123000D01*
X110949000Y-183120000D01*
X110948000Y-183118000D01*
X110947000Y-183115000D01*
X110947000Y-183113000D01*
X110946000Y-183110000D01*
X110946000Y-183108000D01*
X110945000Y-183105000D01*
X110945000Y-183103000D01*
X110945000Y-183100000D01*
X110945000Y-182450000D01*
X110945000Y-182447000D01*
X110945000Y-182445000D01*
X110946000Y-182442000D01*
X110946000Y-182440000D01*
X110947000Y-182437000D01*
X110947000Y-182435000D01*
X110948000Y-182432000D01*
X110949000Y-182430000D01*
X110950000Y-182427000D01*
X110952000Y-182425000D01*
X110953000Y-182423000D01*
X110955000Y-182421000D01*
X110956000Y-182419000D01*
X110958000Y-182417000D01*
X110960000Y-182415000D01*
X110962000Y-182413000D01*
X110964000Y-182411000D01*
X110966000Y-182410000D01*
X110968000Y-182408000D01*
X110970000Y-182407000D01*
X110972000Y-182405000D01*
X110975000Y-182404000D01*
X110977000Y-182403000D01*
X110980000Y-182402000D01*
X110982000Y-182402000D01*
X110985000Y-182401000D01*
X110987000Y-182401000D01*
X110990000Y-182400000D01*
X110992000Y-182400000D01*
X110995000Y-182400000D01*
X111155000Y-182400000D01*
X111157000Y-182400000D01*
X111159000Y-182401000D01*
G37*
X111159000Y-183351000D02*
X111162000Y-183351000D01*
X111164000Y-183352000D01*
X111166000Y-183353000D01*
X111168000Y-183354000D01*
X111171000Y-183355000D01*
X111173000Y-183356000D01*
X111175000Y-183357000D01*
X111177000Y-183358000D01*
X111178000Y-183360000D01*
X111180000Y-183361000D01*
X111182000Y-183363000D01*
X111184000Y-183365000D01*
X111185000Y-183367000D01*
X111187000Y-183368000D01*
X111188000Y-183370000D01*
X111189000Y-183372000D01*
X111190000Y-183374000D01*
X111191000Y-183377000D01*
X111192000Y-183379000D01*
X111193000Y-183381000D01*
X111194000Y-183383000D01*
X111194000Y-183386000D01*
X111195000Y-183388000D01*
X111195000Y-183390000D01*
X111195000Y-183393000D01*
X111195000Y-183395000D01*
X111195000Y-183397000D01*
X111195000Y-183400000D01*
X111195000Y-184050000D01*
X111195000Y-184053000D01*
X111195000Y-184055000D01*
X111195000Y-184057000D01*
X111195000Y-184060000D01*
X111195000Y-184062000D01*
X111194000Y-184064000D01*
X111194000Y-184067000D01*
X111193000Y-184069000D01*
X111192000Y-184071000D01*
X111191000Y-184073000D01*
X111190000Y-184076000D01*
X111189000Y-184078000D01*
X111188000Y-184080000D01*
X111187000Y-184082000D01*
X111185000Y-184083000D01*
X111184000Y-184085000D01*
X111182000Y-184087000D01*
X111180000Y-184089000D01*
X111178000Y-184090000D01*
X111177000Y-184092000D01*
X111175000Y-184093000D01*
X111173000Y-184094000D01*
X111171000Y-184095000D01*
X111168000Y-184096000D01*
X111166000Y-184097000D01*
X111164000Y-184098000D01*
X111162000Y-184099000D01*
X111159000Y-184099000D01*
X111157000Y-184100000D01*
X111155000Y-184100000D01*
X110995000Y-184100000D01*
X110992000Y-184100000D01*
X110990000Y-184100000D01*
X110987000Y-184099000D01*
X110985000Y-184099000D01*
X110982000Y-184098000D01*
X110980000Y-184098000D01*
X110977000Y-184097000D01*
X110975000Y-184096000D01*
X110972000Y-184095000D01*
X110970000Y-184093000D01*
X110968000Y-184092000D01*
X110966000Y-184090000D01*
X110964000Y-184089000D01*
X110962000Y-184087000D01*
X110960000Y-184085000D01*
X110958000Y-184083000D01*
X110956000Y-184081000D01*
X110955000Y-184079000D01*
X110953000Y-184077000D01*
X110952000Y-184075000D01*
X110950000Y-184073000D01*
X110949000Y-184070000D01*
X110948000Y-184068000D01*
X110947000Y-184065000D01*
X110947000Y-184063000D01*
X110946000Y-184060000D01*
X110946000Y-184058000D01*
X110945000Y-184055000D01*
X110945000Y-184053000D01*
X110945000Y-184050000D01*
X110945000Y-183400000D01*
X110945000Y-183397000D01*
X110945000Y-183395000D01*
X110946000Y-183392000D01*
X110946000Y-183390000D01*
X110947000Y-183387000D01*
X110947000Y-183385000D01*
X110948000Y-183382000D01*
X110949000Y-183380000D01*
X110950000Y-183377000D01*
X110952000Y-183375000D01*
X110953000Y-183373000D01*
X110955000Y-183371000D01*
X110956000Y-183369000D01*
X110958000Y-183367000D01*
X110960000Y-183365000D01*
X110962000Y-183363000D01*
X110964000Y-183361000D01*
X110966000Y-183360000D01*
X110968000Y-183358000D01*
X110970000Y-183357000D01*
X110972000Y-183355000D01*
X110975000Y-183354000D01*
X110977000Y-183353000D01*
X110980000Y-183352000D01*
X110982000Y-183352000D01*
X110985000Y-183351000D01*
X110987000Y-183351000D01*
X110990000Y-183350000D01*
X110992000Y-183350000D01*
X110995000Y-183350000D01*
X111155000Y-183350000D01*
X111157000Y-183350000D01*
X111159000Y-183351000D01*
G36*
X111159000Y-183351000D02*
G01*
X111162000Y-183351000D01*
X111164000Y-183352000D01*
X111166000Y-183353000D01*
X111168000Y-183354000D01*
X111171000Y-183355000D01*
X111173000Y-183356000D01*
X111175000Y-183357000D01*
X111177000Y-183358000D01*
X111178000Y-183360000D01*
X111180000Y-183361000D01*
X111182000Y-183363000D01*
X111184000Y-183365000D01*
X111185000Y-183367000D01*
X111187000Y-183368000D01*
X111188000Y-183370000D01*
X111189000Y-183372000D01*
X111190000Y-183374000D01*
X111191000Y-183377000D01*
X111192000Y-183379000D01*
X111193000Y-183381000D01*
X111194000Y-183383000D01*
X111194000Y-183386000D01*
X111195000Y-183388000D01*
X111195000Y-183390000D01*
X111195000Y-183393000D01*
X111195000Y-183395000D01*
X111195000Y-183397000D01*
X111195000Y-183400000D01*
X111195000Y-184050000D01*
X111195000Y-184053000D01*
X111195000Y-184055000D01*
X111195000Y-184057000D01*
X111195000Y-184060000D01*
X111195000Y-184062000D01*
X111194000Y-184064000D01*
X111194000Y-184067000D01*
X111193000Y-184069000D01*
X111192000Y-184071000D01*
X111191000Y-184073000D01*
X111190000Y-184076000D01*
X111189000Y-184078000D01*
X111188000Y-184080000D01*
X111187000Y-184082000D01*
X111185000Y-184083000D01*
X111184000Y-184085000D01*
X111182000Y-184087000D01*
X111180000Y-184089000D01*
X111178000Y-184090000D01*
X111177000Y-184092000D01*
X111175000Y-184093000D01*
X111173000Y-184094000D01*
X111171000Y-184095000D01*
X111168000Y-184096000D01*
X111166000Y-184097000D01*
X111164000Y-184098000D01*
X111162000Y-184099000D01*
X111159000Y-184099000D01*
X111157000Y-184100000D01*
X111155000Y-184100000D01*
X110995000Y-184100000D01*
X110992000Y-184100000D01*
X110990000Y-184100000D01*
X110987000Y-184099000D01*
X110985000Y-184099000D01*
X110982000Y-184098000D01*
X110980000Y-184098000D01*
X110977000Y-184097000D01*
X110975000Y-184096000D01*
X110972000Y-184095000D01*
X110970000Y-184093000D01*
X110968000Y-184092000D01*
X110966000Y-184090000D01*
X110964000Y-184089000D01*
X110962000Y-184087000D01*
X110960000Y-184085000D01*
X110958000Y-184083000D01*
X110956000Y-184081000D01*
X110955000Y-184079000D01*
X110953000Y-184077000D01*
X110952000Y-184075000D01*
X110950000Y-184073000D01*
X110949000Y-184070000D01*
X110948000Y-184068000D01*
X110947000Y-184065000D01*
X110947000Y-184063000D01*
X110946000Y-184060000D01*
X110946000Y-184058000D01*
X110945000Y-184055000D01*
X110945000Y-184053000D01*
X110945000Y-184050000D01*
X110945000Y-183400000D01*
X110945000Y-183397000D01*
X110945000Y-183395000D01*
X110946000Y-183392000D01*
X110946000Y-183390000D01*
X110947000Y-183387000D01*
X110947000Y-183385000D01*
X110948000Y-183382000D01*
X110949000Y-183380000D01*
X110950000Y-183377000D01*
X110952000Y-183375000D01*
X110953000Y-183373000D01*
X110955000Y-183371000D01*
X110956000Y-183369000D01*
X110958000Y-183367000D01*
X110960000Y-183365000D01*
X110962000Y-183363000D01*
X110964000Y-183361000D01*
X110966000Y-183360000D01*
X110968000Y-183358000D01*
X110970000Y-183357000D01*
X110972000Y-183355000D01*
X110975000Y-183354000D01*
X110977000Y-183353000D01*
X110980000Y-183352000D01*
X110982000Y-183352000D01*
X110985000Y-183351000D01*
X110987000Y-183351000D01*
X110990000Y-183350000D01*
X110992000Y-183350000D01*
X110995000Y-183350000D01*
X111155000Y-183350000D01*
X111157000Y-183350000D01*
X111159000Y-183351000D01*
G37*
X111808000Y-180701000D02*
X111810000Y-180701000D01*
X111813000Y-180702000D01*
X111815000Y-180702000D01*
X111818000Y-180703000D01*
X111820000Y-180704000D01*
X111823000Y-180705000D01*
X111825000Y-180707000D01*
X111827000Y-180708000D01*
X111829000Y-180710000D01*
X111831000Y-180711000D01*
X111833000Y-180713000D01*
X111835000Y-180715000D01*
X111837000Y-180717000D01*
X111839000Y-180719000D01*
X111840000Y-180721000D01*
X111842000Y-180723000D01*
X111843000Y-180725000D01*
X111845000Y-180727000D01*
X111846000Y-180730000D01*
X111847000Y-180732000D01*
X111848000Y-180735000D01*
X111848000Y-180737000D01*
X111849000Y-180740000D01*
X111849000Y-180742000D01*
X111850000Y-180745000D01*
X111850000Y-180747000D01*
X111850000Y-180750000D01*
X111850000Y-181525000D01*
X112360000Y-181525000D01*
X112363000Y-181525000D01*
X112365000Y-181525000D01*
X112368000Y-181526000D01*
X112370000Y-181526000D01*
X112373000Y-181527000D01*
X112375000Y-181527000D01*
X112378000Y-181528000D01*
X112380000Y-181529000D01*
X112383000Y-181530000D01*
X112385000Y-181532000D01*
X112387000Y-181533000D01*
X112389000Y-181535000D01*
X112391000Y-181536000D01*
X112393000Y-181538000D01*
X112395000Y-181540000D01*
X112397000Y-181542000D01*
X112399000Y-181544000D01*
X112400000Y-181546000D01*
X112402000Y-181548000D01*
X112403000Y-181550000D01*
X112405000Y-181552000D01*
X112406000Y-181555000D01*
X112407000Y-181557000D01*
X112408000Y-181560000D01*
X112408000Y-181562000D01*
X112409000Y-181565000D01*
X112409000Y-181567000D01*
X112410000Y-181570000D01*
X112410000Y-181572000D01*
X112410000Y-181575000D01*
X112410000Y-181725000D01*
X112410000Y-181728000D01*
X112410000Y-181730000D01*
X112409000Y-181733000D01*
X112409000Y-181735000D01*
X112408000Y-181738000D01*
X112408000Y-181740000D01*
X112407000Y-181743000D01*
X112406000Y-181745000D01*
X112405000Y-181748000D01*
X112403000Y-181750000D01*
X112402000Y-181752000D01*
X112400000Y-181754000D01*
X112399000Y-181756000D01*
X112397000Y-181758000D01*
X112395000Y-181760000D01*
X112393000Y-181762000D01*
X112391000Y-181764000D01*
X112389000Y-181765000D01*
X112387000Y-181767000D01*
X112385000Y-181768000D01*
X112383000Y-181770000D01*
X112380000Y-181771000D01*
X112378000Y-181772000D01*
X112375000Y-181773000D01*
X112373000Y-181773000D01*
X112370000Y-181774000D01*
X112368000Y-181774000D01*
X112365000Y-181775000D01*
X112363000Y-181775000D01*
X112360000Y-181775000D01*
X111850000Y-181775000D01*
X111850000Y-182025000D01*
X112360000Y-182025000D01*
X112363000Y-182025000D01*
X112365000Y-182025000D01*
X112368000Y-182026000D01*
X112370000Y-182026000D01*
X112373000Y-182027000D01*
X112375000Y-182027000D01*
X112378000Y-182028000D01*
X112380000Y-182029000D01*
X112383000Y-182030000D01*
X112385000Y-182032000D01*
X112387000Y-182033000D01*
X112389000Y-182035000D01*
X112391000Y-182036000D01*
X112393000Y-182038000D01*
X112395000Y-182040000D01*
X112397000Y-182042000D01*
X112399000Y-182044000D01*
X112400000Y-182046000D01*
X112402000Y-182048000D01*
X112403000Y-182050000D01*
X112405000Y-182052000D01*
X112406000Y-182055000D01*
X112407000Y-182057000D01*
X112408000Y-182060000D01*
X112408000Y-182062000D01*
X112409000Y-182065000D01*
X112409000Y-182067000D01*
X112410000Y-182070000D01*
X112410000Y-182072000D01*
X112410000Y-182075000D01*
X112410000Y-182225000D01*
X112410000Y-182228000D01*
X112410000Y-182230000D01*
X112409000Y-182233000D01*
X112409000Y-182235000D01*
X112408000Y-182238000D01*
X112408000Y-182240000D01*
X112407000Y-182243000D01*
X112406000Y-182245000D01*
X112405000Y-182248000D01*
X112403000Y-182250000D01*
X112402000Y-182252000D01*
X112400000Y-182254000D01*
X112399000Y-182256000D01*
X112397000Y-182258000D01*
X112395000Y-182260000D01*
X112393000Y-182262000D01*
X112391000Y-182264000D01*
X112389000Y-182265000D01*
X112387000Y-182267000D01*
X112385000Y-182268000D01*
X112383000Y-182270000D01*
X112380000Y-182271000D01*
X112378000Y-182272000D01*
X112375000Y-182273000D01*
X112373000Y-182273000D01*
X112370000Y-182274000D01*
X112368000Y-182274000D01*
X112365000Y-182275000D01*
X112363000Y-182275000D01*
X112360000Y-182275000D01*
X111850000Y-182275000D01*
X111850000Y-182525000D01*
X112360000Y-182525000D01*
X112363000Y-182526000D01*
X112366000Y-182527000D01*
X112369000Y-182528000D01*
X112372000Y-182529000D01*
X112375000Y-182530000D01*
X112378000Y-182532000D01*
X112381000Y-182533000D01*
X112384000Y-182535000D01*
X112387000Y-182537000D01*
X112389000Y-182539000D01*
X112392000Y-182542000D01*
X112394000Y-182544000D01*
X112396000Y-182547000D01*
X112398000Y-182549000D01*
X112400000Y-182552000D01*
X112402000Y-182555000D01*
X112404000Y-182558000D01*
X112405000Y-182561000D01*
X112407000Y-182564000D01*
X112408000Y-182567000D01*
X112409000Y-182570000D01*
X112410000Y-182573000D01*
X112410000Y-182576000D01*
X112411000Y-182580000D01*
X112411000Y-182583000D01*
X112411000Y-182586000D01*
X112411000Y-182590000D01*
X112411000Y-182593000D01*
X112411000Y-182596000D01*
X112410000Y-182600000D01*
X112410000Y-182700000D01*
X112411000Y-182704000D01*
X112411000Y-182707000D01*
X112411000Y-182710000D01*
X112411000Y-182714000D01*
X112411000Y-182717000D01*
X112411000Y-182720000D01*
X112410000Y-182724000D01*
X112410000Y-182727000D01*
X112409000Y-182730000D01*
X112408000Y-182733000D01*
X112407000Y-182736000D01*
X112405000Y-182739000D01*
X112404000Y-182742000D01*
X112402000Y-182745000D01*
X112400000Y-182748000D01*
X112398000Y-182751000D01*
X112396000Y-182753000D01*
X112394000Y-182756000D01*
X112392000Y-182758000D01*
X112389000Y-182761000D01*
X112387000Y-182763000D01*
X112384000Y-182765000D01*
X112381000Y-182767000D01*
X112378000Y-182768000D01*
X112375000Y-182770000D01*
X112372000Y-182771000D01*
X112369000Y-182772000D01*
X112366000Y-182773000D01*
X112363000Y-182774000D01*
X112360000Y-182775000D01*
X111850000Y-182775000D01*
X111850000Y-182800000D01*
X111500000Y-182800000D01*
X111497000Y-182800000D01*
X111495000Y-182800000D01*
X111492000Y-182799000D01*
X111490000Y-182799000D01*
X111487000Y-182798000D01*
X111485000Y-182798000D01*
X111482000Y-182797000D01*
X111480000Y-182796000D01*
X111477000Y-182795000D01*
X111475000Y-182793000D01*
X111473000Y-182792000D01*
X111471000Y-182790000D01*
X111469000Y-182789000D01*
X111467000Y-182787000D01*
X111465000Y-182785000D01*
X111463000Y-182783000D01*
X111461000Y-182781000D01*
X111460000Y-182779000D01*
X111458000Y-182777000D01*
X111457000Y-182775000D01*
X111455000Y-182773000D01*
X111454000Y-182770000D01*
X111453000Y-182768000D01*
X111452000Y-182765000D01*
X111452000Y-182763000D01*
X111451000Y-182760000D01*
X111451000Y-182758000D01*
X111450000Y-182755000D01*
X111450000Y-182753000D01*
X111450000Y-182750000D01*
X111450000Y-180750000D01*
X111450000Y-180747000D01*
X111450000Y-180745000D01*
X111451000Y-180742000D01*
X111451000Y-180740000D01*
X111452000Y-180737000D01*
X111452000Y-180735000D01*
X111453000Y-180732000D01*
X111454000Y-180730000D01*
X111455000Y-180727000D01*
X111457000Y-180725000D01*
X111458000Y-180723000D01*
X111460000Y-180721000D01*
X111461000Y-180719000D01*
X111463000Y-180717000D01*
X111465000Y-180715000D01*
X111467000Y-180713000D01*
X111469000Y-180711000D01*
X111471000Y-180710000D01*
X111473000Y-180708000D01*
X111475000Y-180707000D01*
X111477000Y-180705000D01*
X111480000Y-180704000D01*
X111482000Y-180703000D01*
X111485000Y-180702000D01*
X111487000Y-180702000D01*
X111490000Y-180701000D01*
X111492000Y-180701000D01*
X111495000Y-180700000D01*
X111497000Y-180700000D01*
X111500000Y-180700000D01*
X111800000Y-180700000D01*
X111803000Y-180700000D01*
X111805000Y-180700000D01*
X111808000Y-180701000D01*
G36*
X111808000Y-180701000D02*
G01*
X111810000Y-180701000D01*
X111813000Y-180702000D01*
X111815000Y-180702000D01*
X111818000Y-180703000D01*
X111820000Y-180704000D01*
X111823000Y-180705000D01*
X111825000Y-180707000D01*
X111827000Y-180708000D01*
X111829000Y-180710000D01*
X111831000Y-180711000D01*
X111833000Y-180713000D01*
X111835000Y-180715000D01*
X111837000Y-180717000D01*
X111839000Y-180719000D01*
X111840000Y-180721000D01*
X111842000Y-180723000D01*
X111843000Y-180725000D01*
X111845000Y-180727000D01*
X111846000Y-180730000D01*
X111847000Y-180732000D01*
X111848000Y-180735000D01*
X111848000Y-180737000D01*
X111849000Y-180740000D01*
X111849000Y-180742000D01*
X111850000Y-180745000D01*
X111850000Y-180747000D01*
X111850000Y-180750000D01*
X111850000Y-181525000D01*
X112360000Y-181525000D01*
X112363000Y-181525000D01*
X112365000Y-181525000D01*
X112368000Y-181526000D01*
X112370000Y-181526000D01*
X112373000Y-181527000D01*
X112375000Y-181527000D01*
X112378000Y-181528000D01*
X112380000Y-181529000D01*
X112383000Y-181530000D01*
X112385000Y-181532000D01*
X112387000Y-181533000D01*
X112389000Y-181535000D01*
X112391000Y-181536000D01*
X112393000Y-181538000D01*
X112395000Y-181540000D01*
X112397000Y-181542000D01*
X112399000Y-181544000D01*
X112400000Y-181546000D01*
X112402000Y-181548000D01*
X112403000Y-181550000D01*
X112405000Y-181552000D01*
X112406000Y-181555000D01*
X112407000Y-181557000D01*
X112408000Y-181560000D01*
X112408000Y-181562000D01*
X112409000Y-181565000D01*
X112409000Y-181567000D01*
X112410000Y-181570000D01*
X112410000Y-181572000D01*
X112410000Y-181575000D01*
X112410000Y-181725000D01*
X112410000Y-181728000D01*
X112410000Y-181730000D01*
X112409000Y-181733000D01*
X112409000Y-181735000D01*
X112408000Y-181738000D01*
X112408000Y-181740000D01*
X112407000Y-181743000D01*
X112406000Y-181745000D01*
X112405000Y-181748000D01*
X112403000Y-181750000D01*
X112402000Y-181752000D01*
X112400000Y-181754000D01*
X112399000Y-181756000D01*
X112397000Y-181758000D01*
X112395000Y-181760000D01*
X112393000Y-181762000D01*
X112391000Y-181764000D01*
X112389000Y-181765000D01*
X112387000Y-181767000D01*
X112385000Y-181768000D01*
X112383000Y-181770000D01*
X112380000Y-181771000D01*
X112378000Y-181772000D01*
X112375000Y-181773000D01*
X112373000Y-181773000D01*
X112370000Y-181774000D01*
X112368000Y-181774000D01*
X112365000Y-181775000D01*
X112363000Y-181775000D01*
X112360000Y-181775000D01*
X111850000Y-181775000D01*
X111850000Y-182025000D01*
X112360000Y-182025000D01*
X112363000Y-182025000D01*
X112365000Y-182025000D01*
X112368000Y-182026000D01*
X112370000Y-182026000D01*
X112373000Y-182027000D01*
X112375000Y-182027000D01*
X112378000Y-182028000D01*
X112380000Y-182029000D01*
X112383000Y-182030000D01*
X112385000Y-182032000D01*
X112387000Y-182033000D01*
X112389000Y-182035000D01*
X112391000Y-182036000D01*
X112393000Y-182038000D01*
X112395000Y-182040000D01*
X112397000Y-182042000D01*
X112399000Y-182044000D01*
X112400000Y-182046000D01*
X112402000Y-182048000D01*
X112403000Y-182050000D01*
X112405000Y-182052000D01*
X112406000Y-182055000D01*
X112407000Y-182057000D01*
X112408000Y-182060000D01*
X112408000Y-182062000D01*
X112409000Y-182065000D01*
X112409000Y-182067000D01*
X112410000Y-182070000D01*
X112410000Y-182072000D01*
X112410000Y-182075000D01*
X112410000Y-182225000D01*
X112410000Y-182228000D01*
X112410000Y-182230000D01*
X112409000Y-182233000D01*
X112409000Y-182235000D01*
X112408000Y-182238000D01*
X112408000Y-182240000D01*
X112407000Y-182243000D01*
X112406000Y-182245000D01*
X112405000Y-182248000D01*
X112403000Y-182250000D01*
X112402000Y-182252000D01*
X112400000Y-182254000D01*
X112399000Y-182256000D01*
X112397000Y-182258000D01*
X112395000Y-182260000D01*
X112393000Y-182262000D01*
X112391000Y-182264000D01*
X112389000Y-182265000D01*
X112387000Y-182267000D01*
X112385000Y-182268000D01*
X112383000Y-182270000D01*
X112380000Y-182271000D01*
X112378000Y-182272000D01*
X112375000Y-182273000D01*
X112373000Y-182273000D01*
X112370000Y-182274000D01*
X112368000Y-182274000D01*
X112365000Y-182275000D01*
X112363000Y-182275000D01*
X112360000Y-182275000D01*
X111850000Y-182275000D01*
X111850000Y-182525000D01*
X112360000Y-182525000D01*
X112363000Y-182526000D01*
X112366000Y-182527000D01*
X112369000Y-182528000D01*
X112372000Y-182529000D01*
X112375000Y-182530000D01*
X112378000Y-182532000D01*
X112381000Y-182533000D01*
X112384000Y-182535000D01*
X112387000Y-182537000D01*
X112389000Y-182539000D01*
X112392000Y-182542000D01*
X112394000Y-182544000D01*
X112396000Y-182547000D01*
X112398000Y-182549000D01*
X112400000Y-182552000D01*
X112402000Y-182555000D01*
X112404000Y-182558000D01*
X112405000Y-182561000D01*
X112407000Y-182564000D01*
X112408000Y-182567000D01*
X112409000Y-182570000D01*
X112410000Y-182573000D01*
X112410000Y-182576000D01*
X112411000Y-182580000D01*
X112411000Y-182583000D01*
X112411000Y-182586000D01*
X112411000Y-182590000D01*
X112411000Y-182593000D01*
X112411000Y-182596000D01*
X112410000Y-182600000D01*
X112410000Y-182700000D01*
X112411000Y-182704000D01*
X112411000Y-182707000D01*
X112411000Y-182710000D01*
X112411000Y-182714000D01*
X112411000Y-182717000D01*
X112411000Y-182720000D01*
X112410000Y-182724000D01*
X112410000Y-182727000D01*
X112409000Y-182730000D01*
X112408000Y-182733000D01*
X112407000Y-182736000D01*
X112405000Y-182739000D01*
X112404000Y-182742000D01*
X112402000Y-182745000D01*
X112400000Y-182748000D01*
X112398000Y-182751000D01*
X112396000Y-182753000D01*
X112394000Y-182756000D01*
X112392000Y-182758000D01*
X112389000Y-182761000D01*
X112387000Y-182763000D01*
X112384000Y-182765000D01*
X112381000Y-182767000D01*
X112378000Y-182768000D01*
X112375000Y-182770000D01*
X112372000Y-182771000D01*
X112369000Y-182772000D01*
X112366000Y-182773000D01*
X112363000Y-182774000D01*
X112360000Y-182775000D01*
X111850000Y-182775000D01*
X111850000Y-182800000D01*
X111500000Y-182800000D01*
X111497000Y-182800000D01*
X111495000Y-182800000D01*
X111492000Y-182799000D01*
X111490000Y-182799000D01*
X111487000Y-182798000D01*
X111485000Y-182798000D01*
X111482000Y-182797000D01*
X111480000Y-182796000D01*
X111477000Y-182795000D01*
X111475000Y-182793000D01*
X111473000Y-182792000D01*
X111471000Y-182790000D01*
X111469000Y-182789000D01*
X111467000Y-182787000D01*
X111465000Y-182785000D01*
X111463000Y-182783000D01*
X111461000Y-182781000D01*
X111460000Y-182779000D01*
X111458000Y-182777000D01*
X111457000Y-182775000D01*
X111455000Y-182773000D01*
X111454000Y-182770000D01*
X111453000Y-182768000D01*
X111452000Y-182765000D01*
X111452000Y-182763000D01*
X111451000Y-182760000D01*
X111451000Y-182758000D01*
X111450000Y-182755000D01*
X111450000Y-182753000D01*
X111450000Y-182750000D01*
X111450000Y-180750000D01*
X111450000Y-180747000D01*
X111450000Y-180745000D01*
X111451000Y-180742000D01*
X111451000Y-180740000D01*
X111452000Y-180737000D01*
X111452000Y-180735000D01*
X111453000Y-180732000D01*
X111454000Y-180730000D01*
X111455000Y-180727000D01*
X111457000Y-180725000D01*
X111458000Y-180723000D01*
X111460000Y-180721000D01*
X111461000Y-180719000D01*
X111463000Y-180717000D01*
X111465000Y-180715000D01*
X111467000Y-180713000D01*
X111469000Y-180711000D01*
X111471000Y-180710000D01*
X111473000Y-180708000D01*
X111475000Y-180707000D01*
X111477000Y-180705000D01*
X111480000Y-180704000D01*
X111482000Y-180703000D01*
X111485000Y-180702000D01*
X111487000Y-180702000D01*
X111490000Y-180701000D01*
X111492000Y-180701000D01*
X111495000Y-180700000D01*
X111497000Y-180700000D01*
X111500000Y-180700000D01*
X111800000Y-180700000D01*
X111803000Y-180700000D01*
X111805000Y-180700000D01*
X111808000Y-180701000D01*
G37*
%TO.C,U10*%
X123848000Y-180701000D02*
X123850000Y-180701000D01*
X123853000Y-180702000D01*
X123855000Y-180702000D01*
X123858000Y-180703000D01*
X123860000Y-180704000D01*
X123863000Y-180705000D01*
X123865000Y-180707000D01*
X123867000Y-180708000D01*
X123869000Y-180710000D01*
X123871000Y-180711000D01*
X123873000Y-180713000D01*
X123875000Y-180715000D01*
X123877000Y-180717000D01*
X123879000Y-180719000D01*
X123880000Y-180721000D01*
X123882000Y-180723000D01*
X123883000Y-180725000D01*
X123885000Y-180727000D01*
X123886000Y-180730000D01*
X123887000Y-180732000D01*
X123888000Y-180735000D01*
X123888000Y-180737000D01*
X123889000Y-180740000D01*
X123889000Y-180742000D01*
X123890000Y-180745000D01*
X123890000Y-180747000D01*
X123890000Y-180750000D01*
X123890000Y-181600000D01*
X123890000Y-181603000D01*
X123890000Y-181605000D01*
X123889000Y-181608000D01*
X123889000Y-181610000D01*
X123888000Y-181613000D01*
X123888000Y-181615000D01*
X123887000Y-181618000D01*
X123886000Y-181620000D01*
X123885000Y-181623000D01*
X123883000Y-181625000D01*
X123882000Y-181627000D01*
X123880000Y-181629000D01*
X123879000Y-181631000D01*
X123877000Y-181633000D01*
X123875000Y-181635000D01*
X123873000Y-181637000D01*
X123871000Y-181639000D01*
X123869000Y-181640000D01*
X123867000Y-181642000D01*
X123865000Y-181643000D01*
X123863000Y-181645000D01*
X123860000Y-181646000D01*
X123858000Y-181647000D01*
X123855000Y-181648000D01*
X123853000Y-181648000D01*
X123850000Y-181649000D01*
X123848000Y-181649000D01*
X123845000Y-181650000D01*
X123843000Y-181650000D01*
X123840000Y-181650000D01*
X123540000Y-181650000D01*
X123537000Y-181650000D01*
X123535000Y-181650000D01*
X123532000Y-181649000D01*
X123530000Y-181649000D01*
X123527000Y-181648000D01*
X123525000Y-181648000D01*
X123522000Y-181647000D01*
X123520000Y-181646000D01*
X123517000Y-181645000D01*
X123515000Y-181643000D01*
X123513000Y-181642000D01*
X123511000Y-181640000D01*
X123509000Y-181639000D01*
X123507000Y-181637000D01*
X123505000Y-181635000D01*
X123503000Y-181633000D01*
X123501000Y-181631000D01*
X123500000Y-181629000D01*
X123498000Y-181627000D01*
X123497000Y-181625000D01*
X123495000Y-181623000D01*
X123494000Y-181620000D01*
X123493000Y-181618000D01*
X123492000Y-181615000D01*
X123492000Y-181613000D01*
X123491000Y-181610000D01*
X123491000Y-181608000D01*
X123490000Y-181605000D01*
X123490000Y-181603000D01*
X123490000Y-181600000D01*
X123490000Y-180750000D01*
X123490000Y-180747000D01*
X123490000Y-180745000D01*
X123491000Y-180742000D01*
X123491000Y-180740000D01*
X123492000Y-180737000D01*
X123492000Y-180735000D01*
X123493000Y-180732000D01*
X123494000Y-180730000D01*
X123495000Y-180727000D01*
X123497000Y-180725000D01*
X123498000Y-180723000D01*
X123500000Y-180721000D01*
X123501000Y-180719000D01*
X123503000Y-180717000D01*
X123505000Y-180715000D01*
X123507000Y-180713000D01*
X123509000Y-180711000D01*
X123511000Y-180710000D01*
X123513000Y-180708000D01*
X123515000Y-180707000D01*
X123517000Y-180705000D01*
X123520000Y-180704000D01*
X123522000Y-180703000D01*
X123525000Y-180702000D01*
X123527000Y-180702000D01*
X123530000Y-180701000D01*
X123532000Y-180701000D01*
X123535000Y-180700000D01*
X123537000Y-180700000D01*
X123540000Y-180700000D01*
X123840000Y-180700000D01*
X123843000Y-180700000D01*
X123845000Y-180700000D01*
X123848000Y-180701000D01*
G36*
X123848000Y-180701000D02*
G01*
X123850000Y-180701000D01*
X123853000Y-180702000D01*
X123855000Y-180702000D01*
X123858000Y-180703000D01*
X123860000Y-180704000D01*
X123863000Y-180705000D01*
X123865000Y-180707000D01*
X123867000Y-180708000D01*
X123869000Y-180710000D01*
X123871000Y-180711000D01*
X123873000Y-180713000D01*
X123875000Y-180715000D01*
X123877000Y-180717000D01*
X123879000Y-180719000D01*
X123880000Y-180721000D01*
X123882000Y-180723000D01*
X123883000Y-180725000D01*
X123885000Y-180727000D01*
X123886000Y-180730000D01*
X123887000Y-180732000D01*
X123888000Y-180735000D01*
X123888000Y-180737000D01*
X123889000Y-180740000D01*
X123889000Y-180742000D01*
X123890000Y-180745000D01*
X123890000Y-180747000D01*
X123890000Y-180750000D01*
X123890000Y-181600000D01*
X123890000Y-181603000D01*
X123890000Y-181605000D01*
X123889000Y-181608000D01*
X123889000Y-181610000D01*
X123888000Y-181613000D01*
X123888000Y-181615000D01*
X123887000Y-181618000D01*
X123886000Y-181620000D01*
X123885000Y-181623000D01*
X123883000Y-181625000D01*
X123882000Y-181627000D01*
X123880000Y-181629000D01*
X123879000Y-181631000D01*
X123877000Y-181633000D01*
X123875000Y-181635000D01*
X123873000Y-181637000D01*
X123871000Y-181639000D01*
X123869000Y-181640000D01*
X123867000Y-181642000D01*
X123865000Y-181643000D01*
X123863000Y-181645000D01*
X123860000Y-181646000D01*
X123858000Y-181647000D01*
X123855000Y-181648000D01*
X123853000Y-181648000D01*
X123850000Y-181649000D01*
X123848000Y-181649000D01*
X123845000Y-181650000D01*
X123843000Y-181650000D01*
X123840000Y-181650000D01*
X123540000Y-181650000D01*
X123537000Y-181650000D01*
X123535000Y-181650000D01*
X123532000Y-181649000D01*
X123530000Y-181649000D01*
X123527000Y-181648000D01*
X123525000Y-181648000D01*
X123522000Y-181647000D01*
X123520000Y-181646000D01*
X123517000Y-181645000D01*
X123515000Y-181643000D01*
X123513000Y-181642000D01*
X123511000Y-181640000D01*
X123509000Y-181639000D01*
X123507000Y-181637000D01*
X123505000Y-181635000D01*
X123503000Y-181633000D01*
X123501000Y-181631000D01*
X123500000Y-181629000D01*
X123498000Y-181627000D01*
X123497000Y-181625000D01*
X123495000Y-181623000D01*
X123494000Y-181620000D01*
X123493000Y-181618000D01*
X123492000Y-181615000D01*
X123492000Y-181613000D01*
X123491000Y-181610000D01*
X123491000Y-181608000D01*
X123490000Y-181605000D01*
X123490000Y-181603000D01*
X123490000Y-181600000D01*
X123490000Y-180750000D01*
X123490000Y-180747000D01*
X123490000Y-180745000D01*
X123491000Y-180742000D01*
X123491000Y-180740000D01*
X123492000Y-180737000D01*
X123492000Y-180735000D01*
X123493000Y-180732000D01*
X123494000Y-180730000D01*
X123495000Y-180727000D01*
X123497000Y-180725000D01*
X123498000Y-180723000D01*
X123500000Y-180721000D01*
X123501000Y-180719000D01*
X123503000Y-180717000D01*
X123505000Y-180715000D01*
X123507000Y-180713000D01*
X123509000Y-180711000D01*
X123511000Y-180710000D01*
X123513000Y-180708000D01*
X123515000Y-180707000D01*
X123517000Y-180705000D01*
X123520000Y-180704000D01*
X123522000Y-180703000D01*
X123525000Y-180702000D01*
X123527000Y-180702000D01*
X123530000Y-180701000D01*
X123532000Y-180701000D01*
X123535000Y-180700000D01*
X123537000Y-180700000D01*
X123540000Y-180700000D01*
X123840000Y-180700000D01*
X123843000Y-180700000D01*
X123845000Y-180700000D01*
X123848000Y-180701000D01*
G37*
X123848000Y-181851000D02*
X123850000Y-181851000D01*
X123853000Y-181852000D01*
X123855000Y-181852000D01*
X123858000Y-181853000D01*
X123860000Y-181854000D01*
X123863000Y-181855000D01*
X123865000Y-181857000D01*
X123867000Y-181858000D01*
X123869000Y-181860000D01*
X123871000Y-181861000D01*
X123873000Y-181863000D01*
X123875000Y-181865000D01*
X123877000Y-181867000D01*
X123879000Y-181869000D01*
X123880000Y-181871000D01*
X123882000Y-181873000D01*
X123883000Y-181875000D01*
X123885000Y-181877000D01*
X123886000Y-181880000D01*
X123887000Y-181882000D01*
X123888000Y-181885000D01*
X123888000Y-181887000D01*
X123889000Y-181890000D01*
X123889000Y-181892000D01*
X123890000Y-181895000D01*
X123890000Y-181897000D01*
X123890000Y-181900000D01*
X123890000Y-182750000D01*
X123890000Y-182753000D01*
X123890000Y-182755000D01*
X123889000Y-182758000D01*
X123889000Y-182760000D01*
X123888000Y-182763000D01*
X123888000Y-182765000D01*
X123887000Y-182768000D01*
X123886000Y-182770000D01*
X123885000Y-182773000D01*
X123883000Y-182775000D01*
X123882000Y-182777000D01*
X123880000Y-182779000D01*
X123879000Y-182781000D01*
X123877000Y-182783000D01*
X123875000Y-182785000D01*
X123873000Y-182787000D01*
X123871000Y-182789000D01*
X123869000Y-182790000D01*
X123867000Y-182792000D01*
X123865000Y-182793000D01*
X123863000Y-182795000D01*
X123860000Y-182796000D01*
X123858000Y-182797000D01*
X123855000Y-182798000D01*
X123853000Y-182798000D01*
X123850000Y-182799000D01*
X123848000Y-182799000D01*
X123845000Y-182800000D01*
X123843000Y-182800000D01*
X123840000Y-182800000D01*
X123540000Y-182800000D01*
X123537000Y-182800000D01*
X123535000Y-182800000D01*
X123532000Y-182799000D01*
X123530000Y-182799000D01*
X123527000Y-182798000D01*
X123525000Y-182798000D01*
X123522000Y-182797000D01*
X123520000Y-182796000D01*
X123517000Y-182795000D01*
X123515000Y-182793000D01*
X123513000Y-182792000D01*
X123511000Y-182790000D01*
X123509000Y-182789000D01*
X123507000Y-182787000D01*
X123505000Y-182785000D01*
X123503000Y-182783000D01*
X123501000Y-182781000D01*
X123500000Y-182779000D01*
X123498000Y-182777000D01*
X123497000Y-182775000D01*
X123495000Y-182773000D01*
X123494000Y-182770000D01*
X123493000Y-182768000D01*
X123492000Y-182765000D01*
X123492000Y-182763000D01*
X123491000Y-182760000D01*
X123491000Y-182758000D01*
X123490000Y-182755000D01*
X123490000Y-182753000D01*
X123490000Y-182750000D01*
X123490000Y-181900000D01*
X123490000Y-181897000D01*
X123490000Y-181895000D01*
X123491000Y-181892000D01*
X123491000Y-181890000D01*
X123492000Y-181887000D01*
X123492000Y-181885000D01*
X123493000Y-181882000D01*
X123494000Y-181880000D01*
X123495000Y-181877000D01*
X123497000Y-181875000D01*
X123498000Y-181873000D01*
X123500000Y-181871000D01*
X123501000Y-181869000D01*
X123503000Y-181867000D01*
X123505000Y-181865000D01*
X123507000Y-181863000D01*
X123509000Y-181861000D01*
X123511000Y-181860000D01*
X123513000Y-181858000D01*
X123515000Y-181857000D01*
X123517000Y-181855000D01*
X123520000Y-181854000D01*
X123522000Y-181853000D01*
X123525000Y-181852000D01*
X123527000Y-181852000D01*
X123530000Y-181851000D01*
X123532000Y-181851000D01*
X123535000Y-181850000D01*
X123537000Y-181850000D01*
X123540000Y-181850000D01*
X123840000Y-181850000D01*
X123843000Y-181850000D01*
X123845000Y-181850000D01*
X123848000Y-181851000D01*
G36*
X123848000Y-181851000D02*
G01*
X123850000Y-181851000D01*
X123853000Y-181852000D01*
X123855000Y-181852000D01*
X123858000Y-181853000D01*
X123860000Y-181854000D01*
X123863000Y-181855000D01*
X123865000Y-181857000D01*
X123867000Y-181858000D01*
X123869000Y-181860000D01*
X123871000Y-181861000D01*
X123873000Y-181863000D01*
X123875000Y-181865000D01*
X123877000Y-181867000D01*
X123879000Y-181869000D01*
X123880000Y-181871000D01*
X123882000Y-181873000D01*
X123883000Y-181875000D01*
X123885000Y-181877000D01*
X123886000Y-181880000D01*
X123887000Y-181882000D01*
X123888000Y-181885000D01*
X123888000Y-181887000D01*
X123889000Y-181890000D01*
X123889000Y-181892000D01*
X123890000Y-181895000D01*
X123890000Y-181897000D01*
X123890000Y-181900000D01*
X123890000Y-182750000D01*
X123890000Y-182753000D01*
X123890000Y-182755000D01*
X123889000Y-182758000D01*
X123889000Y-182760000D01*
X123888000Y-182763000D01*
X123888000Y-182765000D01*
X123887000Y-182768000D01*
X123886000Y-182770000D01*
X123885000Y-182773000D01*
X123883000Y-182775000D01*
X123882000Y-182777000D01*
X123880000Y-182779000D01*
X123879000Y-182781000D01*
X123877000Y-182783000D01*
X123875000Y-182785000D01*
X123873000Y-182787000D01*
X123871000Y-182789000D01*
X123869000Y-182790000D01*
X123867000Y-182792000D01*
X123865000Y-182793000D01*
X123863000Y-182795000D01*
X123860000Y-182796000D01*
X123858000Y-182797000D01*
X123855000Y-182798000D01*
X123853000Y-182798000D01*
X123850000Y-182799000D01*
X123848000Y-182799000D01*
X123845000Y-182800000D01*
X123843000Y-182800000D01*
X123840000Y-182800000D01*
X123540000Y-182800000D01*
X123537000Y-182800000D01*
X123535000Y-182800000D01*
X123532000Y-182799000D01*
X123530000Y-182799000D01*
X123527000Y-182798000D01*
X123525000Y-182798000D01*
X123522000Y-182797000D01*
X123520000Y-182796000D01*
X123517000Y-182795000D01*
X123515000Y-182793000D01*
X123513000Y-182792000D01*
X123511000Y-182790000D01*
X123509000Y-182789000D01*
X123507000Y-182787000D01*
X123505000Y-182785000D01*
X123503000Y-182783000D01*
X123501000Y-182781000D01*
X123500000Y-182779000D01*
X123498000Y-182777000D01*
X123497000Y-182775000D01*
X123495000Y-182773000D01*
X123494000Y-182770000D01*
X123493000Y-182768000D01*
X123492000Y-182765000D01*
X123492000Y-182763000D01*
X123491000Y-182760000D01*
X123491000Y-182758000D01*
X123490000Y-182755000D01*
X123490000Y-182753000D01*
X123490000Y-182750000D01*
X123490000Y-181900000D01*
X123490000Y-181897000D01*
X123490000Y-181895000D01*
X123491000Y-181892000D01*
X123491000Y-181890000D01*
X123492000Y-181887000D01*
X123492000Y-181885000D01*
X123493000Y-181882000D01*
X123494000Y-181880000D01*
X123495000Y-181877000D01*
X123497000Y-181875000D01*
X123498000Y-181873000D01*
X123500000Y-181871000D01*
X123501000Y-181869000D01*
X123503000Y-181867000D01*
X123505000Y-181865000D01*
X123507000Y-181863000D01*
X123509000Y-181861000D01*
X123511000Y-181860000D01*
X123513000Y-181858000D01*
X123515000Y-181857000D01*
X123517000Y-181855000D01*
X123520000Y-181854000D01*
X123522000Y-181853000D01*
X123525000Y-181852000D01*
X123527000Y-181852000D01*
X123530000Y-181851000D01*
X123532000Y-181851000D01*
X123535000Y-181850000D01*
X123537000Y-181850000D01*
X123540000Y-181850000D01*
X123840000Y-181850000D01*
X123843000Y-181850000D01*
X123845000Y-181850000D01*
X123848000Y-181851000D01*
G37*
X124359000Y-182401000D02*
X124362000Y-182401000D01*
X124364000Y-182402000D01*
X124366000Y-182403000D01*
X124368000Y-182404000D01*
X124371000Y-182405000D01*
X124373000Y-182406000D01*
X124375000Y-182407000D01*
X124377000Y-182408000D01*
X124378000Y-182410000D01*
X124380000Y-182411000D01*
X124382000Y-182413000D01*
X124384000Y-182415000D01*
X124385000Y-182417000D01*
X124387000Y-182418000D01*
X124388000Y-182420000D01*
X124389000Y-182422000D01*
X124390000Y-182424000D01*
X124391000Y-182427000D01*
X124392000Y-182429000D01*
X124393000Y-182431000D01*
X124394000Y-182433000D01*
X124394000Y-182436000D01*
X124395000Y-182438000D01*
X124395000Y-182440000D01*
X124395000Y-182443000D01*
X124395000Y-182445000D01*
X124395000Y-182447000D01*
X124395000Y-182450000D01*
X124395000Y-183100000D01*
X124395000Y-183103000D01*
X124395000Y-183105000D01*
X124395000Y-183107000D01*
X124395000Y-183110000D01*
X124395000Y-183112000D01*
X124394000Y-183114000D01*
X124394000Y-183117000D01*
X124393000Y-183119000D01*
X124392000Y-183121000D01*
X124391000Y-183123000D01*
X124390000Y-183126000D01*
X124389000Y-183128000D01*
X124388000Y-183130000D01*
X124387000Y-183132000D01*
X124385000Y-183133000D01*
X124384000Y-183135000D01*
X124382000Y-183137000D01*
X124380000Y-183139000D01*
X124378000Y-183140000D01*
X124377000Y-183142000D01*
X124375000Y-183143000D01*
X124373000Y-183144000D01*
X124371000Y-183145000D01*
X124368000Y-183146000D01*
X124366000Y-183147000D01*
X124364000Y-183148000D01*
X124362000Y-183149000D01*
X124359000Y-183149000D01*
X124357000Y-183150000D01*
X124355000Y-183150000D01*
X124195000Y-183150000D01*
X124192000Y-183150000D01*
X124190000Y-183150000D01*
X124187000Y-183149000D01*
X124185000Y-183149000D01*
X124182000Y-183148000D01*
X124180000Y-183148000D01*
X124177000Y-183147000D01*
X124175000Y-183146000D01*
X124172000Y-183145000D01*
X124170000Y-183143000D01*
X124168000Y-183142000D01*
X124166000Y-183140000D01*
X124164000Y-183139000D01*
X124162000Y-183137000D01*
X124160000Y-183135000D01*
X124158000Y-183133000D01*
X124156000Y-183131000D01*
X124155000Y-183129000D01*
X124153000Y-183127000D01*
X124152000Y-183125000D01*
X124150000Y-183123000D01*
X124149000Y-183120000D01*
X124148000Y-183118000D01*
X124147000Y-183115000D01*
X124147000Y-183113000D01*
X124146000Y-183110000D01*
X124146000Y-183108000D01*
X124145000Y-183105000D01*
X124145000Y-183103000D01*
X124145000Y-183100000D01*
X124145000Y-182450000D01*
X124145000Y-182447000D01*
X124145000Y-182445000D01*
X124146000Y-182442000D01*
X124146000Y-182440000D01*
X124147000Y-182437000D01*
X124147000Y-182435000D01*
X124148000Y-182432000D01*
X124149000Y-182430000D01*
X124150000Y-182427000D01*
X124152000Y-182425000D01*
X124153000Y-182423000D01*
X124155000Y-182421000D01*
X124156000Y-182419000D01*
X124158000Y-182417000D01*
X124160000Y-182415000D01*
X124162000Y-182413000D01*
X124164000Y-182411000D01*
X124166000Y-182410000D01*
X124168000Y-182408000D01*
X124170000Y-182407000D01*
X124172000Y-182405000D01*
X124175000Y-182404000D01*
X124177000Y-182403000D01*
X124180000Y-182402000D01*
X124182000Y-182402000D01*
X124185000Y-182401000D01*
X124187000Y-182401000D01*
X124190000Y-182400000D01*
X124192000Y-182400000D01*
X124195000Y-182400000D01*
X124355000Y-182400000D01*
X124357000Y-182400000D01*
X124359000Y-182401000D01*
G36*
X124359000Y-182401000D02*
G01*
X124362000Y-182401000D01*
X124364000Y-182402000D01*
X124366000Y-182403000D01*
X124368000Y-182404000D01*
X124371000Y-182405000D01*
X124373000Y-182406000D01*
X124375000Y-182407000D01*
X124377000Y-182408000D01*
X124378000Y-182410000D01*
X124380000Y-182411000D01*
X124382000Y-182413000D01*
X124384000Y-182415000D01*
X124385000Y-182417000D01*
X124387000Y-182418000D01*
X124388000Y-182420000D01*
X124389000Y-182422000D01*
X124390000Y-182424000D01*
X124391000Y-182427000D01*
X124392000Y-182429000D01*
X124393000Y-182431000D01*
X124394000Y-182433000D01*
X124394000Y-182436000D01*
X124395000Y-182438000D01*
X124395000Y-182440000D01*
X124395000Y-182443000D01*
X124395000Y-182445000D01*
X124395000Y-182447000D01*
X124395000Y-182450000D01*
X124395000Y-183100000D01*
X124395000Y-183103000D01*
X124395000Y-183105000D01*
X124395000Y-183107000D01*
X124395000Y-183110000D01*
X124395000Y-183112000D01*
X124394000Y-183114000D01*
X124394000Y-183117000D01*
X124393000Y-183119000D01*
X124392000Y-183121000D01*
X124391000Y-183123000D01*
X124390000Y-183126000D01*
X124389000Y-183128000D01*
X124388000Y-183130000D01*
X124387000Y-183132000D01*
X124385000Y-183133000D01*
X124384000Y-183135000D01*
X124382000Y-183137000D01*
X124380000Y-183139000D01*
X124378000Y-183140000D01*
X124377000Y-183142000D01*
X124375000Y-183143000D01*
X124373000Y-183144000D01*
X124371000Y-183145000D01*
X124368000Y-183146000D01*
X124366000Y-183147000D01*
X124364000Y-183148000D01*
X124362000Y-183149000D01*
X124359000Y-183149000D01*
X124357000Y-183150000D01*
X124355000Y-183150000D01*
X124195000Y-183150000D01*
X124192000Y-183150000D01*
X124190000Y-183150000D01*
X124187000Y-183149000D01*
X124185000Y-183149000D01*
X124182000Y-183148000D01*
X124180000Y-183148000D01*
X124177000Y-183147000D01*
X124175000Y-183146000D01*
X124172000Y-183145000D01*
X124170000Y-183143000D01*
X124168000Y-183142000D01*
X124166000Y-183140000D01*
X124164000Y-183139000D01*
X124162000Y-183137000D01*
X124160000Y-183135000D01*
X124158000Y-183133000D01*
X124156000Y-183131000D01*
X124155000Y-183129000D01*
X124153000Y-183127000D01*
X124152000Y-183125000D01*
X124150000Y-183123000D01*
X124149000Y-183120000D01*
X124148000Y-183118000D01*
X124147000Y-183115000D01*
X124147000Y-183113000D01*
X124146000Y-183110000D01*
X124146000Y-183108000D01*
X124145000Y-183105000D01*
X124145000Y-183103000D01*
X124145000Y-183100000D01*
X124145000Y-182450000D01*
X124145000Y-182447000D01*
X124145000Y-182445000D01*
X124146000Y-182442000D01*
X124146000Y-182440000D01*
X124147000Y-182437000D01*
X124147000Y-182435000D01*
X124148000Y-182432000D01*
X124149000Y-182430000D01*
X124150000Y-182427000D01*
X124152000Y-182425000D01*
X124153000Y-182423000D01*
X124155000Y-182421000D01*
X124156000Y-182419000D01*
X124158000Y-182417000D01*
X124160000Y-182415000D01*
X124162000Y-182413000D01*
X124164000Y-182411000D01*
X124166000Y-182410000D01*
X124168000Y-182408000D01*
X124170000Y-182407000D01*
X124172000Y-182405000D01*
X124175000Y-182404000D01*
X124177000Y-182403000D01*
X124180000Y-182402000D01*
X124182000Y-182402000D01*
X124185000Y-182401000D01*
X124187000Y-182401000D01*
X124190000Y-182400000D01*
X124192000Y-182400000D01*
X124195000Y-182400000D01*
X124355000Y-182400000D01*
X124357000Y-182400000D01*
X124359000Y-182401000D01*
G37*
X124359000Y-183351000D02*
X124362000Y-183351000D01*
X124364000Y-183352000D01*
X124366000Y-183353000D01*
X124368000Y-183354000D01*
X124371000Y-183355000D01*
X124373000Y-183356000D01*
X124375000Y-183357000D01*
X124377000Y-183358000D01*
X124378000Y-183360000D01*
X124380000Y-183361000D01*
X124382000Y-183363000D01*
X124384000Y-183365000D01*
X124385000Y-183367000D01*
X124387000Y-183368000D01*
X124388000Y-183370000D01*
X124389000Y-183372000D01*
X124390000Y-183374000D01*
X124391000Y-183377000D01*
X124392000Y-183379000D01*
X124393000Y-183381000D01*
X124394000Y-183383000D01*
X124394000Y-183386000D01*
X124395000Y-183388000D01*
X124395000Y-183390000D01*
X124395000Y-183393000D01*
X124395000Y-183395000D01*
X124395000Y-183397000D01*
X124395000Y-183400000D01*
X124395000Y-184050000D01*
X124395000Y-184053000D01*
X124395000Y-184055000D01*
X124395000Y-184057000D01*
X124395000Y-184060000D01*
X124395000Y-184062000D01*
X124394000Y-184064000D01*
X124394000Y-184067000D01*
X124393000Y-184069000D01*
X124392000Y-184071000D01*
X124391000Y-184073000D01*
X124390000Y-184076000D01*
X124389000Y-184078000D01*
X124388000Y-184080000D01*
X124387000Y-184082000D01*
X124385000Y-184083000D01*
X124384000Y-184085000D01*
X124382000Y-184087000D01*
X124380000Y-184089000D01*
X124378000Y-184090000D01*
X124377000Y-184092000D01*
X124375000Y-184093000D01*
X124373000Y-184094000D01*
X124371000Y-184095000D01*
X124368000Y-184096000D01*
X124366000Y-184097000D01*
X124364000Y-184098000D01*
X124362000Y-184099000D01*
X124359000Y-184099000D01*
X124357000Y-184100000D01*
X124355000Y-184100000D01*
X124195000Y-184100000D01*
X124192000Y-184100000D01*
X124190000Y-184100000D01*
X124187000Y-184099000D01*
X124185000Y-184099000D01*
X124182000Y-184098000D01*
X124180000Y-184098000D01*
X124177000Y-184097000D01*
X124175000Y-184096000D01*
X124172000Y-184095000D01*
X124170000Y-184093000D01*
X124168000Y-184092000D01*
X124166000Y-184090000D01*
X124164000Y-184089000D01*
X124162000Y-184087000D01*
X124160000Y-184085000D01*
X124158000Y-184083000D01*
X124156000Y-184081000D01*
X124155000Y-184079000D01*
X124153000Y-184077000D01*
X124152000Y-184075000D01*
X124150000Y-184073000D01*
X124149000Y-184070000D01*
X124148000Y-184068000D01*
X124147000Y-184065000D01*
X124147000Y-184063000D01*
X124146000Y-184060000D01*
X124146000Y-184058000D01*
X124145000Y-184055000D01*
X124145000Y-184053000D01*
X124145000Y-184050000D01*
X124145000Y-183400000D01*
X124145000Y-183397000D01*
X124145000Y-183395000D01*
X124146000Y-183392000D01*
X124146000Y-183390000D01*
X124147000Y-183387000D01*
X124147000Y-183385000D01*
X124148000Y-183382000D01*
X124149000Y-183380000D01*
X124150000Y-183377000D01*
X124152000Y-183375000D01*
X124153000Y-183373000D01*
X124155000Y-183371000D01*
X124156000Y-183369000D01*
X124158000Y-183367000D01*
X124160000Y-183365000D01*
X124162000Y-183363000D01*
X124164000Y-183361000D01*
X124166000Y-183360000D01*
X124168000Y-183358000D01*
X124170000Y-183357000D01*
X124172000Y-183355000D01*
X124175000Y-183354000D01*
X124177000Y-183353000D01*
X124180000Y-183352000D01*
X124182000Y-183352000D01*
X124185000Y-183351000D01*
X124187000Y-183351000D01*
X124190000Y-183350000D01*
X124192000Y-183350000D01*
X124195000Y-183350000D01*
X124355000Y-183350000D01*
X124357000Y-183350000D01*
X124359000Y-183351000D01*
G36*
X124359000Y-183351000D02*
G01*
X124362000Y-183351000D01*
X124364000Y-183352000D01*
X124366000Y-183353000D01*
X124368000Y-183354000D01*
X124371000Y-183355000D01*
X124373000Y-183356000D01*
X124375000Y-183357000D01*
X124377000Y-183358000D01*
X124378000Y-183360000D01*
X124380000Y-183361000D01*
X124382000Y-183363000D01*
X124384000Y-183365000D01*
X124385000Y-183367000D01*
X124387000Y-183368000D01*
X124388000Y-183370000D01*
X124389000Y-183372000D01*
X124390000Y-183374000D01*
X124391000Y-183377000D01*
X124392000Y-183379000D01*
X124393000Y-183381000D01*
X124394000Y-183383000D01*
X124394000Y-183386000D01*
X124395000Y-183388000D01*
X124395000Y-183390000D01*
X124395000Y-183393000D01*
X124395000Y-183395000D01*
X124395000Y-183397000D01*
X124395000Y-183400000D01*
X124395000Y-184050000D01*
X124395000Y-184053000D01*
X124395000Y-184055000D01*
X124395000Y-184057000D01*
X124395000Y-184060000D01*
X124395000Y-184062000D01*
X124394000Y-184064000D01*
X124394000Y-184067000D01*
X124393000Y-184069000D01*
X124392000Y-184071000D01*
X124391000Y-184073000D01*
X124390000Y-184076000D01*
X124389000Y-184078000D01*
X124388000Y-184080000D01*
X124387000Y-184082000D01*
X124385000Y-184083000D01*
X124384000Y-184085000D01*
X124382000Y-184087000D01*
X124380000Y-184089000D01*
X124378000Y-184090000D01*
X124377000Y-184092000D01*
X124375000Y-184093000D01*
X124373000Y-184094000D01*
X124371000Y-184095000D01*
X124368000Y-184096000D01*
X124366000Y-184097000D01*
X124364000Y-184098000D01*
X124362000Y-184099000D01*
X124359000Y-184099000D01*
X124357000Y-184100000D01*
X124355000Y-184100000D01*
X124195000Y-184100000D01*
X124192000Y-184100000D01*
X124190000Y-184100000D01*
X124187000Y-184099000D01*
X124185000Y-184099000D01*
X124182000Y-184098000D01*
X124180000Y-184098000D01*
X124177000Y-184097000D01*
X124175000Y-184096000D01*
X124172000Y-184095000D01*
X124170000Y-184093000D01*
X124168000Y-184092000D01*
X124166000Y-184090000D01*
X124164000Y-184089000D01*
X124162000Y-184087000D01*
X124160000Y-184085000D01*
X124158000Y-184083000D01*
X124156000Y-184081000D01*
X124155000Y-184079000D01*
X124153000Y-184077000D01*
X124152000Y-184075000D01*
X124150000Y-184073000D01*
X124149000Y-184070000D01*
X124148000Y-184068000D01*
X124147000Y-184065000D01*
X124147000Y-184063000D01*
X124146000Y-184060000D01*
X124146000Y-184058000D01*
X124145000Y-184055000D01*
X124145000Y-184053000D01*
X124145000Y-184050000D01*
X124145000Y-183400000D01*
X124145000Y-183397000D01*
X124145000Y-183395000D01*
X124146000Y-183392000D01*
X124146000Y-183390000D01*
X124147000Y-183387000D01*
X124147000Y-183385000D01*
X124148000Y-183382000D01*
X124149000Y-183380000D01*
X124150000Y-183377000D01*
X124152000Y-183375000D01*
X124153000Y-183373000D01*
X124155000Y-183371000D01*
X124156000Y-183369000D01*
X124158000Y-183367000D01*
X124160000Y-183365000D01*
X124162000Y-183363000D01*
X124164000Y-183361000D01*
X124166000Y-183360000D01*
X124168000Y-183358000D01*
X124170000Y-183357000D01*
X124172000Y-183355000D01*
X124175000Y-183354000D01*
X124177000Y-183353000D01*
X124180000Y-183352000D01*
X124182000Y-183352000D01*
X124185000Y-183351000D01*
X124187000Y-183351000D01*
X124190000Y-183350000D01*
X124192000Y-183350000D01*
X124195000Y-183350000D01*
X124355000Y-183350000D01*
X124357000Y-183350000D01*
X124359000Y-183351000D01*
G37*
X125008000Y-180701000D02*
X125010000Y-180701000D01*
X125013000Y-180702000D01*
X125015000Y-180702000D01*
X125018000Y-180703000D01*
X125020000Y-180704000D01*
X125023000Y-180705000D01*
X125025000Y-180707000D01*
X125027000Y-180708000D01*
X125029000Y-180710000D01*
X125031000Y-180711000D01*
X125033000Y-180713000D01*
X125035000Y-180715000D01*
X125037000Y-180717000D01*
X125039000Y-180719000D01*
X125040000Y-180721000D01*
X125042000Y-180723000D01*
X125043000Y-180725000D01*
X125045000Y-180727000D01*
X125046000Y-180730000D01*
X125047000Y-180732000D01*
X125048000Y-180735000D01*
X125048000Y-180737000D01*
X125049000Y-180740000D01*
X125049000Y-180742000D01*
X125050000Y-180745000D01*
X125050000Y-180747000D01*
X125050000Y-180750000D01*
X125050000Y-181525000D01*
X125560000Y-181525000D01*
X125563000Y-181525000D01*
X125565000Y-181525000D01*
X125568000Y-181526000D01*
X125570000Y-181526000D01*
X125573000Y-181527000D01*
X125575000Y-181527000D01*
X125578000Y-181528000D01*
X125580000Y-181529000D01*
X125583000Y-181530000D01*
X125585000Y-181532000D01*
X125587000Y-181533000D01*
X125589000Y-181535000D01*
X125591000Y-181536000D01*
X125593000Y-181538000D01*
X125595000Y-181540000D01*
X125597000Y-181542000D01*
X125599000Y-181544000D01*
X125600000Y-181546000D01*
X125602000Y-181548000D01*
X125603000Y-181550000D01*
X125605000Y-181552000D01*
X125606000Y-181555000D01*
X125607000Y-181557000D01*
X125608000Y-181560000D01*
X125608000Y-181562000D01*
X125609000Y-181565000D01*
X125609000Y-181567000D01*
X125610000Y-181570000D01*
X125610000Y-181572000D01*
X125610000Y-181575000D01*
X125610000Y-181725000D01*
X125610000Y-181728000D01*
X125610000Y-181730000D01*
X125609000Y-181733000D01*
X125609000Y-181735000D01*
X125608000Y-181738000D01*
X125608000Y-181740000D01*
X125607000Y-181743000D01*
X125606000Y-181745000D01*
X125605000Y-181748000D01*
X125603000Y-181750000D01*
X125602000Y-181752000D01*
X125600000Y-181754000D01*
X125599000Y-181756000D01*
X125597000Y-181758000D01*
X125595000Y-181760000D01*
X125593000Y-181762000D01*
X125591000Y-181764000D01*
X125589000Y-181765000D01*
X125587000Y-181767000D01*
X125585000Y-181768000D01*
X125583000Y-181770000D01*
X125580000Y-181771000D01*
X125578000Y-181772000D01*
X125575000Y-181773000D01*
X125573000Y-181773000D01*
X125570000Y-181774000D01*
X125568000Y-181774000D01*
X125565000Y-181775000D01*
X125563000Y-181775000D01*
X125560000Y-181775000D01*
X125050000Y-181775000D01*
X125050000Y-182025000D01*
X125560000Y-182025000D01*
X125563000Y-182025000D01*
X125565000Y-182025000D01*
X125568000Y-182026000D01*
X125570000Y-182026000D01*
X125573000Y-182027000D01*
X125575000Y-182027000D01*
X125578000Y-182028000D01*
X125580000Y-182029000D01*
X125583000Y-182030000D01*
X125585000Y-182032000D01*
X125587000Y-182033000D01*
X125589000Y-182035000D01*
X125591000Y-182036000D01*
X125593000Y-182038000D01*
X125595000Y-182040000D01*
X125597000Y-182042000D01*
X125599000Y-182044000D01*
X125600000Y-182046000D01*
X125602000Y-182048000D01*
X125603000Y-182050000D01*
X125605000Y-182052000D01*
X125606000Y-182055000D01*
X125607000Y-182057000D01*
X125608000Y-182060000D01*
X125608000Y-182062000D01*
X125609000Y-182065000D01*
X125609000Y-182067000D01*
X125610000Y-182070000D01*
X125610000Y-182072000D01*
X125610000Y-182075000D01*
X125610000Y-182225000D01*
X125610000Y-182228000D01*
X125610000Y-182230000D01*
X125609000Y-182233000D01*
X125609000Y-182235000D01*
X125608000Y-182238000D01*
X125608000Y-182240000D01*
X125607000Y-182243000D01*
X125606000Y-182245000D01*
X125605000Y-182248000D01*
X125603000Y-182250000D01*
X125602000Y-182252000D01*
X125600000Y-182254000D01*
X125599000Y-182256000D01*
X125597000Y-182258000D01*
X125595000Y-182260000D01*
X125593000Y-182262000D01*
X125591000Y-182264000D01*
X125589000Y-182265000D01*
X125587000Y-182267000D01*
X125585000Y-182268000D01*
X125583000Y-182270000D01*
X125580000Y-182271000D01*
X125578000Y-182272000D01*
X125575000Y-182273000D01*
X125573000Y-182273000D01*
X125570000Y-182274000D01*
X125568000Y-182274000D01*
X125565000Y-182275000D01*
X125563000Y-182275000D01*
X125560000Y-182275000D01*
X125050000Y-182275000D01*
X125050000Y-182525000D01*
X125560000Y-182525000D01*
X125563000Y-182526000D01*
X125566000Y-182527000D01*
X125569000Y-182528000D01*
X125572000Y-182529000D01*
X125575000Y-182530000D01*
X125578000Y-182532000D01*
X125581000Y-182533000D01*
X125584000Y-182535000D01*
X125587000Y-182537000D01*
X125589000Y-182539000D01*
X125592000Y-182542000D01*
X125594000Y-182544000D01*
X125596000Y-182547000D01*
X125598000Y-182549000D01*
X125600000Y-182552000D01*
X125602000Y-182555000D01*
X125604000Y-182558000D01*
X125605000Y-182561000D01*
X125607000Y-182564000D01*
X125608000Y-182567000D01*
X125609000Y-182570000D01*
X125610000Y-182573000D01*
X125610000Y-182576000D01*
X125611000Y-182580000D01*
X125611000Y-182583000D01*
X125611000Y-182586000D01*
X125611000Y-182590000D01*
X125611000Y-182593000D01*
X125611000Y-182596000D01*
X125610000Y-182600000D01*
X125610000Y-182700000D01*
X125611000Y-182704000D01*
X125611000Y-182707000D01*
X125611000Y-182710000D01*
X125611000Y-182714000D01*
X125611000Y-182717000D01*
X125611000Y-182720000D01*
X125610000Y-182724000D01*
X125610000Y-182727000D01*
X125609000Y-182730000D01*
X125608000Y-182733000D01*
X125607000Y-182736000D01*
X125605000Y-182739000D01*
X125604000Y-182742000D01*
X125602000Y-182745000D01*
X125600000Y-182748000D01*
X125598000Y-182751000D01*
X125596000Y-182753000D01*
X125594000Y-182756000D01*
X125592000Y-182758000D01*
X125589000Y-182761000D01*
X125587000Y-182763000D01*
X125584000Y-182765000D01*
X125581000Y-182767000D01*
X125578000Y-182768000D01*
X125575000Y-182770000D01*
X125572000Y-182771000D01*
X125569000Y-182772000D01*
X125566000Y-182773000D01*
X125563000Y-182774000D01*
X125560000Y-182775000D01*
X125050000Y-182775000D01*
X125050000Y-182800000D01*
X124700000Y-182800000D01*
X124697000Y-182800000D01*
X124695000Y-182800000D01*
X124692000Y-182799000D01*
X124690000Y-182799000D01*
X124687000Y-182798000D01*
X124685000Y-182798000D01*
X124682000Y-182797000D01*
X124680000Y-182796000D01*
X124677000Y-182795000D01*
X124675000Y-182793000D01*
X124673000Y-182792000D01*
X124671000Y-182790000D01*
X124669000Y-182789000D01*
X124667000Y-182787000D01*
X124665000Y-182785000D01*
X124663000Y-182783000D01*
X124661000Y-182781000D01*
X124660000Y-182779000D01*
X124658000Y-182777000D01*
X124657000Y-182775000D01*
X124655000Y-182773000D01*
X124654000Y-182770000D01*
X124653000Y-182768000D01*
X124652000Y-182765000D01*
X124652000Y-182763000D01*
X124651000Y-182760000D01*
X124651000Y-182758000D01*
X124650000Y-182755000D01*
X124650000Y-182753000D01*
X124650000Y-182750000D01*
X124650000Y-180750000D01*
X124650000Y-180747000D01*
X124650000Y-180745000D01*
X124651000Y-180742000D01*
X124651000Y-180740000D01*
X124652000Y-180737000D01*
X124652000Y-180735000D01*
X124653000Y-180732000D01*
X124654000Y-180730000D01*
X124655000Y-180727000D01*
X124657000Y-180725000D01*
X124658000Y-180723000D01*
X124660000Y-180721000D01*
X124661000Y-180719000D01*
X124663000Y-180717000D01*
X124665000Y-180715000D01*
X124667000Y-180713000D01*
X124669000Y-180711000D01*
X124671000Y-180710000D01*
X124673000Y-180708000D01*
X124675000Y-180707000D01*
X124677000Y-180705000D01*
X124680000Y-180704000D01*
X124682000Y-180703000D01*
X124685000Y-180702000D01*
X124687000Y-180702000D01*
X124690000Y-180701000D01*
X124692000Y-180701000D01*
X124695000Y-180700000D01*
X124697000Y-180700000D01*
X124700000Y-180700000D01*
X125000000Y-180700000D01*
X125003000Y-180700000D01*
X125005000Y-180700000D01*
X125008000Y-180701000D01*
G36*
X125008000Y-180701000D02*
G01*
X125010000Y-180701000D01*
X125013000Y-180702000D01*
X125015000Y-180702000D01*
X125018000Y-180703000D01*
X125020000Y-180704000D01*
X125023000Y-180705000D01*
X125025000Y-180707000D01*
X125027000Y-180708000D01*
X125029000Y-180710000D01*
X125031000Y-180711000D01*
X125033000Y-180713000D01*
X125035000Y-180715000D01*
X125037000Y-180717000D01*
X125039000Y-180719000D01*
X125040000Y-180721000D01*
X125042000Y-180723000D01*
X125043000Y-180725000D01*
X125045000Y-180727000D01*
X125046000Y-180730000D01*
X125047000Y-180732000D01*
X125048000Y-180735000D01*
X125048000Y-180737000D01*
X125049000Y-180740000D01*
X125049000Y-180742000D01*
X125050000Y-180745000D01*
X125050000Y-180747000D01*
X125050000Y-180750000D01*
X125050000Y-181525000D01*
X125560000Y-181525000D01*
X125563000Y-181525000D01*
X125565000Y-181525000D01*
X125568000Y-181526000D01*
X125570000Y-181526000D01*
X125573000Y-181527000D01*
X125575000Y-181527000D01*
X125578000Y-181528000D01*
X125580000Y-181529000D01*
X125583000Y-181530000D01*
X125585000Y-181532000D01*
X125587000Y-181533000D01*
X125589000Y-181535000D01*
X125591000Y-181536000D01*
X125593000Y-181538000D01*
X125595000Y-181540000D01*
X125597000Y-181542000D01*
X125599000Y-181544000D01*
X125600000Y-181546000D01*
X125602000Y-181548000D01*
X125603000Y-181550000D01*
X125605000Y-181552000D01*
X125606000Y-181555000D01*
X125607000Y-181557000D01*
X125608000Y-181560000D01*
X125608000Y-181562000D01*
X125609000Y-181565000D01*
X125609000Y-181567000D01*
X125610000Y-181570000D01*
X125610000Y-181572000D01*
X125610000Y-181575000D01*
X125610000Y-181725000D01*
X125610000Y-181728000D01*
X125610000Y-181730000D01*
X125609000Y-181733000D01*
X125609000Y-181735000D01*
X125608000Y-181738000D01*
X125608000Y-181740000D01*
X125607000Y-181743000D01*
X125606000Y-181745000D01*
X125605000Y-181748000D01*
X125603000Y-181750000D01*
X125602000Y-181752000D01*
X125600000Y-181754000D01*
X125599000Y-181756000D01*
X125597000Y-181758000D01*
X125595000Y-181760000D01*
X125593000Y-181762000D01*
X125591000Y-181764000D01*
X125589000Y-181765000D01*
X125587000Y-181767000D01*
X125585000Y-181768000D01*
X125583000Y-181770000D01*
X125580000Y-181771000D01*
X125578000Y-181772000D01*
X125575000Y-181773000D01*
X125573000Y-181773000D01*
X125570000Y-181774000D01*
X125568000Y-181774000D01*
X125565000Y-181775000D01*
X125563000Y-181775000D01*
X125560000Y-181775000D01*
X125050000Y-181775000D01*
X125050000Y-182025000D01*
X125560000Y-182025000D01*
X125563000Y-182025000D01*
X125565000Y-182025000D01*
X125568000Y-182026000D01*
X125570000Y-182026000D01*
X125573000Y-182027000D01*
X125575000Y-182027000D01*
X125578000Y-182028000D01*
X125580000Y-182029000D01*
X125583000Y-182030000D01*
X125585000Y-182032000D01*
X125587000Y-182033000D01*
X125589000Y-182035000D01*
X125591000Y-182036000D01*
X125593000Y-182038000D01*
X125595000Y-182040000D01*
X125597000Y-182042000D01*
X125599000Y-182044000D01*
X125600000Y-182046000D01*
X125602000Y-182048000D01*
X125603000Y-182050000D01*
X125605000Y-182052000D01*
X125606000Y-182055000D01*
X125607000Y-182057000D01*
X125608000Y-182060000D01*
X125608000Y-182062000D01*
X125609000Y-182065000D01*
X125609000Y-182067000D01*
X125610000Y-182070000D01*
X125610000Y-182072000D01*
X125610000Y-182075000D01*
X125610000Y-182225000D01*
X125610000Y-182228000D01*
X125610000Y-182230000D01*
X125609000Y-182233000D01*
X125609000Y-182235000D01*
X125608000Y-182238000D01*
X125608000Y-182240000D01*
X125607000Y-182243000D01*
X125606000Y-182245000D01*
X125605000Y-182248000D01*
X125603000Y-182250000D01*
X125602000Y-182252000D01*
X125600000Y-182254000D01*
X125599000Y-182256000D01*
X125597000Y-182258000D01*
X125595000Y-182260000D01*
X125593000Y-182262000D01*
X125591000Y-182264000D01*
X125589000Y-182265000D01*
X125587000Y-182267000D01*
X125585000Y-182268000D01*
X125583000Y-182270000D01*
X125580000Y-182271000D01*
X125578000Y-182272000D01*
X125575000Y-182273000D01*
X125573000Y-182273000D01*
X125570000Y-182274000D01*
X125568000Y-182274000D01*
X125565000Y-182275000D01*
X125563000Y-182275000D01*
X125560000Y-182275000D01*
X125050000Y-182275000D01*
X125050000Y-182525000D01*
X125560000Y-182525000D01*
X125563000Y-182526000D01*
X125566000Y-182527000D01*
X125569000Y-182528000D01*
X125572000Y-182529000D01*
X125575000Y-182530000D01*
X125578000Y-182532000D01*
X125581000Y-182533000D01*
X125584000Y-182535000D01*
X125587000Y-182537000D01*
X125589000Y-182539000D01*
X125592000Y-182542000D01*
X125594000Y-182544000D01*
X125596000Y-182547000D01*
X125598000Y-182549000D01*
X125600000Y-182552000D01*
X125602000Y-182555000D01*
X125604000Y-182558000D01*
X125605000Y-182561000D01*
X125607000Y-182564000D01*
X125608000Y-182567000D01*
X125609000Y-182570000D01*
X125610000Y-182573000D01*
X125610000Y-182576000D01*
X125611000Y-182580000D01*
X125611000Y-182583000D01*
X125611000Y-182586000D01*
X125611000Y-182590000D01*
X125611000Y-182593000D01*
X125611000Y-182596000D01*
X125610000Y-182600000D01*
X125610000Y-182700000D01*
X125611000Y-182704000D01*
X125611000Y-182707000D01*
X125611000Y-182710000D01*
X125611000Y-182714000D01*
X125611000Y-182717000D01*
X125611000Y-182720000D01*
X125610000Y-182724000D01*
X125610000Y-182727000D01*
X125609000Y-182730000D01*
X125608000Y-182733000D01*
X125607000Y-182736000D01*
X125605000Y-182739000D01*
X125604000Y-182742000D01*
X125602000Y-182745000D01*
X125600000Y-182748000D01*
X125598000Y-182751000D01*
X125596000Y-182753000D01*
X125594000Y-182756000D01*
X125592000Y-182758000D01*
X125589000Y-182761000D01*
X125587000Y-182763000D01*
X125584000Y-182765000D01*
X125581000Y-182767000D01*
X125578000Y-182768000D01*
X125575000Y-182770000D01*
X125572000Y-182771000D01*
X125569000Y-182772000D01*
X125566000Y-182773000D01*
X125563000Y-182774000D01*
X125560000Y-182775000D01*
X125050000Y-182775000D01*
X125050000Y-182800000D01*
X124700000Y-182800000D01*
X124697000Y-182800000D01*
X124695000Y-182800000D01*
X124692000Y-182799000D01*
X124690000Y-182799000D01*
X124687000Y-182798000D01*
X124685000Y-182798000D01*
X124682000Y-182797000D01*
X124680000Y-182796000D01*
X124677000Y-182795000D01*
X124675000Y-182793000D01*
X124673000Y-182792000D01*
X124671000Y-182790000D01*
X124669000Y-182789000D01*
X124667000Y-182787000D01*
X124665000Y-182785000D01*
X124663000Y-182783000D01*
X124661000Y-182781000D01*
X124660000Y-182779000D01*
X124658000Y-182777000D01*
X124657000Y-182775000D01*
X124655000Y-182773000D01*
X124654000Y-182770000D01*
X124653000Y-182768000D01*
X124652000Y-182765000D01*
X124652000Y-182763000D01*
X124651000Y-182760000D01*
X124651000Y-182758000D01*
X124650000Y-182755000D01*
X124650000Y-182753000D01*
X124650000Y-182750000D01*
X124650000Y-180750000D01*
X124650000Y-180747000D01*
X124650000Y-180745000D01*
X124651000Y-180742000D01*
X124651000Y-180740000D01*
X124652000Y-180737000D01*
X124652000Y-180735000D01*
X124653000Y-180732000D01*
X124654000Y-180730000D01*
X124655000Y-180727000D01*
X124657000Y-180725000D01*
X124658000Y-180723000D01*
X124660000Y-180721000D01*
X124661000Y-180719000D01*
X124663000Y-180717000D01*
X124665000Y-180715000D01*
X124667000Y-180713000D01*
X124669000Y-180711000D01*
X124671000Y-180710000D01*
X124673000Y-180708000D01*
X124675000Y-180707000D01*
X124677000Y-180705000D01*
X124680000Y-180704000D01*
X124682000Y-180703000D01*
X124685000Y-180702000D01*
X124687000Y-180702000D01*
X124690000Y-180701000D01*
X124692000Y-180701000D01*
X124695000Y-180700000D01*
X124697000Y-180700000D01*
X124700000Y-180700000D01*
X125000000Y-180700000D01*
X125003000Y-180700000D01*
X125005000Y-180700000D01*
X125008000Y-180701000D01*
G37*
%TD*%
D11*
%TO.C,R120*%
X139100000Y-166825000D03*
X139100000Y-165175000D03*
%TD*%
D12*
%TO.C,R53*%
X91021415Y-205500000D03*
X89371415Y-205500000D03*
%TD*%
D13*
%TO.C,L1*%
X125200000Y-197715000D03*
X125200000Y-186285000D03*
%TD*%
D11*
%TO.C,R48*%
X148696415Y-126425000D03*
X148696415Y-124775000D03*
%TD*%
D14*
%TO.C,D17*%
X93983915Y-159300000D03*
X92408915Y-159300000D03*
%TD*%
D15*
%TO.C,C30*%
X108196415Y-107300000D03*
X108196415Y-104350000D03*
%TD*%
D11*
%TO.C,R123*%
X147200000Y-156925000D03*
X147200000Y-155275000D03*
%TD*%
D16*
%TO.C,R57*%
X114096415Y-141425000D03*
X114096415Y-143075000D03*
%TD*%
D17*
%TO.C,R101*%
X72303465Y-182100000D03*
X73953465Y-182100000D03*
%TD*%
D15*
%TO.C,C26*%
X142596415Y-110975000D03*
X142596415Y-108025000D03*
%TD*%
D12*
%TO.C,R13*%
X91025000Y-113100000D03*
X89375000Y-113100000D03*
%TD*%
D18*
%TO.C,R75*%
X85749716Y-118400000D03*
X82824716Y-118400000D03*
%TD*%
D16*
%TO.C,R49*%
X150296415Y-124775000D03*
X150296415Y-126425000D03*
%TD*%
D19*
%TO.C,C54*%
X80087216Y-105800000D03*
X80087216Y-107350000D03*
%TD*%
D11*
%TO.C,R37*%
X129996415Y-121525000D03*
X129996415Y-119875000D03*
%TD*%
D20*
%TO.C,C75*%
X81628465Y-193400000D03*
X83178465Y-193400000D03*
%TD*%
D21*
%TO.C,U7*%
X136165000Y-159700000D03*
X137945000Y-159700000D03*
X139725000Y-159700000D03*
X141505000Y-159700000D03*
X143285000Y-159700000D03*
X136165000Y-158000000D03*
X137945000Y-158000000D03*
X139725000Y-158000000D03*
X141505000Y-158000000D03*
X143285000Y-158000000D03*
D22*
X135500000Y-161700000D03*
X136150000Y-161700000D03*
X136800000Y-161700000D03*
X137450000Y-161700000D03*
X138100000Y-161700000D03*
X138750000Y-161700000D03*
X139400000Y-161700000D03*
X140050000Y-161700000D03*
X140700000Y-161700000D03*
X141350000Y-161700000D03*
X142000000Y-161700000D03*
X142650000Y-161700000D03*
X143300000Y-161700000D03*
X143950000Y-161700000D03*
X143950000Y-156000000D03*
X143300000Y-156000000D03*
X142650000Y-156000000D03*
X142000000Y-156000000D03*
X141350000Y-156000000D03*
X140700000Y-156000000D03*
X140050000Y-156000000D03*
X139400000Y-156000000D03*
X138750000Y-156000000D03*
X138100000Y-156000000D03*
X137450000Y-156000000D03*
X136800000Y-156000000D03*
X136150000Y-156000000D03*
X135500000Y-156000000D03*
%TD*%
D17*
%TO.C,R70*%
X72287216Y-97000000D03*
X73937216Y-97000000D03*
%TD*%
D23*
%TO.C,Q30*%
X123250000Y-169400000D03*
X124950000Y-169400000D03*
X123250000Y-167700000D03*
X124950000Y-167700000D03*
D24*
X122195000Y-166295000D03*
X123465000Y-166295000D03*
X124735000Y-166295000D03*
X126005000Y-166295000D03*
D25*
X122195000Y-172100000D03*
X123465000Y-172100000D03*
X124735000Y-172100000D03*
X126005000Y-172100000D03*
%TD*%
D26*
%TO.C,C87*%
X109400000Y-173625000D03*
X109400000Y-176575000D03*
%TD*%
D16*
%TO.C,R55*%
X128496415Y-144525000D03*
X128496415Y-146175000D03*
%TD*%
D11*
%TO.C,R56*%
X129996415Y-146175000D03*
X129996415Y-144525000D03*
%TD*%
D15*
%TO.C,C31*%
X110496415Y-107300000D03*
X110496415Y-104350000D03*
%TD*%
D17*
%TO.C,R82*%
X91487216Y-93900000D03*
X93137216Y-93900000D03*
%TD*%
D27*
%TO.C,C71*%
X77653465Y-192100000D03*
X76103465Y-192100000D03*
%TD*%
D28*
%TO.C,C56*%
X84687216Y-107350000D03*
X84687216Y-105800000D03*
%TD*%
D15*
%TO.C,C47*%
X112796415Y-131950000D03*
X112796415Y-129000000D03*
%TD*%
D14*
%TO.C,D22*%
X93983915Y-205500000D03*
X92408915Y-205500000D03*
%TD*%
D11*
%TO.C,R63*%
X144696415Y-142675000D03*
X144696415Y-141025000D03*
%TD*%
D15*
%TO.C,C18*%
X115100000Y-82600000D03*
X115100000Y-79650000D03*
%TD*%
D19*
%TO.C,C109*%
X117200000Y-180625000D03*
X117200000Y-182175000D03*
%TD*%
%TO.C,C74*%
X80103465Y-193400000D03*
X80103465Y-194950000D03*
%TD*%
D28*
%TO.C,C83*%
X143600000Y-166775000D03*
X143600000Y-165225000D03*
%TD*%
D29*
%TO.C,C3*%
X124175000Y-203100000D03*
X121225000Y-203100000D03*
%TD*%
D20*
%TO.C,C36*%
X134821415Y-148350000D03*
X136371415Y-148350000D03*
%TD*%
D12*
%TO.C,R34*%
X91021415Y-161700000D03*
X89371415Y-161700000D03*
%TD*%
D17*
%TO.C,R86*%
X72303465Y-140800000D03*
X73953465Y-140800000D03*
%TD*%
D30*
%TO.C,Q21*%
X91282216Y-122730000D03*
X91282216Y-124630000D03*
X93157216Y-123680000D03*
%TD*%
D16*
%TO.C,R106*%
X81603465Y-194875000D03*
X81603465Y-196525000D03*
%TD*%
D20*
%TO.C,C21*%
X134821415Y-123700000D03*
X136371415Y-123700000D03*
%TD*%
D11*
%TO.C,R112*%
X92703465Y-186300000D03*
X92703465Y-184650000D03*
%TD*%
D16*
%TO.C,R66*%
X144696415Y-149425000D03*
X144696415Y-151075000D03*
%TD*%
D28*
%TO.C,C90*%
X139400000Y-152975000D03*
X139400000Y-151425000D03*
%TD*%
D31*
%TO.C,D3*%
X80903465Y-156850000D03*
X80903465Y-160150000D03*
%TD*%
D32*
%TO.C,R128*%
X119900000Y-173637500D03*
X119900000Y-176562500D03*
%TD*%
D33*
%TO.C,Q16*%
X90279716Y-86910000D03*
X90279716Y-87570000D03*
X90279716Y-88230000D03*
X90279716Y-88890000D03*
D34*
X92272216Y-87900000D03*
%TD*%
D27*
%TO.C,C24*%
X139771415Y-122400000D03*
X138221415Y-122400000D03*
%TD*%
D14*
%TO.C,D14*%
X93987500Y-117900000D03*
X92412500Y-117900000D03*
%TD*%
D20*
%TO.C,C110*%
X114125000Y-182100000D03*
X115675000Y-182100000D03*
%TD*%
D35*
%TO.C,D5*%
X123350000Y-117300000D03*
X126650000Y-117300000D03*
%TD*%
D19*
%TO.C,C64*%
X80103465Y-149600000D03*
X80103465Y-151150000D03*
%TD*%
D36*
%TO.C,D26*%
X96918465Y-177160000D03*
X98608465Y-177160000D03*
X100268465Y-177160000D03*
X96918465Y-175460000D03*
X98608465Y-175460000D03*
X100268465Y-175460000D03*
X96918465Y-173760000D03*
X98608465Y-173760000D03*
X100268465Y-173760000D03*
D37*
X94803465Y-176500000D03*
X94803465Y-174420000D03*
%TD*%
D19*
%TO.C,C62*%
X76103465Y-139800000D03*
X76103465Y-141350000D03*
%TD*%
D38*
%TO.C,Q10*%
X140590000Y-81165000D03*
X139930000Y-81165000D03*
X139270000Y-81165000D03*
X138610000Y-81165000D03*
D39*
X139600000Y-83157500D03*
%TD*%
D26*
%TO.C,C99*%
X137400000Y-173625000D03*
X137400000Y-176575000D03*
%TD*%
D28*
%TO.C,C76*%
X84703465Y-194950000D03*
X84703465Y-193400000D03*
%TD*%
D11*
%TO.C,R40*%
X116096415Y-118425000D03*
X116096415Y-116775000D03*
%TD*%
D27*
%TO.C,C5*%
X131575000Y-92200000D03*
X130025000Y-92200000D03*
%TD*%
D40*
%TO.C,D7*%
X152200000Y-165150000D03*
X152200000Y-161850000D03*
%TD*%
D11*
%TO.C,R76*%
X83187216Y-108925000D03*
X83187216Y-107275000D03*
%TD*%
D20*
%TO.C,C111*%
X113400000Y-183600000D03*
X114950000Y-183600000D03*
%TD*%
D15*
%TO.C,C12*%
X144900000Y-86275000D03*
X144900000Y-83325000D03*
%TD*%
D12*
%TO.C,R84*%
X96507216Y-78930000D03*
X94857216Y-78930000D03*
%TD*%
D41*
%TO.C,L5*%
X134311415Y-134150000D03*
X122881415Y-134150000D03*
%TD*%
D26*
%TO.C,C86*%
X111700000Y-173625000D03*
X111700000Y-176575000D03*
%TD*%
D19*
%TO.C,C103*%
X131900000Y-180625000D03*
X131900000Y-182175000D03*
%TD*%
D42*
%TO.C,D23*%
X139971415Y-142300000D03*
X139971415Y-140400000D03*
X137696415Y-141350000D03*
%TD*%
D17*
%TO.C,R88*%
X72303465Y-145800000D03*
X73953465Y-145800000D03*
%TD*%
%TO.C,R105*%
X72278465Y-192100000D03*
X73928465Y-192100000D03*
%TD*%
D12*
%TO.C,R79*%
X94212216Y-102600000D03*
X92562216Y-102600000D03*
%TD*%
D15*
%TO.C,C11*%
X142600000Y-86275000D03*
X142600000Y-83325000D03*
%TD*%
D43*
%TO.C,U5*%
X85003465Y-141200000D03*
X85003465Y-141849999D03*
X85003465Y-142499997D03*
X85003465Y-143149998D03*
X85003465Y-143799997D03*
X85003465Y-144449998D03*
X85003465Y-145099997D03*
X85003465Y-145749998D03*
X85003465Y-146399997D03*
X85003465Y-147049998D03*
X85003465Y-147699997D03*
X85003465Y-148349998D03*
X90858165Y-148349998D03*
X90858165Y-147699999D03*
X90858165Y-147049998D03*
X90858165Y-146400000D03*
X90858165Y-145749998D03*
X90858165Y-145100000D03*
X90858165Y-144450001D03*
X90858165Y-143800000D03*
X90858165Y-143150001D03*
X90858165Y-142500000D03*
X90858165Y-141850001D03*
X90858165Y-141200000D03*
%TD*%
D38*
%TO.C,Q14*%
X140586415Y-130515000D03*
X139926415Y-130515000D03*
X139266415Y-130515000D03*
X138606415Y-130515000D03*
D39*
X139596415Y-132507500D03*
%TD*%
D20*
%TO.C,C73*%
X76103465Y-189600000D03*
X77653465Y-189600000D03*
%TD*%
D16*
%TO.C,R41*%
X148696415Y-116375000D03*
X148696415Y-118025000D03*
%TD*%
D15*
%TO.C,C16*%
X110500000Y-82600000D03*
X110500000Y-79650000D03*
%TD*%
D11*
%TO.C,R92*%
X83203465Y-152725000D03*
X83203465Y-151075000D03*
%TD*%
D30*
%TO.C,Q17*%
X91282216Y-78930000D03*
X91282216Y-80830000D03*
X93157216Y-79880000D03*
%TD*%
D16*
%TO.C,R19*%
X114100000Y-92075000D03*
X114100000Y-93725000D03*
%TD*%
D42*
%TO.C,D15*%
X139975000Y-92950000D03*
X139975000Y-91050000D03*
X137700000Y-92000000D03*
%TD*%
D38*
%TO.C,Q13*%
X140586415Y-134915000D03*
X139926415Y-134915000D03*
X139266415Y-134915000D03*
X138606415Y-134915000D03*
D39*
X139596415Y-136907500D03*
%TD*%
D28*
%TO.C,C40*%
X139796415Y-145450000D03*
X139796415Y-143900000D03*
%TD*%
D17*
%TO.C,R72*%
X72287216Y-102000000D03*
X73937216Y-102000000D03*
%TD*%
D44*
%TO.C,U3*%
X133176415Y-143830000D03*
X133176415Y-144650000D03*
X133176415Y-145470000D03*
X133996415Y-143830000D03*
X133996415Y-144650000D03*
X133996415Y-145470000D03*
X134816415Y-143830000D03*
X134816415Y-144650000D03*
X134816415Y-145470000D03*
D45*
X132008915Y-143400000D03*
X132008915Y-143900000D03*
X132008915Y-144400000D03*
X132008915Y-144900000D03*
X132008915Y-145400000D03*
X132008915Y-145900000D03*
D46*
X132746415Y-146637500D03*
X133246415Y-146637500D03*
X133746415Y-146637500D03*
X134246415Y-146637500D03*
X134746415Y-146637500D03*
X135246415Y-146637500D03*
D45*
X135983915Y-145900000D03*
X135983915Y-145400000D03*
X135983915Y-144900000D03*
X135983915Y-144400000D03*
X135983915Y-143900000D03*
X135983915Y-143400000D03*
D46*
X135246415Y-142662500D03*
X134746415Y-142662500D03*
X134246415Y-142662500D03*
X133746415Y-142662500D03*
X133246415Y-142662500D03*
X132746415Y-142662500D03*
%TD*%
D20*
%TO.C,C118*%
X132925000Y-201700000D03*
X134475000Y-201700000D03*
%TD*%
D11*
%TO.C,R124*%
X137200000Y-165025000D03*
X137200000Y-163375000D03*
%TD*%
D16*
%TO.C,R20*%
X110100000Y-92075000D03*
X110100000Y-93725000D03*
%TD*%
D17*
%TO.C,R93*%
X92678465Y-144700000D03*
X94328465Y-144700000D03*
%TD*%
D27*
%TO.C,C77*%
X83203465Y-184500000D03*
X81653465Y-184500000D03*
%TD*%
%TO.C,C7*%
X131665000Y-98300000D03*
X130115000Y-98300000D03*
%TD*%
%TO.C,C85*%
X144400000Y-153800000D03*
X142850000Y-153800000D03*
%TD*%
D31*
%TO.C,D4*%
X80903465Y-200650000D03*
X80903465Y-203950000D03*
%TD*%
D11*
%TO.C,R18*%
X130000000Y-96825000D03*
X130000000Y-95175000D03*
%TD*%
D17*
%TO.C,R78*%
X81537216Y-98400000D03*
X83187216Y-98400000D03*
%TD*%
%TO.C,R77*%
X92662216Y-100900000D03*
X94312216Y-100900000D03*
%TD*%
D12*
%TO.C,R95*%
X94228465Y-146400000D03*
X92578465Y-146400000D03*
%TD*%
D11*
%TO.C,R25*%
X144700000Y-93325000D03*
X144700000Y-91675000D03*
%TD*%
D18*
%TO.C,R45*%
X120043915Y-109500000D03*
X117118915Y-109500000D03*
%TD*%
D16*
%TO.C,R60*%
X148696415Y-141025000D03*
X148696415Y-142675000D03*
%TD*%
%TO.C,R97*%
X88503465Y-132650000D03*
X88503465Y-134300000D03*
%TD*%
D17*
%TO.C,R104*%
X72303465Y-189600000D03*
X73953465Y-189600000D03*
%TD*%
D26*
%TO.C,C96*%
X130450000Y-173625000D03*
X130450000Y-176575000D03*
%TD*%
D16*
%TO.C,R62*%
X146296415Y-141025000D03*
X146296415Y-142675000D03*
%TD*%
D28*
%TO.C,C44*%
X136996415Y-139425000D03*
X136996415Y-137875000D03*
%TD*%
D19*
%TO.C,C43*%
X112096415Y-141475000D03*
X112096415Y-143025000D03*
%TD*%
D47*
%TO.C,U11*%
X109300000Y-181650000D03*
X109300000Y-182150000D03*
X109300000Y-182650000D03*
X109300000Y-183150000D03*
D48*
X109770000Y-183800000D03*
X111570000Y-183800000D03*
X109770000Y-181000000D03*
%TD*%
D16*
%TO.C,R30*%
X150300000Y-100075000D03*
X150300000Y-101725000D03*
%TD*%
D47*
%TO.C,U10*%
X122500000Y-181650000D03*
X122500000Y-182150000D03*
X122500000Y-182650000D03*
X122500000Y-183150000D03*
D48*
X122970000Y-183800000D03*
X124770000Y-183800000D03*
X122970000Y-181000000D03*
%TD*%
D16*
%TO.C,R39*%
X110096415Y-116775000D03*
X110096415Y-118425000D03*
%TD*%
%TO.C,R127*%
X145100000Y-165175000D03*
X145100000Y-166825000D03*
%TD*%
D27*
%TO.C,C22*%
X131661415Y-123000000D03*
X130111415Y-123000000D03*
%TD*%
D12*
%TO.C,R116*%
X96507216Y-166530000D03*
X94857216Y-166530000D03*
%TD*%
D18*
%TO.C,R91*%
X85765965Y-162200000D03*
X82840965Y-162200000D03*
%TD*%
D12*
%TO.C,R51*%
X91021415Y-200700000D03*
X89371415Y-200700000D03*
%TD*%
D19*
%TO.C,C88*%
X135700000Y-163425000D03*
X135700000Y-164975000D03*
%TD*%
D16*
%TO.C,R3*%
X79000000Y-155150000D03*
X79000000Y-156800000D03*
%TD*%
D20*
%TO.C,C23*%
X141621415Y-116700000D03*
X143171415Y-116700000D03*
%TD*%
D43*
%TO.C,U4*%
X84987216Y-97400000D03*
X84987216Y-98049999D03*
X84987216Y-98699997D03*
X84987216Y-99349998D03*
X84987216Y-99999997D03*
X84987216Y-100649998D03*
X84987216Y-101299997D03*
X84987216Y-101949998D03*
X84987216Y-102599997D03*
X84987216Y-103249998D03*
X84987216Y-103899997D03*
X84987216Y-104549998D03*
X90841916Y-104549998D03*
X90841916Y-103899999D03*
X90841916Y-103249998D03*
X90841916Y-102600000D03*
X90841916Y-101949998D03*
X90841916Y-101300000D03*
X90841916Y-100650001D03*
X90841916Y-100000000D03*
X90841916Y-99350001D03*
X90841916Y-98700000D03*
X90841916Y-98050001D03*
X90841916Y-97400000D03*
%TD*%
D29*
%TO.C,C19*%
X150071415Y-104050000D03*
X147121415Y-104050000D03*
%TD*%
D20*
%TO.C,C6*%
X134825000Y-99000000D03*
X136375000Y-99000000D03*
%TD*%
D49*
%TO.C,D29*%
X130750000Y-153400000D03*
X128250000Y-153400000D03*
%TD*%
D26*
%TO.C,C97*%
X132800000Y-173625000D03*
X132800000Y-176575000D03*
%TD*%
D50*
%TO.C,D27*%
X134250000Y-166700000D03*
X136750000Y-166700000D03*
%TD*%
D16*
%TO.C,R2*%
X79000000Y-111350000D03*
X79000000Y-113000000D03*
%TD*%
D27*
%TO.C,C37*%
X131661415Y-147650000D03*
X130111415Y-147650000D03*
%TD*%
D16*
%TO.C,R17*%
X128500000Y-95175000D03*
X128500000Y-96825000D03*
%TD*%
D15*
%TO.C,C41*%
X142596415Y-135625000D03*
X142596415Y-132675000D03*
%TD*%
D19*
%TO.C,C52*%
X76087216Y-96000000D03*
X76087216Y-97550000D03*
%TD*%
D13*
%TO.C,L2*%
X112000000Y-197715000D03*
X112000000Y-186285000D03*
%TD*%
D16*
%TO.C,R90*%
X81603465Y-151075000D03*
X81603465Y-152725000D03*
%TD*%
D43*
%TO.C,U6*%
X85003465Y-185000000D03*
X85003465Y-185649999D03*
X85003465Y-186299997D03*
X85003465Y-186949998D03*
X85003465Y-187599997D03*
X85003465Y-188249998D03*
X85003465Y-188899997D03*
X85003465Y-189549998D03*
X85003465Y-190199997D03*
X85003465Y-190849998D03*
X85003465Y-191499997D03*
X85003465Y-192149998D03*
X90858165Y-192149998D03*
X90858165Y-191499999D03*
X90858165Y-190849998D03*
X90858165Y-190200000D03*
X90858165Y-189549998D03*
X90858165Y-188900000D03*
X90858165Y-188250001D03*
X90858165Y-187600000D03*
X90858165Y-186950001D03*
X90858165Y-186300000D03*
X90858165Y-185650001D03*
X90858165Y-185000000D03*
%TD*%
D16*
%TO.C,R47*%
X144696415Y-124775000D03*
X144696415Y-126425000D03*
%TD*%
D51*
%TO.C,Q27*%
X110850000Y-169000000D03*
X109150000Y-169000000D03*
X110850000Y-170700000D03*
X109150000Y-170700000D03*
D52*
X111905000Y-172105000D03*
X110635000Y-172105000D03*
X109365000Y-172105000D03*
X108095000Y-172105000D03*
D53*
X111905000Y-166300000D03*
X110635000Y-166300000D03*
X109365000Y-166300000D03*
X108095000Y-166300000D03*
%TD*%
D54*
%TO.C,Q23*%
X92178465Y-180000000D03*
X92178465Y-178100000D03*
X90303465Y-179050000D03*
%TD*%
D18*
%TO.C,R26*%
X120047500Y-84800000D03*
X117122500Y-84800000D03*
%TD*%
D29*
%TO.C,C34*%
X150071415Y-128700000D03*
X147121415Y-128700000D03*
%TD*%
D19*
%TO.C,C108*%
X118700000Y-180625000D03*
X118700000Y-182175000D03*
%TD*%
D36*
%TO.C,D25*%
X96918465Y-133360000D03*
X98608465Y-133360000D03*
X100268465Y-133360000D03*
X96918465Y-131660000D03*
X98608465Y-131660000D03*
X100268465Y-131660000D03*
X96918465Y-129960000D03*
X98608465Y-129960000D03*
X100268465Y-129960000D03*
D37*
X94803465Y-132700000D03*
X94803465Y-130620000D03*
%TD*%
D55*
%TO.C,Q3*%
X78703465Y-162700000D03*
X78703465Y-161430000D03*
X78703465Y-160160000D03*
X78703465Y-158890000D03*
D56*
X75343465Y-160795000D03*
D57*
X73238465Y-162700000D03*
X73238465Y-161430000D03*
X73238465Y-160160000D03*
X73238465Y-158890000D03*
%TD*%
D11*
%TO.C,R29*%
X148700000Y-101725000D03*
X148700000Y-100075000D03*
%TD*%
%TO.C,R59*%
X116096415Y-143075000D03*
X116096415Y-141425000D03*
%TD*%
D17*
%TO.C,R9*%
X125050000Y-143850000D03*
X126700000Y-143850000D03*
%TD*%
D33*
%TO.C,Q22*%
X93149716Y-128220000D03*
X93149716Y-127560000D03*
X93149716Y-126900000D03*
X93149716Y-126240000D03*
D58*
X91157216Y-127230000D03*
%TD*%
D16*
%TO.C,R4*%
X79000000Y-198950000D03*
X79000000Y-200600000D03*
%TD*%
D17*
%TO.C,R103*%
X72303465Y-187100000D03*
X73953465Y-187100000D03*
%TD*%
D15*
%TO.C,C42*%
X144896415Y-135625000D03*
X144896415Y-132675000D03*
%TD*%
%TO.C,C33*%
X115096415Y-107300000D03*
X115096415Y-104350000D03*
%TD*%
D11*
%TO.C,R96*%
X92703465Y-142500000D03*
X92703465Y-140850000D03*
%TD*%
D20*
%TO.C,C55*%
X81612216Y-105800000D03*
X83162216Y-105800000D03*
%TD*%
D11*
%TO.C,R27*%
X146300000Y-101725000D03*
X146300000Y-100075000D03*
%TD*%
D14*
%TO.C,D13*%
X93987500Y-115500000D03*
X92412500Y-115500000D03*
%TD*%
D19*
%TO.C,C60*%
X76103465Y-142800000D03*
X76103465Y-144350000D03*
%TD*%
D54*
%TO.C,Q15*%
X92162216Y-92400000D03*
X92162216Y-90500000D03*
X90287216Y-91450000D03*
%TD*%
D28*
%TO.C,C91*%
X137900000Y-152975000D03*
X137900000Y-151425000D03*
%TD*%
D16*
%TO.C,R28*%
X144700000Y-100075000D03*
X144700000Y-101725000D03*
%TD*%
D51*
%TO.C,Q29*%
X130650000Y-169000000D03*
X128950000Y-169000000D03*
X130650000Y-170700000D03*
X128950000Y-170700000D03*
D52*
X131705000Y-172105000D03*
X130435000Y-172105000D03*
X129165000Y-172105000D03*
X127895000Y-172105000D03*
D53*
X131705000Y-166300000D03*
X130435000Y-166300000D03*
X129165000Y-166300000D03*
X127895000Y-166300000D03*
%TD*%
D27*
%TO.C,C100*%
X151575000Y-168200000D03*
X150025000Y-168200000D03*
%TD*%
D19*
%TO.C,C70*%
X76103465Y-186600000D03*
X76103465Y-188150000D03*
%TD*%
D27*
%TO.C,C9*%
X139775000Y-97700000D03*
X138225000Y-97700000D03*
%TD*%
D12*
%TO.C,R100*%
X96507216Y-122730000D03*
X94857216Y-122730000D03*
%TD*%
D33*
%TO.C,Q18*%
X93149716Y-84420000D03*
X93149716Y-83760000D03*
X93149716Y-83100000D03*
X93149716Y-82440000D03*
D58*
X91157216Y-83430000D03*
%TD*%
D19*
%TO.C,C50*%
X76087216Y-99000000D03*
X76087216Y-100550000D03*
%TD*%
D12*
%TO.C,R50*%
X153221415Y-128700000D03*
X151571415Y-128700000D03*
%TD*%
%TO.C,R5*%
X152725000Y-166700000D03*
X151075000Y-166700000D03*
%TD*%
D15*
%TO.C,C46*%
X110496415Y-131950000D03*
X110496415Y-129000000D03*
%TD*%
D41*
%TO.C,L3*%
X134315000Y-84800000D03*
X122885000Y-84800000D03*
%TD*%
D17*
%TO.C,R109*%
X92678465Y-188500000D03*
X94328465Y-188500000D03*
%TD*%
D11*
%TO.C,R42*%
X150296415Y-118025000D03*
X150296415Y-116375000D03*
%TD*%
%TO.C,R61*%
X150296415Y-142675000D03*
X150296415Y-141025000D03*
%TD*%
D15*
%TO.C,C32*%
X112796415Y-107300000D03*
X112796415Y-104350000D03*
%TD*%
D54*
%TO.C,Q19*%
X92178465Y-136200000D03*
X92178465Y-134300000D03*
X90303465Y-135250000D03*
%TD*%
D44*
%TO.C,U1*%
X133180000Y-94480000D03*
X133180000Y-95300000D03*
X133180000Y-96120000D03*
X134000000Y-94480000D03*
X134000000Y-95300000D03*
X134000000Y-96120000D03*
X134820000Y-94480000D03*
X134820000Y-95300000D03*
X134820000Y-96120000D03*
D45*
X132012500Y-94050000D03*
X132012500Y-94550000D03*
X132012500Y-95050000D03*
X132012500Y-95550000D03*
X132012500Y-96050000D03*
X132012500Y-96550000D03*
D46*
X132750000Y-97287500D03*
X133250000Y-97287500D03*
X133750000Y-97287500D03*
X134250000Y-97287500D03*
X134750000Y-97287500D03*
X135250000Y-97287500D03*
D45*
X135987500Y-96550000D03*
X135987500Y-96050000D03*
X135987500Y-95550000D03*
X135987500Y-95050000D03*
X135987500Y-94550000D03*
X135987500Y-94050000D03*
D46*
X135250000Y-93312500D03*
X134750000Y-93312500D03*
X134250000Y-93312500D03*
X133750000Y-93312500D03*
X133250000Y-93312500D03*
X132750000Y-93312500D03*
%TD*%
D17*
%TO.C,R69*%
X72287216Y-94500000D03*
X73937216Y-94500000D03*
%TD*%
D26*
%TO.C,C95*%
X128100000Y-173625000D03*
X128100000Y-176575000D03*
%TD*%
D11*
%TO.C,R67*%
X148696415Y-151075000D03*
X148696415Y-149425000D03*
%TD*%
D12*
%TO.C,R111*%
X94228465Y-190200000D03*
X92578465Y-190200000D03*
%TD*%
%TO.C,R31*%
X153221415Y-104050000D03*
X151571415Y-104050000D03*
%TD*%
D26*
%TO.C,C98*%
X135100000Y-173625000D03*
X135100000Y-176575000D03*
%TD*%
D35*
%TO.C,D6*%
X123350000Y-141950000D03*
X126650000Y-141950000D03*
%TD*%
D28*
%TO.C,C84*%
X142100000Y-166775000D03*
X142100000Y-165225000D03*
%TD*%
D12*
%TO.C,R15*%
X91025000Y-117900000D03*
X89375000Y-117900000D03*
%TD*%
D28*
%TO.C,C25*%
X139796415Y-120800000D03*
X139796415Y-119250000D03*
%TD*%
D33*
%TO.C,Q24*%
X90295965Y-174510000D03*
X90295965Y-175170000D03*
X90295965Y-175830000D03*
X90295965Y-176490000D03*
D34*
X92288465Y-175500000D03*
%TD*%
D15*
%TO.C,C48*%
X115096415Y-131950000D03*
X115096415Y-129000000D03*
%TD*%
D20*
%TO.C,C78*%
X88328465Y-183600000D03*
X89878465Y-183600000D03*
%TD*%
D28*
%TO.C,C29*%
X136996415Y-114775000D03*
X136996415Y-113225000D03*
%TD*%
D14*
%TO.C,D21*%
X93983915Y-203100000D03*
X92408915Y-203100000D03*
%TD*%
D31*
%TO.C,D2*%
X80887216Y-113050000D03*
X80887216Y-116350000D03*
%TD*%
D33*
%TO.C,Q26*%
X93149716Y-172020000D03*
X93149716Y-171360000D03*
X93149716Y-170700000D03*
X93149716Y-170040000D03*
D58*
X91157216Y-171030000D03*
%TD*%
D20*
%TO.C,C65*%
X81628465Y-149600000D03*
X83178465Y-149600000D03*
%TD*%
D11*
%TO.C,R65*%
X146296415Y-151075000D03*
X146296415Y-149425000D03*
%TD*%
D27*
%TO.C,C20*%
X131571415Y-116900000D03*
X130021415Y-116900000D03*
%TD*%
D19*
%TO.C,C69*%
X76103465Y-180600000D03*
X76103465Y-182150000D03*
%TD*%
D29*
%TO.C,C4*%
X150075000Y-79350000D03*
X147125000Y-79350000D03*
%TD*%
D20*
%TO.C,C105*%
X127325000Y-182100000D03*
X128875000Y-182100000D03*
%TD*%
D17*
%TO.C,R71*%
X72287216Y-99500000D03*
X73937216Y-99500000D03*
%TD*%
D15*
%TO.C,C15*%
X108200000Y-82600000D03*
X108200000Y-79650000D03*
%TD*%
D20*
%TO.C,C106*%
X126725000Y-183600000D03*
X128275000Y-183600000D03*
%TD*%
D19*
%TO.C,C49*%
X76087216Y-93000000D03*
X76087216Y-94550000D03*
%TD*%
D11*
%TO.C,R83*%
X94957216Y-82480000D03*
X94957216Y-80830000D03*
%TD*%
D20*
%TO.C,C93*%
X110025000Y-155100000D03*
X111575000Y-155100000D03*
%TD*%
D16*
%TO.C,R68*%
X150296415Y-149425000D03*
X150296415Y-151075000D03*
%TD*%
D36*
%TO.C,D24*%
X96902216Y-89560000D03*
X98592216Y-89560000D03*
X100252216Y-89560000D03*
X96902216Y-87860000D03*
X98592216Y-87860000D03*
X100252216Y-87860000D03*
X96902216Y-86160000D03*
X98592216Y-86160000D03*
X100252216Y-86160000D03*
D37*
X94787216Y-88900000D03*
X94787216Y-86820000D03*
%TD*%
D38*
%TO.C,Q12*%
X140586415Y-105865000D03*
X139926415Y-105865000D03*
X139266415Y-105865000D03*
X138606415Y-105865000D03*
D39*
X139596415Y-107857500D03*
%TD*%
D16*
%TO.C,R74*%
X81587216Y-107275000D03*
X81587216Y-108925000D03*
%TD*%
D28*
%TO.C,C10*%
X139800000Y-96100000D03*
X139800000Y-94550000D03*
%TD*%
D17*
%TO.C,R110*%
X81578465Y-186000000D03*
X83228465Y-186000000D03*
%TD*%
D16*
%TO.C,R22*%
X148700000Y-91675000D03*
X148700000Y-93325000D03*
%TD*%
%TO.C,R24*%
X146300000Y-91675000D03*
X146300000Y-93325000D03*
%TD*%
D18*
%TO.C,R64*%
X120043915Y-134150000D03*
X117118915Y-134150000D03*
%TD*%
D19*
%TO.C,C13*%
X112100000Y-92125000D03*
X112100000Y-93675000D03*
%TD*%
D27*
%TO.C,C35*%
X131571415Y-141550000D03*
X130021415Y-141550000D03*
%TD*%
D23*
%TO.C,Q28*%
X114850000Y-169400000D03*
X116550000Y-169400000D03*
X114850000Y-167700000D03*
X116550000Y-167700000D03*
D24*
X113795000Y-166295000D03*
X115065000Y-166295000D03*
X116335000Y-166295000D03*
X117605000Y-166295000D03*
D25*
X113795000Y-172100000D03*
X115065000Y-172100000D03*
X116335000Y-172100000D03*
X117605000Y-172100000D03*
%TD*%
D59*
%TO.C,D28*%
X111300000Y-151050000D03*
X111300000Y-153550000D03*
%TD*%
D12*
%TO.C,R32*%
X91021415Y-156900000D03*
X89371415Y-156900000D03*
%TD*%
D60*
%TO.C,U8*%
X146125000Y-169795000D03*
X146125000Y-171065000D03*
X146125000Y-172335000D03*
X146125000Y-173605000D03*
X151075000Y-173605000D03*
X151075000Y-172335000D03*
X151075000Y-171065000D03*
X151075000Y-169795000D03*
%TD*%
D27*
%TO.C,C39*%
X139771415Y-147050000D03*
X138221415Y-147050000D03*
%TD*%
D17*
%TO.C,R8*%
X125050000Y-119200000D03*
X126700000Y-119200000D03*
%TD*%
D16*
%TO.C,R58*%
X110096415Y-141425000D03*
X110096415Y-143075000D03*
%TD*%
D29*
%TO.C,C2*%
X108575000Y-200800000D03*
X105625000Y-200800000D03*
%TD*%
D16*
%TO.C,R38*%
X114096415Y-116775000D03*
X114096415Y-118425000D03*
%TD*%
D17*
%TO.C,R98*%
X91503465Y-137700000D03*
X93153465Y-137700000D03*
%TD*%
D14*
%TO.C,D18*%
X93983915Y-161700000D03*
X92408915Y-161700000D03*
%TD*%
D38*
%TO.C,Q9*%
X140590000Y-85565000D03*
X139930000Y-85565000D03*
X139270000Y-85565000D03*
X138610000Y-85565000D03*
D39*
X139600000Y-87557500D03*
%TD*%
D41*
%TO.C,L6*%
X125615000Y-159000000D03*
X114185000Y-159000000D03*
%TD*%
D11*
%TO.C,R126*%
X146600000Y-166825000D03*
X146600000Y-165175000D03*
%TD*%
D28*
%TO.C,C117*%
X132900000Y-204975000D03*
X132900000Y-203425000D03*
%TD*%
D27*
%TO.C,C94*%
X129775000Y-155100000D03*
X128225000Y-155100000D03*
%TD*%
D17*
%TO.C,R94*%
X81553465Y-142200000D03*
X83203465Y-142200000D03*
%TD*%
%TO.C,R73*%
X72262216Y-104500000D03*
X73912216Y-104500000D03*
%TD*%
D44*
%TO.C,U2*%
X133176415Y-119180000D03*
X133176415Y-120000000D03*
X133176415Y-120820000D03*
X133996415Y-119180000D03*
X133996415Y-120000000D03*
X133996415Y-120820000D03*
X134816415Y-119180000D03*
X134816415Y-120000000D03*
X134816415Y-120820000D03*
D45*
X132008915Y-118750000D03*
X132008915Y-119250000D03*
X132008915Y-119750000D03*
X132008915Y-120250000D03*
X132008915Y-120750000D03*
X132008915Y-121250000D03*
D46*
X132746415Y-121987500D03*
X133246415Y-121987500D03*
X133746415Y-121987500D03*
X134246415Y-121987500D03*
X134746415Y-121987500D03*
X135246415Y-121987500D03*
D45*
X135983915Y-121250000D03*
X135983915Y-120750000D03*
X135983915Y-120250000D03*
X135983915Y-119750000D03*
X135983915Y-119250000D03*
X135983915Y-118750000D03*
D46*
X135246415Y-118012500D03*
X134746415Y-118012500D03*
X134246415Y-118012500D03*
X133746415Y-118012500D03*
X133246415Y-118012500D03*
X132746415Y-118012500D03*
%TD*%
D11*
%TO.C,R44*%
X144696415Y-118025000D03*
X144696415Y-116375000D03*
%TD*%
D19*
%TO.C,C28*%
X112096415Y-116825000D03*
X112096415Y-118375000D03*
%TD*%
D29*
%TO.C,C1*%
X124175000Y-200800000D03*
X121225000Y-200800000D03*
%TD*%
D28*
%TO.C,C66*%
X84703465Y-151150000D03*
X84703465Y-149600000D03*
%TD*%
D17*
%TO.C,R89*%
X72278465Y-148300000D03*
X73928465Y-148300000D03*
%TD*%
D55*
%TO.C,Q2*%
X78687216Y-118900000D03*
X78687216Y-117630000D03*
X78687216Y-116360000D03*
X78687216Y-115090000D03*
D56*
X75327216Y-116995000D03*
D57*
X73222216Y-118900000D03*
X73222216Y-117630000D03*
X73222216Y-116360000D03*
X73222216Y-115090000D03*
%TD*%
D28*
%TO.C,C14*%
X137000000Y-90075000D03*
X137000000Y-88525000D03*
%TD*%
D41*
%TO.C,L4*%
X134311415Y-109500000D03*
X122881415Y-109500000D03*
%TD*%
D26*
%TO.C,C89*%
X107100000Y-173625000D03*
X107100000Y-176575000D03*
%TD*%
D61*
%TO.C,U16*%
X125749998Y-200025001D03*
X125749998Y-200675002D03*
X125749998Y-201325001D03*
X125749998Y-201975002D03*
X125749998Y-202625001D03*
X125749998Y-203275002D03*
X125749998Y-203925001D03*
X125749998Y-204575002D03*
X131449997Y-204575002D03*
X131449997Y-203925001D03*
X131449997Y-203275002D03*
X131449997Y-202625001D03*
X131449997Y-201975002D03*
X131449997Y-201325001D03*
X131449997Y-200675002D03*
X131449997Y-200025001D03*
%TD*%
D16*
%TO.C,R113*%
X88503465Y-176450000D03*
X88503465Y-178100000D03*
%TD*%
D19*
%TO.C,C104*%
X130400000Y-180625000D03*
X130400000Y-182175000D03*
%TD*%
%TO.C,C59*%
X76103465Y-136800000D03*
X76103465Y-138350000D03*
%TD*%
D20*
%TO.C,C63*%
X76103465Y-145800000D03*
X77653465Y-145800000D03*
%TD*%
D12*
%TO.C,R14*%
X91025000Y-115500000D03*
X89375000Y-115500000D03*
%TD*%
D26*
%TO.C,C92*%
X104800000Y-173625000D03*
X104800000Y-176575000D03*
%TD*%
D20*
%TO.C,C58*%
X88312216Y-96000000D03*
X89862216Y-96000000D03*
%TD*%
D14*
%TO.C,D20*%
X93983915Y-200700000D03*
X92408915Y-200700000D03*
%TD*%
D12*
%TO.C,R33*%
X91021415Y-159300000D03*
X89371415Y-159300000D03*
%TD*%
D14*
%TO.C,D12*%
X93987500Y-113100000D03*
X92412500Y-113100000D03*
%TD*%
D11*
%TO.C,R21*%
X116100000Y-93725000D03*
X116100000Y-92075000D03*
%TD*%
%TO.C,R46*%
X146296415Y-126425000D03*
X146296415Y-124775000D03*
%TD*%
D17*
%TO.C,R102*%
X72303465Y-184600000D03*
X73953465Y-184600000D03*
%TD*%
D11*
%TO.C,R80*%
X92687216Y-98700000D03*
X92687216Y-97050000D03*
%TD*%
D16*
%TO.C,R36*%
X128496415Y-119875000D03*
X128496415Y-121525000D03*
%TD*%
D30*
%TO.C,Q25*%
X91282216Y-166530000D03*
X91282216Y-168430000D03*
X93157216Y-167480000D03*
%TD*%
D11*
%TO.C,R23*%
X150300000Y-93325000D03*
X150300000Y-91675000D03*
%TD*%
D42*
%TO.C,D19*%
X139971415Y-117650000D03*
X139971415Y-115750000D03*
X137696415Y-116700000D03*
%TD*%
D17*
%TO.C,R85*%
X72303465Y-138300000D03*
X73953465Y-138300000D03*
%TD*%
D27*
%TO.C,C61*%
X77653465Y-148300000D03*
X76103465Y-148300000D03*
%TD*%
D33*
%TO.C,Q20*%
X90295965Y-130710000D03*
X90295965Y-131370000D03*
X90295965Y-132030000D03*
X90295965Y-132690000D03*
D34*
X92288465Y-131700000D03*
%TD*%
D20*
%TO.C,C53*%
X76087216Y-102000000D03*
X77637216Y-102000000D03*
%TD*%
D11*
%TO.C,R115*%
X94957216Y-170080000D03*
X94957216Y-168430000D03*
%TD*%
D27*
%TO.C,C67*%
X83203465Y-140700000D03*
X81653465Y-140700000D03*
%TD*%
D16*
%TO.C,R43*%
X146296415Y-116375000D03*
X146296415Y-118025000D03*
%TD*%
D20*
%TO.C,C68*%
X88328465Y-139800000D03*
X89878465Y-139800000D03*
%TD*%
D11*
%TO.C,R108*%
X83203465Y-196525000D03*
X83203465Y-194875000D03*
%TD*%
%TO.C,R125*%
X134200000Y-165025000D03*
X134200000Y-163375000D03*
%TD*%
D18*
%TO.C,R107*%
X85765965Y-206000000D03*
X82840965Y-206000000D03*
%TD*%
D17*
%TO.C,R114*%
X91503465Y-181500000D03*
X93153465Y-181500000D03*
%TD*%
D16*
%TO.C,R121*%
X140600000Y-165175000D03*
X140600000Y-166825000D03*
%TD*%
D12*
%TO.C,R12*%
X153225000Y-79350000D03*
X151575000Y-79350000D03*
%TD*%
D15*
%TO.C,C27*%
X144896415Y-110975000D03*
X144896415Y-108025000D03*
%TD*%
D27*
%TO.C,C51*%
X77637216Y-104500000D03*
X76087216Y-104500000D03*
%TD*%
D38*
%TO.C,Q11*%
X140586415Y-110265000D03*
X139926415Y-110265000D03*
X139266415Y-110265000D03*
X138606415Y-110265000D03*
D39*
X139596415Y-112257500D03*
%TD*%
D27*
%TO.C,C57*%
X83187216Y-96900000D03*
X81637216Y-96900000D03*
%TD*%
D55*
%TO.C,Q4*%
X78703465Y-206500000D03*
X78703465Y-205230000D03*
X78703465Y-203960000D03*
X78703465Y-202690000D03*
D56*
X75343465Y-204595000D03*
D57*
X73238465Y-206500000D03*
X73238465Y-205230000D03*
X73238465Y-203960000D03*
X73238465Y-202690000D03*
%TD*%
D19*
%TO.C,C72*%
X76103465Y-183600000D03*
X76103465Y-185150000D03*
%TD*%
D12*
%TO.C,R52*%
X91021415Y-203100000D03*
X89371415Y-203100000D03*
%TD*%
D17*
%TO.C,R87*%
X72303465Y-143300000D03*
X73953465Y-143300000D03*
%TD*%
D15*
%TO.C,C45*%
X108196415Y-131950000D03*
X108196415Y-129000000D03*
%TD*%
D14*
%TO.C,D16*%
X93983915Y-156900000D03*
X92408915Y-156900000D03*
%TD*%
D11*
%TO.C,R99*%
X94957216Y-126280000D03*
X94957216Y-124630000D03*
%TD*%
D20*
%TO.C,C8*%
X141625000Y-92000000D03*
X143175000Y-92000000D03*
%TD*%
D15*
%TO.C,C17*%
X112800000Y-82600000D03*
X112800000Y-79650000D03*
%TD*%
D20*
%TO.C,C38*%
X141621415Y-141350000D03*
X143171415Y-141350000D03*
%TD*%
D16*
%TO.C,R122*%
X145700000Y-155275000D03*
X145700000Y-156925000D03*
%TD*%
%TO.C,R81*%
X88487216Y-88850000D03*
X88487216Y-90500000D03*
%TD*%
M02*
