M48
; DRILL file {KiCad 9.0.5} date 2025-10-31T00:58:53-0400
; FORMAT={-:-/ absolute / inch / decimal}
; #@! TF.CreationDate,2025-10-31T00:58:53-04:00
; #@! TF.GenerationSoftware,Kicad,Pcbnew,9.0.5
; #@! TF.FileFunction,NonPlated,1,2,NPTH
FMAT,2
INCH
; #@! TA.AperFunction,NonPlated,NPTH,ComponentDrill
T1C0.0472
; #@! TA.AperFunction,NonPlated,NPTH,ComponentDrill
T2C0.1063
%
G90
G05
T1
X2.2987Y-3.6575
X2.2993Y-5.3819
X2.2993Y-7.1063
X2.6215Y-3.7559
X2.6222Y-5.4803
X2.6222Y-7.2047
X3.9326Y-4.1339
X3.9332Y-5.8583
X3.9332Y-7.5827
X5.9941Y-6.9419
X5.9941Y-7.2096
X5.9941Y-7.4774
X5.9941Y-7.7451
T2
X2.0945Y-2.7087
X2.0945Y-8.3425
X3.9567Y-2.7087
X4.0402Y-8.3425
X6.2402Y-2.7087
X6.2402Y-4.6378
X6.2402Y-7.5925
X6.2402Y-8.3425
M30
