M48
; DRILL file {KiCad 9.0.5} date 2025-10-31T11:40:29-0400
; FORMAT={-:-/ absolute / inch / decimal}
; #@! TF.CreationDate,2025-10-31T11:40:29-04:00
; #@! TF.GenerationSoftware,Kicad,Pcbnew,9.0.5
; #@! TF.FileFunction,Plated,1,2,PTH
FMAT,2
INCH
; #@! TA.AperFunction,Plated,PTH,ComponentDrill
T1C0.0079
; #@! TA.AperFunction,Plated,PTH,ViaDrill
T2C0.0118
; #@! TA.AperFunction,Plated,PTH,ComponentDrill
T3C0.0118
; #@! TA.AperFunction,Plated,PTH,ComponentDrill
T4C0.0315
; #@! TA.AperFunction,Plated,PTH,ComponentDrill
T5C0.0354
; #@! TA.AperFunction,Plated,PTH,ComponentDrill
T6C0.0374
; #@! TA.AperFunction,Plated,PTH,ComponentDrill
T7C0.0394
; #@! TA.AperFunction,Plated,PTH,ComponentDrill
T8C0.0591
; #@! TA.AperFunction,Plated,PTH,ComponentDrill
T9C0.0598
; #@! TA.AperFunction,Plated,PTH,ComponentDrill
T10C0.0650
; #@! TA.AperFunction,Plated,PTH,ComponentDrill
T11C0.2402
%
G90
G05
T1
X5.2371Y-4.686
X5.2371Y-4.7244
X5.2371Y-4.7628
X5.2371Y-5.6565
X5.2371Y-5.6949
X5.2371Y-5.7333
X5.2372Y-3.7136
X5.2372Y-3.752
X5.2372Y-3.7904
X5.2754Y-4.686
X5.2754Y-4.7244
X5.2754Y-4.7628
X5.2754Y-5.6565
X5.2754Y-5.6949
X5.2754Y-5.7333
X5.2756Y-3.7136
X5.2756Y-3.752
X5.2756Y-3.7904
X5.3138Y-4.686
X5.3138Y-4.7244
X5.3138Y-4.7628
X5.3138Y-5.6565
X5.3138Y-5.6949
X5.3138Y-5.7333
X5.314Y-3.7136
X5.314Y-3.752
X5.314Y-3.7904
T2
X2.2165Y-5.9724
X2.2717Y-5.9724
X2.2717Y-6.4843
X2.2953Y-6.5079
X2.3189Y-6.5315
X3.0507Y-3.9567
X3.0513Y-5.6811
X3.0513Y-7.4055
X3.1196Y-4.3425
X3.1202Y-6.0669
X3.1202Y-7.7913
X3.1694Y-3.874
X3.1694Y-5.5984
X3.1694Y-7.3228
X3.2475Y-3.7756
X3.2482Y-5.5
X3.2521Y-7.2244
X3.2908Y-4.1161
X3.2926Y-5.8406
X3.2926Y-7.565
X3.4055Y-4.7638
X3.4055Y-6.4882
X3.4252Y-4.7362
X3.4252Y-6.4606
X3.4369Y-3.7799
X3.4371Y-5.5039
X3.4371Y-7.2283
X3.4449Y-4.7087
X3.4449Y-4.7638
X3.4449Y-6.4331
X3.4449Y-6.4882
X3.4646Y-3.1969
X3.4646Y-4.7362
X3.4646Y-4.9213
X3.4646Y-6.4606
X3.4646Y-6.6457
X3.4803Y-4.4528
X3.4803Y-6.1772
X3.4803Y-7.9016
X3.4843Y-4.7087
X3.4843Y-4.7638
X3.4843Y-6.4331
X3.4843Y-6.4882
X3.5039Y-4.7362
X3.5039Y-6.4606
X3.5236Y-4.7087
X3.5236Y-4.7638
X3.5236Y-6.4331
X3.5236Y-6.4882
X3.5433Y-4.7362
X3.5433Y-6.4606
X3.5591Y-6.2244
X3.5591Y-6.3189
X3.563Y-3.6969
X3.563Y-4.7087
X3.563Y-4.7638
X3.563Y-5.4213
X3.563Y-6.4331
X3.563Y-6.4882
X3.563Y-7.1457
X3.5827Y-4.7362
X3.5827Y-6.4606
X3.6024Y-4.7087
X3.6024Y-4.7638
X3.6024Y-6.4331
X3.6024Y-6.4882
X3.6102Y-6.1339
X3.6181Y-3.1457
X3.6181Y-4.8701
X3.6181Y-6.5945
X3.622Y-4.7362
X3.622Y-6.4606
X3.632Y-5.8406
X3.6323Y-4.1161
X3.634Y-7.5661
X3.6417Y-4.7087
X3.6417Y-4.7638
X3.6417Y-6.4331
X3.6417Y-6.4882
X3.6614Y-4.7362
X3.6614Y-6.4606
X3.6811Y-4.7087
X3.6811Y-4.7638
X3.6811Y-6.4331
X3.6811Y-6.4882
X3.7002Y-8.0433
X3.7002Y-8.191
X3.7008Y-4.7362
X3.7008Y-6.4606
X3.7205Y-4.7087
X3.7205Y-4.7638
X3.7205Y-6.4331
X3.7205Y-6.4882
X3.7402Y-4.7362
X3.7402Y-6.4606
X3.7598Y-4.7087
X3.7598Y-4.7638
X3.7598Y-6.4331
X3.7598Y-6.4882
X3.7795Y-4.7362
X3.7795Y-6.4606
X3.7992Y-4.7087
X3.7992Y-4.7638
X3.7992Y-6.4331
X3.7992Y-6.4882
X3.8189Y-4.7362
X3.8189Y-6.4606
X3.8357Y-3.2087
X3.8386Y-4.7087
X3.8386Y-4.7638
X3.8386Y-6.4331
X3.8386Y-6.4882
X3.8583Y-4.7362
X3.8583Y-6.4606
X4.0336Y-3.374
X4.0336Y-3.4016
X4.0336Y-3.4291
X4.0336Y-3.4591
X4.0336Y-3.4882
X4.0336Y-3.5157
X4.0336Y-3.5433
X4.0336Y-5.0984
X4.0336Y-5.1299
X4.0336Y-5.1654
X4.0336Y-5.2008
X4.0336Y-5.2362
X4.0336Y-5.2677
X4.0336Y-6.8228
X4.0336Y-6.8543
X4.0336Y-6.8898
X4.0336Y-6.9252
X4.0336Y-6.9606
X4.0336Y-6.9921
X4.0512Y-7.315
X4.0512Y-7.3543
X4.0512Y-7.3937
X4.0512Y-7.4331
X4.0512Y-7.4724
X4.0512Y-7.5118
X4.0512Y-7.5512
X4.0512Y-7.5906
X4.0512Y-7.6299
X4.0512Y-7.6693
X4.0512Y-7.7087
X4.0512Y-7.748
X4.0512Y-7.7874
X4.0512Y-7.8268
X4.0512Y-7.8661
X4.0512Y-7.9055
X4.0512Y-7.9449
X4.0787Y-7.3346
X4.0787Y-7.374
X4.0787Y-7.4134
X4.0787Y-7.4528
X4.0787Y-7.4921
X4.0787Y-7.5315
X4.0787Y-7.5709
X4.0787Y-7.6102
X4.0787Y-7.6496
X4.0787Y-7.689
X4.0787Y-7.7283
X4.0787Y-7.7677
X4.0787Y-7.8071
X4.0787Y-7.8465
X4.0787Y-7.8858
X4.0787Y-7.9252
X4.1063Y-2.8386
X4.1063Y-3.0197
X4.1063Y-7.315
X4.1063Y-7.3543
X4.1063Y-7.3937
X4.1063Y-7.4331
X4.1063Y-7.4724
X4.1063Y-7.5118
X4.1063Y-7.5512
X4.1063Y-7.5906
X4.1063Y-7.6299
X4.1063Y-7.6693
X4.1063Y-7.7087
X4.1063Y-7.748
X4.1063Y-7.7874
X4.1063Y-7.8268
X4.1063Y-7.8661
X4.1063Y-7.9055
X4.1063Y-7.9449
X4.126Y-3.0433
X4.1457Y-2.8386
X4.1457Y-3.0197
X4.1654Y-3.0433
X4.185Y-2.8386
X4.185Y-3.0197
X4.2047Y-3.0433
X4.2244Y-2.8386
X4.2244Y-3.0197
X4.2441Y-3.0433
X4.2559Y-6.189
X4.2559Y-6.2283
X4.2559Y-6.2677
X4.2559Y-6.3071
X4.2559Y-6.3465
X4.2559Y-6.3858
X4.2559Y-6.4252
X4.2559Y-6.4646
X4.2559Y-6.5039
X4.2559Y-6.5866
X4.2638Y-2.8386
X4.2638Y-3.0197
X4.2756Y-6.1575
X4.2798Y-7.1713
X4.2835Y-3.0433
X4.3031Y-2.8386
X4.3031Y-3.0197
X4.315Y-6.1575
X4.3228Y-3.0433
X4.3425Y-2.8386
X4.3425Y-3.0197
X4.3543Y-6.1575
X4.3622Y-3.0433
X4.3819Y-2.8386
X4.3819Y-3.0197
X4.4016Y-3.0433
X4.4094Y-7.7008
X4.4213Y-2.8386
X4.4213Y-3.0197
X4.4291Y-6.8819
X4.4331Y-6.0472
X4.4331Y-6.1575
X4.4409Y-3.0433
X4.4606Y-2.8386
X4.4606Y-3.0197
X4.4724Y-6.1575
X4.4803Y-3.0433
X4.5Y-2.8386
X4.5Y-3.0197
X4.5118Y-5.9528
X4.5118Y-6.0472
X4.5118Y-6.1575
X4.5197Y-3.0433
X4.5394Y-2.8386
X4.5394Y-3.0197
X4.5512Y-5.9528
X4.5512Y-6.0472
X4.5512Y-6.1575
X4.5591Y-3.0433
X4.5787Y-2.8386
X4.5787Y-3.0197
X4.5906Y-5.9528
X4.5906Y-6.0472
X4.5906Y-6.1575
X4.5984Y-3.0433
X4.6181Y-2.8386
X4.6181Y-3.0197
X4.6219Y-4.5827
X4.6219Y-5.5531
X4.622Y-3.6102
X4.6299Y-5.9528
X4.6299Y-6.0472
X4.6299Y-6.1575
X4.6378Y-3.0433
X4.6575Y-2.8386
X4.6575Y-3.0197
X4.6654Y-7.8937
X4.6693Y-5.9528
X4.6693Y-6.0472
X4.6693Y-6.1575
X4.6772Y-3.0433
X4.685Y-6.189
X4.685Y-6.2283
X4.685Y-6.2677
X4.685Y-6.3071
X4.685Y-6.3465
X4.685Y-6.3858
X4.685Y-6.4252
X4.685Y-6.4646
X4.685Y-6.5039
X4.685Y-6.5433
X4.685Y-6.5827
X4.685Y-6.622
X4.685Y-6.6614
X4.685Y-6.7008
X4.6969Y-2.8386
X4.6969Y-3.0197
X4.7008Y-7.5551
X4.7012Y-3.5236
X4.7087Y-5.9528
X4.7087Y-6.0472
X4.7165Y-3.0433
X4.7362Y-2.8386
X4.7362Y-3.0197
X4.748Y-5.9528
X4.748Y-6.0472
X4.7559Y-3.0433
X4.7598Y-6.189
X4.7598Y-6.2283
X4.7598Y-6.2677
X4.7598Y-6.3071
X4.7598Y-6.3465
X4.7598Y-6.3858
X4.7598Y-6.4252
X4.7598Y-6.4646
X4.7598Y-6.5039
X4.7598Y-6.5433
X4.7598Y-6.5827
X4.7598Y-6.622
X4.7598Y-6.6614
X4.7598Y-6.7008
X4.7756Y-2.8386
X4.7756Y-3.0197
X4.7874Y-5.9528
X4.7874Y-6.0472
X4.7874Y-6.1575
X4.7953Y-3.0433
X4.7953Y-4.5984
X4.7995Y-7.1713
X4.811Y-5.5551
X4.815Y-2.8386
X4.815Y-3.0197
X4.8268Y-4.0984
X4.8268Y-5.9528
X4.8268Y-6.0472
X4.8268Y-6.1575
X4.8346Y-3.0433
X4.8465Y-7.8898
X4.8543Y-2.8386
X4.8543Y-3.0197
X4.8543Y-4.126
X4.8661Y-5.9528
X4.8661Y-6.0472
X4.8661Y-6.1575
X4.874Y-3.0433
X4.874Y-7.7008
X4.8819Y-4.1535
X4.8937Y-2.8386
X4.8937Y-3.0197
X4.9016Y-7.7008
X4.9055Y-5.9528
X4.9055Y-6.0472
X4.9055Y-6.1575
X4.9134Y-3.0433
X4.9291Y-7.7008
X4.9331Y-2.8386
X4.9331Y-3.0197
X4.9331Y-4.7362
X4.937Y-5.7047
X4.9449Y-5.9528
X4.9449Y-6.0472
X4.9449Y-6.1575
X4.9488Y-6.8189
X4.9528Y-3.0433
X4.9567Y-7.7008
X4.9724Y-2.8386
X4.9724Y-3.0197
X4.9803Y-6.8189
X4.9843Y-6.0472
X4.9843Y-6.1575
X4.9843Y-7.7008
X4.9921Y-3.0433
X5.0077Y-4.9055
X5.0077Y-5.876
X5.0079Y-3.9331
X5.0118Y-2.8386
X5.0118Y-3.0197
X5.0195Y-4.7589
X5.0195Y-5.7293
X5.0197Y-3.7864
X5.0236Y-6.1575
X5.0315Y-3.0433
X5.0352Y-6.5866
X5.0512Y-2.8386
X5.0512Y-3.0197
X5.055Y-4.6772
X5.055Y-5.6476
X5.0551Y-3.7047
X5.0709Y-3.0433
X5.0825Y-4.8318
X5.0827Y-3.8593
X5.0827Y-5.8031
X5.0906Y-2.8386
X5.0906Y-3.0197
X5.0906Y-7.8937
X5.0984Y-6.0394
X5.1024Y-6.1575
X5.1101Y-4.9056
X5.1101Y-5.876
X5.1102Y-3.0433
X5.1102Y-3.9331
X5.1299Y-2.8386
X5.1299Y-3.0197
X5.1417Y-6.1575
X5.1496Y-3.0433
X5.1496Y-3.8425
X5.1573Y-4.7598
X5.1573Y-5.7303
X5.1575Y-3.7874
X5.1692Y-4.6457
X5.1692Y-5.6161
X5.1693Y-2.8386
X5.1693Y-3.0197
X5.1693Y-3.6732
X5.1811Y-6.1575
X5.189Y-3.0433
X5.2087Y-2.8386
X5.2087Y-3.0197
X5.2205Y-6.1575
X5.2283Y-3.0433
X5.2309Y-4.8425
X5.2309Y-5.813
X5.231Y-3.8701
X5.2362Y-6.185
X5.2362Y-6.2244
X5.2362Y-6.2638
X5.2362Y-6.3031
X5.2362Y-6.3425
X5.2362Y-6.3819
X5.2362Y-6.4213
X5.2362Y-6.4606
X5.2362Y-6.5
X5.2362Y-6.5394
X5.2362Y-6.5787
X5.24Y-4.2165
X5.24Y-5.187
X5.2402Y-3.2441
X5.248Y-2.8386
X5.248Y-3.0197
X5.2656Y-4.8543
X5.2656Y-5.8248
X5.2657Y-3.8819
X5.2677Y-3.0433
X5.2717Y-8.0354
X5.2853Y-4.6063
X5.2853Y-5.5768
X5.2854Y-3.6339
X5.2874Y-2.8386
X5.2874Y-3.0197
X5.2874Y-6.3661
X5.3071Y-3.0433
X5.3228Y-4.6064
X5.3228Y-5.5769
X5.323Y-3.634
X5.3268Y-2.8386
X5.3268Y-3.0197
X5.3346Y-6.0315
X5.3346Y-6.0846
X5.3346Y-6.563
X5.3465Y-3.0433
X5.3504Y-7.9291
X5.3526Y-4.8311
X5.3526Y-5.8016
X5.3528Y-3.8587
X5.3543Y-4.6061
X5.3543Y-5.5765
X5.3545Y-3.6336
X5.3602Y-6.1063
X5.3661Y-2.8386
X5.3661Y-3.0197
X5.3858Y-3.0433
X5.3858Y-6.0315
X5.3858Y-6.0846
X5.4014Y-4.878
X5.4016Y-3.9055
X5.4016Y-5.8465
X5.4055Y-2.8386
X5.4055Y-3.0197
X5.4093Y-4.7028
X5.4093Y-4.7343
X5.4093Y-5.6732
X5.4093Y-5.7047
X5.4094Y-3.7303
X5.4094Y-3.7618
X5.4114Y-6.1035
X5.4134Y-6.063
X5.4138Y-4.1679
X5.4138Y-4.3411
X5.4138Y-5.1384
X5.4138Y-5.3116
X5.414Y-3.1955
X5.414Y-3.3687
X5.4252Y-3.0433
X5.4291Y-6.563
X5.4449Y-2.8386
X5.4449Y-3.0197
X5.4646Y-3.0433
X5.4764Y-6.8228
X5.4843Y-2.8386
X5.4843Y-3.0197
X5.4882Y-8.0787
X5.5039Y-3.0433
X5.5079Y-6.8228
X5.5138Y-6.1115
X5.5236Y-2.8386
X5.5236Y-3.0197
X5.5276Y-5.9921
X5.5394Y-6.3964
X5.5394Y-6.0931
X5.5433Y-3.0433
X5.5468Y-4.7879
X5.5469Y-3.8154
X5.5469Y-5.7603
X5.563Y-2.8386
X5.563Y-3.0197
X5.565Y-6.1115
X5.5827Y-3.0433
X5.5906Y-6.0931
X5.6024Y-2.8386
X5.6024Y-3.0197
X5.622Y-3.0433
X5.622Y-8.1063
X5.6417Y-2.8386
X5.6417Y-3.0197
X5.6544Y-4.7795
X5.6544Y-5.75
X5.6545Y-3.8071
X5.6614Y-3.0433
X5.6811Y-2.8386
X5.6811Y-3.0197
X5.7008Y-3.0433
X5.7008Y-7.252
X5.7008Y-7.2913
X5.7008Y-7.3307
X5.7008Y-7.5197
X5.7008Y-7.5591
X5.7008Y-7.5984
X5.7205Y-6.2835
X5.7205Y-2.8386
X5.7205Y-3.0197
X5.7283Y-7.2717
X5.7283Y-7.311
X5.7283Y-7.5394
X5.7283Y-7.5787
X5.7402Y-3.0433
X5.752Y-6.2835
X5.7559Y-7.252
X5.7559Y-7.2913
X5.7559Y-7.3307
X5.7559Y-7.5197
X5.7559Y-7.5591
X5.7559Y-7.5984
X5.7597Y-4.7562
X5.7597Y-5.7267
X5.7598Y-2.8386
X5.7598Y-3.0197
X5.7598Y-3.7838
X5.7795Y-3.0433
X5.7992Y-2.8386
X5.7992Y-3.0197
X5.8189Y-3.0433
X5.8228Y-6.7205
X5.8228Y-6.7598
X5.8228Y-6.7992
X5.8386Y-2.8386
X5.8386Y-3.0197
X5.8504Y-6.7402
X5.8504Y-6.7795
X5.8583Y-3.0433
X5.878Y-2.8386
X5.878Y-3.0197
X5.878Y-6.7205
X5.878Y-6.7598
X5.878Y-6.7992
X5.9528Y-6.4764
X5.9644Y-4.6535
X5.9644Y-5.624
X5.9646Y-3.6811
X5.9768Y-7.8929
X5.9921Y-5.4921
X6.0069Y-6.6034
X6.0157Y-5.4724
X6.0157Y-6.4094
X6.0157Y-6.685
X6.0157Y-6.7165
X6.0276Y-5.9685
X6.0354Y-5.4921
X6.0512Y-5.8681
X6.0512Y-5.9449
X6.0551Y-5.5118
X6.0551Y-5.5512
X6.0551Y-5.5906
X6.0551Y-5.6299
X6.0551Y-5.6693
X6.0551Y-5.7087
X6.0551Y-5.748
X6.0551Y-5.7874
X6.0551Y-5.8268
X6.0669Y-5.4213
X6.0945Y-5.3937
X6.0965Y-5.9016
X6.122Y-5.3661
T3
X5.3258Y-6.2028
X5.3258Y-6.2539
X5.3258Y-6.3051
X5.3959Y-6.2028
X5.3959Y-6.2539
X5.3959Y-6.3051
X5.4659Y-6.2028
X5.4659Y-6.2539
X5.4659Y-6.3051
X5.536Y-6.2028
X5.536Y-6.2539
X5.536Y-6.3051
X5.6061Y-6.2028
X5.6061Y-6.2539
X5.6061Y-6.3051
X5.6762Y-6.2028
X5.6762Y-6.2539
X5.6762Y-6.3051
T4
X4.3345Y-4.4763
X4.3345Y-5.4468
X4.3346Y-3.5038
X4.4132Y-4.4763
X4.4132Y-5.4468
X4.4134Y-3.5038
X4.492Y-4.4763
X4.492Y-5.4468
X4.4921Y-3.5038
T5
X3.1609Y-3.5922
X3.1609Y-3.7221
X3.1616Y-5.3166
X3.1616Y-5.4466
X3.1616Y-7.041
X3.1616Y-7.171
X3.2593Y-3.5922
X3.2593Y-3.7221
X3.26Y-5.3166
X3.26Y-5.4466
X3.26Y-7.041
X3.26Y-7.171
X3.3578Y-3.5922
X3.3578Y-3.7221
X3.3584Y-5.3166
X3.3584Y-5.4466
X3.3584Y-7.041
X3.3584Y-7.171
X5.7085Y-4.7149
X5.7085Y-4.8448
X5.7085Y-5.6853
X5.7085Y-5.8153
X5.7087Y-3.7424
X5.7087Y-3.8723
X5.8069Y-4.7149
X5.8069Y-4.8448
X5.8069Y-5.6853
X5.8069Y-5.8153
X5.8071Y-3.7424
X5.8071Y-3.8723
X5.9054Y-4.7149
X5.9054Y-4.8448
X5.9054Y-5.6853
X5.9054Y-5.8153
X5.9055Y-3.7424
X5.9055Y-3.8723
T6
X2.3774Y-3.7205
X2.3774Y-3.8189
X2.3774Y-3.9173
X2.3774Y-4.0157
X2.3774Y-4.1142
X2.3781Y-5.4449
X2.3781Y-5.5433
X2.3781Y-5.6417
X2.3781Y-5.7402
X2.3781Y-5.8386
X2.3781Y-7.1693
X2.3781Y-7.2677
X2.3781Y-7.3661
X2.3781Y-7.4646
X2.3781Y-7.563
X2.7003Y-3.8189
X2.7003Y-3.9173
X2.7003Y-4.0157
X2.7003Y-4.1142
X2.7009Y-5.5433
X2.7009Y-5.6417
X2.7009Y-5.7402
X2.7009Y-5.8386
X2.7009Y-7.2677
X2.7009Y-7.3661
X2.7009Y-7.4646
X2.7009Y-7.563
T7
X3.8538Y-3.9724
X3.8538Y-4.0709
X3.8545Y-5.6969
X3.8545Y-5.7953
X3.8545Y-7.4213
X3.8545Y-7.5197
X5.2913Y-7.1929
X5.2913Y-7.2929
X5.2913Y-7.3929
X5.2913Y-7.4929
X5.3913Y-7.1929
X5.3913Y-7.2929
X5.3913Y-7.3929
X5.3913Y-7.4929
X5.4772Y-7.7079
X5.4772Y-7.8079
X5.4772Y-7.9079
X5.4772Y-8.0079
X5.4913Y-7.1929
X5.4913Y-7.2929
X5.4913Y-7.3929
X5.4913Y-7.4929
X5.5772Y-7.7079
X5.5772Y-7.8079
X5.5772Y-7.9079
X5.5772Y-8.0079
X5.5913Y-7.1929
X5.5913Y-7.2929
X5.5913Y-7.3929
X5.5913Y-7.4929
X5.6768Y-8.0079
X5.7768Y-8.0079
X5.8327Y-7.0207
X5.8327Y-7.2884
X5.8327Y-7.5561
X5.8327Y-7.8238
X5.8768Y-8.0079
X5.9311Y-7.0207
X5.9311Y-7.2884
X5.9311Y-7.5561
X5.9311Y-7.8238
X5.9768Y-8.0079
T8
X4.2518Y-4.4763
X4.2518Y-5.4468
X4.252Y-3.5038
X4.5747Y-4.4763
X4.5747Y-5.4468
X4.5748Y-3.5038
T9
X2.9433Y-2.9961
X3.1433Y-2.9961
X4.4157Y-8.0157
X4.6157Y-8.0157
X6.1969Y-6.5575
X6.1969Y-6.7575
T10
X2.9331Y-3.3268
X2.9331Y-5.0512
X2.9331Y-6.7756
X3.0672Y-3.3268
X3.0672Y-5.0512
X3.0672Y-6.7756
X3.2431Y-3.3268
X3.2431Y-5.0512
X3.2431Y-6.7756
X3.3671Y-2.9291
X3.3772Y-3.3268
X3.3772Y-5.0512
X3.3772Y-6.7756
X3.5012Y-2.9291
X3.6772Y-2.9291
X3.8113Y-2.9291
T11
X2.5389Y-3.3268
X2.5389Y-4.5067
X2.5395Y-5.0512
X2.5395Y-6.2311
X2.5395Y-6.7756
X2.5395Y-7.9555
M30
