%TF.GenerationSoftware,KiCad,Pcbnew,9.0.5*%
%TF.CreationDate,2025-10-31T11:40:23-04:00*%
%TF.ProjectId,powerdist,706f7765-7264-4697-9374-2e6b69636164,v1*%
%TF.SameCoordinates,Original*%
%TF.FileFunction,Soldermask,Bot*%
%TF.FilePolarity,Negative*%
%FSLAX46Y46*%
G04 Gerber Fmt 4.6, Leading zero omitted, Abs format (unit mm)*
G04 Created by KiCad (PCBNEW 9.0.5) date 2025-10-31 11:40:23*
%MOMM*%
%LPD*%
G01*
G04 APERTURE LIST*
G04 Aperture macros list*
%AMRoundRect*
0 Rectangle with rounded corners*
0 $1 Rounding radius*
0 $2 $3 $4 $5 $6 $7 $8 $9 X,Y pos of 4 corners*
0 Add a 4 corners polygon primitive as box body*
4,1,4,$2,$3,$4,$5,$6,$7,$8,$9,$2,$3,0*
0 Add four circle primitives for the rounded corners*
1,1,$1+$1,$2,$3*
1,1,$1+$1,$4,$5*
1,1,$1+$1,$6,$7*
1,1,$1+$1,$8,$9*
0 Add four rect primitives between the rounded corners*
20,1,$1+$1,$2,$3,$4,$5,0*
20,1,$1+$1,$4,$5,$6,$7,0*
20,1,$1+$1,$6,$7,$8,$9,0*
20,1,$1+$1,$8,$9,$2,$3,0*%
G04 Aperture macros list end*
%ADD10C,2.159000*%
%ADD11C,1.200000*%
%ADD12RoundRect,0.250000X-0.725000X0.600000X-0.725000X-0.600000X0.725000X-0.600000X0.725000X0.600000X0*%
%ADD13O,1.950000X1.700000*%
%ADD14C,2.700000*%
%ADD15RoundRect,0.250000X0.750000X-0.600000X0.750000X0.600000X-0.750000X0.600000X-0.750000X-0.600000X0*%
%ADD16O,2.000000X1.700000*%
%ADD17R,1.700000X1.700000*%
%ADD18C,1.700000*%
%ADD19RoundRect,0.250000X0.600000X0.750000X-0.600000X0.750000X-0.600000X-0.750000X0.600000X-0.750000X0*%
%ADD20O,1.700000X2.000000*%
%ADD21RoundRect,0.250000X-0.450000X-0.450000X0.450000X-0.450000X0.450000X0.450000X-0.450000X0.450000X0*%
%ADD22C,1.400000*%
%ADD23R,3.000000X3.000000*%
%ADD24C,3.000000*%
%ADD25O,2.200000X3.500000*%
%ADD26R,1.500000X2.500000*%
%ADD27O,1.500000X2.500000*%
%ADD28RoundRect,0.250000X0.450000X0.450000X-0.450000X0.450000X-0.450000X-0.450000X0.450000X-0.450000X0*%
%ADD29C,10.160000*%
%ADD30RoundRect,0.200000X-0.275000X0.200000X-0.275000X-0.200000X0.275000X-0.200000X0.275000X0.200000X0*%
%ADD31RoundRect,0.250000X-0.250000X-0.250000X0.250000X-0.250000X0.250000X0.250000X-0.250000X0.250000X0*%
%ADD32RoundRect,0.225000X0.225000X0.250000X-0.225000X0.250000X-0.225000X-0.250000X0.225000X-0.250000X0*%
%ADD33R,1.270000X0.610000*%
%ADD34R,3.810000X3.910000*%
%ADD35R,1.020000X0.610000*%
%ADD36RoundRect,0.225000X0.250000X-0.225000X0.250000X0.225000X-0.250000X0.225000X-0.250000X-0.225000X0*%
%ADD37O,1.200000X0.399999*%
%ADD38RoundRect,0.150000X0.150000X-0.587500X0.150000X0.587500X-0.150000X0.587500X-0.150000X-0.587500X0*%
%ADD39RoundRect,0.150000X-0.587500X-0.150000X0.587500X-0.150000X0.587500X0.150000X-0.587500X0.150000X0*%
%ADD40RoundRect,0.200000X-0.200000X-0.275000X0.200000X-0.275000X0.200000X0.275000X-0.200000X0.275000X0*%
%ADD41RoundRect,0.150000X-0.150000X0.825000X-0.150000X-0.825000X0.150000X-0.825000X0.150000X0.825000X0*%
%ADD42RoundRect,0.200000X0.275000X-0.200000X0.275000X0.200000X-0.275000X0.200000X-0.275000X-0.200000X0*%
%ADD43RoundRect,0.200000X0.200000X0.275000X-0.200000X0.275000X-0.200000X-0.275000X0.200000X-0.275000X0*%
%ADD44RoundRect,0.225000X0.225000X0.375000X-0.225000X0.375000X-0.225000X-0.375000X0.225000X-0.375000X0*%
%ADD45RoundRect,0.225000X-0.225000X-0.250000X0.225000X-0.250000X0.225000X0.250000X-0.225000X0.250000X0*%
%ADD46RoundRect,0.225000X-0.250000X0.225000X-0.250000X-0.225000X0.250000X-0.225000X0.250000X0.225000X0*%
G04 APERTURE END LIST*
D10*
%TO.C,F1*%
X85523998Y-74400000D03*
X88929999Y-74400000D03*
X93400000Y-74400000D03*
X96806002Y-74400000D03*
%TD*%
D11*
%TO.C,BATT4S3*%
X58403465Y-180500000D03*
D12*
X60403465Y-182100000D03*
D13*
X60403465Y-184600000D03*
X60403465Y-187100000D03*
X60403465Y-189600000D03*
X60403465Y-192100000D03*
%TD*%
D14*
%TO.C,REF\u002A\u002A2*%
X100500000Y-68800000D03*
%TD*%
D10*
%TO.C,F2*%
X74500000Y-84500000D03*
X77906001Y-84500000D03*
X82376002Y-84500000D03*
X85782004Y-84500000D03*
%TD*%
D11*
%TO.C,TH1*%
X99887216Y-105000000D03*
D15*
X97887216Y-103400000D03*
D16*
X97887216Y-100900000D03*
%TD*%
D10*
%TO.C,F4*%
X74500000Y-172100000D03*
X77906001Y-172100000D03*
X82376002Y-172100000D03*
X85782004Y-172100000D03*
%TD*%
D11*
%TO.C,BATT3S3*%
X66603465Y-183000000D03*
D12*
X68603465Y-184600000D03*
D13*
X68603465Y-187100000D03*
X68603465Y-189600000D03*
X68603465Y-192100000D03*
%TD*%
D17*
%TO.C,J3*%
X151810000Y-203400000D03*
D18*
X149270000Y-203400000D03*
X146730000Y-203400000D03*
X144190000Y-203400000D03*
%TD*%
D14*
%TO.C,REF\u002A\u002A5*%
X131101948Y-211899359D03*
%TD*%
D11*
%TO.C,J5*%
X152250000Y-176325000D03*
D19*
X150650000Y-178325000D03*
D20*
X148150000Y-178325000D03*
%TD*%
D21*
%TO.C,SW6*%
X144996415Y-144407500D03*
D22*
X147496415Y-144407500D03*
X149996415Y-144407500D03*
X149996415Y-147707500D03*
X147496415Y-147707500D03*
X144996415Y-147707500D03*
%TD*%
D14*
%TO.C,REF\u002A\u002A*%
X158500000Y-211900000D03*
%TD*%
D11*
%TO.C,J7*%
X152250000Y-189925000D03*
D19*
X150650000Y-191925000D03*
D20*
X148150000Y-191925000D03*
%TD*%
D23*
%TO.C,J15*%
X157400000Y-171640000D03*
D24*
X157400000Y-166560000D03*
%TD*%
D25*
%TO.C,SW1*%
X108000000Y-88997500D03*
X116200000Y-88997500D03*
D26*
X110100000Y-88997500D03*
D27*
X112100000Y-88997500D03*
X114100000Y-88997500D03*
%TD*%
D17*
%TO.C,J11*%
X136940000Y-185240000D03*
D18*
X136940000Y-187780000D03*
X136940000Y-190320000D03*
%TD*%
D17*
%TO.C,J12*%
X139480000Y-185240000D03*
D18*
X139480000Y-187780000D03*
X139480000Y-190320000D03*
%TD*%
D14*
%TO.C,REF\u002A\u002A*%
X53200000Y-211900000D03*
%TD*%
D17*
%TO.C,J14*%
X134400000Y-182700000D03*
D18*
X136940000Y-182700000D03*
X139480000Y-182700000D03*
X142020000Y-182700000D03*
%TD*%
D14*
%TO.C,REF\u002A\u002A*%
X53200000Y-68800000D03*
%TD*%
D10*
%TO.C,F3*%
X74500000Y-128300000D03*
X77906001Y-128300000D03*
X82376002Y-128300000D03*
X85782004Y-128300000D03*
%TD*%
D17*
%TO.C,J9*%
X139120000Y-203400000D03*
D18*
X139120000Y-200860000D03*
X139120000Y-198320000D03*
X139120000Y-195780000D03*
%TD*%
D11*
%TO.C,TH2*%
X99903465Y-148800000D03*
D15*
X97903465Y-147200000D03*
D16*
X97903465Y-144700000D03*
%TD*%
D17*
%TO.C,J10*%
X134400000Y-185240000D03*
D18*
X134400000Y-187780000D03*
X134400000Y-190320000D03*
%TD*%
D11*
%TO.C,TH3*%
X99903465Y-192600000D03*
D15*
X97903465Y-191000000D03*
D16*
X97903465Y-188500000D03*
%TD*%
D14*
%TO.C,REF\u002A\u002A6*%
X158500000Y-117800000D03*
%TD*%
D28*
%TO.C,SW7*%
X85287216Y-94542500D03*
D22*
X82787216Y-94542500D03*
X80287216Y-94542500D03*
X80287216Y-91242500D03*
X82787216Y-91242500D03*
X85287216Y-91242500D03*
%TD*%
D11*
%TO.C,J6*%
X152250000Y-183125000D03*
D19*
X150650000Y-185125000D03*
D20*
X148150000Y-185125000D03*
%TD*%
D25*
%TO.C,SW3*%
X107996415Y-113697500D03*
X116196415Y-113697500D03*
D26*
X110096415Y-113697500D03*
D27*
X112096415Y-113697500D03*
X114096415Y-113697500D03*
%TD*%
D28*
%TO.C,SW8*%
X85303465Y-138342500D03*
D22*
X82803465Y-138342500D03*
X80303465Y-138342500D03*
X80303465Y-135042500D03*
X82803465Y-135042500D03*
X85303465Y-135042500D03*
%TD*%
D11*
%TO.C,BATT3S2*%
X66603465Y-139200000D03*
D12*
X68603465Y-140800000D03*
D13*
X68603465Y-143300000D03*
X68603465Y-145800000D03*
X68603465Y-148300000D03*
%TD*%
D28*
%TO.C,SW9*%
X85303465Y-182142500D03*
D22*
X82803465Y-182142500D03*
X80303465Y-182142500D03*
X80303465Y-178842500D03*
X82803465Y-178842500D03*
X85303465Y-178842500D03*
%TD*%
D11*
%TO.C,J8*%
X152250000Y-196725000D03*
D19*
X150650000Y-198725000D03*
D20*
X148150000Y-198725000D03*
%TD*%
D23*
%TO.C,J2*%
X112160000Y-203600000D03*
D24*
X117240000Y-203600000D03*
%TD*%
D29*
%TO.C,BATT1*%
X64487216Y-114470000D03*
X64487216Y-84500000D03*
%TD*%
D11*
%TO.C,BATT4S1*%
X58387216Y-92900000D03*
D12*
X60387216Y-94500000D03*
D13*
X60387216Y-97000000D03*
X60387216Y-99500000D03*
X60387216Y-102000000D03*
X60387216Y-104500000D03*
%TD*%
D29*
%TO.C,BATT2*%
X64503465Y-158270000D03*
X64503465Y-128300000D03*
%TD*%
D17*
%TO.C,J13*%
X142020000Y-185240000D03*
D18*
X142020000Y-187780000D03*
X142020000Y-190320000D03*
%TD*%
D17*
%TO.C,J4*%
X141660000Y-203400000D03*
D18*
X141660000Y-200860000D03*
X141660000Y-198320000D03*
X141660000Y-195780000D03*
%TD*%
D21*
%TO.C,SW4*%
X144996415Y-119757500D03*
D22*
X147496415Y-119757500D03*
X149996415Y-119757500D03*
X149996415Y-123057500D03*
X147496415Y-123057500D03*
X144996415Y-123057500D03*
%TD*%
D25*
%TO.C,SW5*%
X107996415Y-138347500D03*
X116196415Y-138347500D03*
D26*
X110096415Y-138347500D03*
D27*
X112096415Y-138347500D03*
X114096415Y-138347500D03*
%TD*%
D14*
%TO.C,REF\u002A\u002A2*%
X74301535Y-195800000D03*
%TD*%
%TO.C,REF\u002A\u002A*%
X158500000Y-68800000D03*
%TD*%
D23*
%TO.C,J1*%
X74760000Y-76100000D03*
D24*
X79840000Y-76100000D03*
%TD*%
D21*
%TO.C,SW2*%
X145000000Y-95057500D03*
D22*
X147500000Y-95057500D03*
X150000000Y-95057500D03*
X150000000Y-98357500D03*
X147500000Y-98357500D03*
X145000000Y-98357500D03*
%TD*%
D11*
%TO.C,BATT3S1*%
X66587216Y-95400000D03*
D12*
X68587216Y-97000000D03*
D13*
X68587216Y-99500000D03*
X68587216Y-102000000D03*
X68587216Y-104500000D03*
%TD*%
D11*
%TO.C,BATT4S2*%
X58403465Y-136700000D03*
D12*
X60403465Y-138300000D03*
D13*
X60403465Y-140800000D03*
X60403465Y-143300000D03*
X60403465Y-145800000D03*
X60403465Y-148300000D03*
%TD*%
D29*
%TO.C,BATT3*%
X64503465Y-202070000D03*
X64503465Y-172100000D03*
%TD*%
D30*
%TO.C,R1*%
X71200000Y-73675000D03*
X71200000Y-75325000D03*
%TD*%
D31*
%TO.C,D11*%
X148150000Y-196600000D03*
X150650000Y-196600000D03*
%TD*%
D32*
%TO.C,C114*%
X121275000Y-200500000D03*
X119725000Y-200500000D03*
%TD*%
%TO.C,C113*%
X115875000Y-200500000D03*
X114325000Y-200500000D03*
%TD*%
D33*
%TO.C,Q1*%
X79250000Y-78500000D03*
X79250000Y-79770000D03*
X79250000Y-81040000D03*
X79250000Y-82310000D03*
D34*
X75890000Y-80405000D03*
D35*
X73785000Y-82310000D03*
X73785000Y-81040000D03*
X73785000Y-79770000D03*
X73785000Y-78500000D03*
%TD*%
D36*
%TO.C,C82*%
X140400000Y-165175000D03*
X140400000Y-163625000D03*
%TD*%
D31*
%TO.C,D8*%
X148150000Y-176200000D03*
X150650000Y-176200000D03*
%TD*%
D30*
%TO.C,R131*%
X106200000Y-180575000D03*
X106200000Y-182225000D03*
%TD*%
D32*
%TO.C,C115*%
X126675000Y-200500000D03*
X125125000Y-200500000D03*
%TD*%
%TO.C,C116*%
X132075000Y-200500000D03*
X130525000Y-200500000D03*
%TD*%
D37*
%TO.C,U9*%
X129349998Y-206974999D03*
X129349998Y-206324998D03*
X129349998Y-205674999D03*
X129349998Y-205024998D03*
X129349998Y-204374999D03*
X129349998Y-203724998D03*
X129349998Y-203074999D03*
X129349998Y-202424998D03*
X135049997Y-202424998D03*
X135049997Y-203074999D03*
X135049997Y-203724998D03*
X135049997Y-204374999D03*
X135049997Y-205024998D03*
X135049997Y-205674999D03*
X135049997Y-206324998D03*
X135049997Y-206974999D03*
%TD*%
D31*
%TO.C,D10*%
X148150000Y-189800000D03*
X150650000Y-189800000D03*
%TD*%
D30*
%TO.C,R130*%
X120900000Y-185175000D03*
X120900000Y-186825000D03*
%TD*%
D38*
%TO.C,Q31*%
X154950000Y-166537500D03*
X153050000Y-166537500D03*
X154000000Y-164662500D03*
%TD*%
D36*
%TO.C,C79*%
X143400000Y-165175000D03*
X143400000Y-163625000D03*
%TD*%
D39*
%TO.C,Q8*%
X145462500Y-196050000D03*
X145462500Y-194150000D03*
X147337500Y-195100000D03*
%TD*%
D40*
%TO.C,R16*%
X153375000Y-168300000D03*
X155025000Y-168300000D03*
%TD*%
D41*
%TO.C,U15*%
X132095000Y-193525000D03*
X133365000Y-193525000D03*
X134635000Y-193525000D03*
X135905000Y-193525000D03*
X135905000Y-198475000D03*
X134635000Y-198475000D03*
X133365000Y-198475000D03*
X132095000Y-198475000D03*
%TD*%
D39*
%TO.C,Q6*%
X145462500Y-182450000D03*
X145462500Y-180550000D03*
X147337500Y-181500000D03*
%TD*%
D42*
%TO.C,R7*%
X106200000Y-185225000D03*
X106200000Y-183575000D03*
%TD*%
D30*
%TO.C,R132*%
X107700000Y-185175000D03*
X107700000Y-186825000D03*
%TD*%
D36*
%TO.C,C112*%
X107700000Y-183775000D03*
X107700000Y-182225000D03*
%TD*%
D41*
%TO.C,U14*%
X126695000Y-193525000D03*
X127965000Y-193525000D03*
X129235000Y-193525000D03*
X130505000Y-193525000D03*
X130505000Y-198475000D03*
X129235000Y-198475000D03*
X127965000Y-198475000D03*
X126695000Y-198475000D03*
%TD*%
%TO.C,U12*%
X115895000Y-193525000D03*
X117165000Y-193525000D03*
X118435000Y-193525000D03*
X119705000Y-193525000D03*
X119705000Y-198475000D03*
X118435000Y-198475000D03*
X117165000Y-198475000D03*
X115895000Y-198475000D03*
%TD*%
D36*
%TO.C,C80*%
X141900000Y-165175000D03*
X141900000Y-163625000D03*
%TD*%
D43*
%TO.C,R117*%
X143400000Y-162100000D03*
X141750000Y-162100000D03*
%TD*%
D44*
%TO.C,D1*%
X71250000Y-77200000D03*
X67950000Y-77200000D03*
%TD*%
D42*
%TO.C,R10*%
X137220000Y-200525000D03*
X137220000Y-198875000D03*
%TD*%
D41*
%TO.C,U13*%
X121295000Y-193525000D03*
X122565000Y-193525000D03*
X123835000Y-193525000D03*
X125105000Y-193525000D03*
X125105000Y-198475000D03*
X123835000Y-198475000D03*
X122565000Y-198475000D03*
X121295000Y-198475000D03*
%TD*%
D36*
%TO.C,C107*%
X120900000Y-183775000D03*
X120900000Y-182225000D03*
%TD*%
D45*
%TO.C,C102*%
X136525000Y-205200000D03*
X138075000Y-205200000D03*
%TD*%
D42*
%TO.C,R11*%
X143520000Y-200525000D03*
X143520000Y-198875000D03*
%TD*%
D46*
%TO.C,C101*%
X136600000Y-202125000D03*
X136600000Y-203675000D03*
%TD*%
D30*
%TO.C,R129*%
X119400000Y-180574998D03*
X119400000Y-182224998D03*
%TD*%
D39*
%TO.C,Q7*%
X145462500Y-189250000D03*
X145462500Y-187350000D03*
X147337500Y-188300000D03*
%TD*%
D42*
%TO.C,R6*%
X119400000Y-185224998D03*
X119400000Y-183574998D03*
%TD*%
D31*
%TO.C,D9*%
X148150000Y-183000000D03*
X150650000Y-183000000D03*
%TD*%
D39*
%TO.C,Q5*%
X145462500Y-175650000D03*
X145462500Y-173750000D03*
X147337500Y-174700000D03*
%TD*%
M02*
