%TF.GenerationSoftware,KiCad,Pcbnew,9.0.5*%
%TF.CreationDate,2025-10-31T11:40:23-04:00*%
%TF.ProjectId,powerdist,706f7765-7264-4697-9374-2e6b69636164,v1*%
%TF.SameCoordinates,Original*%
%TF.FileFunction,Soldermask,Top*%
%TF.FilePolarity,Negative*%
%FSLAX46Y46*%
G04 Gerber Fmt 4.6, Leading zero omitted, Abs format (unit mm)*
G04 Created by KiCad (PCBNEW 9.0.5) date 2025-10-31 11:40:23*
%MOMM*%
%LPD*%
G01*
G04 APERTURE LIST*
G04 Aperture macros list*
%AMRoundRect*
0 Rectangle with rounded corners*
0 $1 Rounding radius*
0 $2 $3 $4 $5 $6 $7 $8 $9 X,Y pos of 4 corners*
0 Add a 4 corners polygon primitive as box body*
4,1,4,$2,$3,$4,$5,$6,$7,$8,$9,$2,$3,0*
0 Add four circle primitives for the rounded corners*
1,1,$1+$1,$2,$3*
1,1,$1+$1,$4,$5*
1,1,$1+$1,$6,$7*
1,1,$1+$1,$8,$9*
0 Add four rect primitives between the rounded corners*
20,1,$1+$1,$2,$3,$4,$5,0*
20,1,$1+$1,$4,$5,$6,$7,0*
20,1,$1+$1,$6,$7,$8,$9,0*
20,1,$1+$1,$8,$9,$2,$3,0*%
%AMFreePoly0*
4,1,17,2.675000,1.605000,1.875000,1.605000,1.875000,0.935000,2.675000,0.935000,2.675000,0.335000,1.875000,0.335000,1.875000,-0.335000,2.675000,-0.335000,2.675000,-0.935000,1.875000,-0.935000,1.875000,-1.605000,2.675000,-1.605000,2.675000,-2.205000,-1.875000,-2.205000,-1.875000,2.205000,2.675000,2.205000,2.675000,1.605000,2.675000,1.605000,$1*%
%AMFreePoly1*
4,1,21,1.372500,0.787500,0.862500,0.787500,0.862500,0.532500,1.372500,0.532500,1.372500,0.127500,0.862500,0.127500,0.862500,-0.127500,1.372500,-0.127500,1.372500,-0.532500,0.862500,-0.532500,0.862500,-0.787500,1.372500,-0.787500,1.372500,-1.195000,0.612500,-1.195000,0.612500,-1.117500,-0.862500,-1.117500,-0.862500,1.117500,0.612500,1.117500,0.612500,1.195000,1.372500,1.195000,
1.372500,0.787500,1.372500,0.787500,$1*%
G04 Aperture macros list end*
%ADD10C,0.010000*%
%ADD11C,0.000000*%
%ADD12C,2.159000*%
%ADD13RoundRect,0.200000X0.275000X-0.200000X0.275000X0.200000X-0.275000X0.200000X-0.275000X-0.200000X0*%
%ADD14RoundRect,0.200000X0.200000X0.275000X-0.200000X0.275000X-0.200000X-0.275000X0.200000X-0.275000X0*%
%ADD15R,3.300000X3.175000*%
%ADD16RoundRect,0.218750X0.218750X0.256250X-0.218750X0.256250X-0.218750X-0.256250X0.218750X-0.256250X0*%
%ADD17RoundRect,0.250000X0.650000X-0.325000X0.650000X0.325000X-0.650000X0.325000X-0.650000X-0.325000X0*%
%ADD18RoundRect,0.200000X-0.275000X0.200000X-0.275000X-0.200000X0.275000X-0.200000X0.275000X0.200000X0*%
%ADD19RoundRect,0.200000X-0.200000X-0.275000X0.200000X-0.275000X0.200000X0.275000X-0.200000X0.275000X0*%
%ADD20RoundRect,0.250000X0.312500X0.625000X-0.312500X0.625000X-0.312500X-0.625000X0.312500X-0.625000X0*%
%ADD21C,1.200000*%
%ADD22RoundRect,0.250000X-0.725000X0.600000X-0.725000X-0.600000X0.725000X-0.600000X0.725000X0.600000X0*%
%ADD23O,1.950000X1.700000*%
%ADD24RoundRect,0.225000X-0.250000X0.225000X-0.250000X-0.225000X0.250000X-0.225000X0.250000X0.225000X0*%
%ADD25C,2.700000*%
%ADD26RoundRect,0.250000X0.750000X-0.600000X0.750000X0.600000X-0.750000X0.600000X-0.750000X-0.600000X0*%
%ADD27O,2.000000X1.700000*%
%ADD28RoundRect,0.225000X-0.225000X-0.250000X0.225000X-0.250000X0.225000X0.250000X-0.225000X0.250000X0*%
%ADD29R,0.400000X1.100000*%
%ADD30R,9.500000X3.400000*%
%ADD31FreePoly0,90.000000*%
%ADD32RoundRect,0.125000X0.125000X-0.300000X0.125000X0.300000X-0.125000X0.300000X-0.125000X-0.300000X0*%
%ADD33RoundRect,0.250000X-0.650000X0.325000X-0.650000X-0.325000X0.650000X-0.325000X0.650000X0.325000X0*%
%ADD34RoundRect,0.225000X0.225000X0.250000X-0.225000X0.250000X-0.225000X-0.250000X0.225000X-0.250000X0*%
%ADD35RoundRect,0.225000X0.250000X-0.225000X0.250000X0.225000X-0.250000X0.225000X-0.250000X-0.225000X0*%
%ADD36RoundRect,0.250000X0.325000X0.650000X-0.325000X0.650000X-0.325000X-0.650000X0.325000X-0.650000X0*%
%ADD37RoundRect,0.150000X-0.587500X-0.150000X0.587500X-0.150000X0.587500X0.150000X-0.587500X0.150000X0*%
%ADD38R,1.700000X1.700000*%
%ADD39C,1.700000*%
%ADD40RoundRect,0.250000X0.600000X0.750000X-0.600000X0.750000X-0.600000X-0.750000X0.600000X-0.750000X0*%
%ADD41O,1.700000X2.000000*%
%ADD42RoundRect,0.225000X-0.375000X0.225000X-0.375000X-0.225000X0.375000X-0.225000X0.375000X0.225000X0*%
%ADD43RoundRect,0.250000X-0.625000X0.312500X-0.625000X-0.312500X0.625000X-0.312500X0.625000X0.312500X0*%
%ADD44R,0.990000X0.405000*%
%ADD45FreePoly1,0.000000*%
%ADD46RoundRect,0.250000X-0.450000X-0.450000X0.450000X-0.450000X0.450000X0.450000X-0.450000X0.450000X0*%
%ADD47C,1.400000*%
%ADD48RoundRect,0.225000X-0.225000X-0.375000X0.225000X-0.375000X0.225000X0.375000X-0.225000X0.375000X0*%
%ADD49RoundRect,0.317500X0.317500X-0.382500X0.317500X0.382500X-0.317500X0.382500X-0.317500X-0.382500X0*%
%ADD50R,4.720000X4.800000*%
%ADD51R,3.000000X3.000000*%
%ADD52C,3.000000*%
%ADD53R,0.405000X0.990000*%
%ADD54FreePoly1,270.000000*%
%ADD55O,2.200000X3.500000*%
%ADD56R,1.500000X2.500000*%
%ADD57O,1.500000X2.500000*%
%ADD58RoundRect,0.225000X0.375000X-0.225000X0.375000X0.225000X-0.375000X0.225000X-0.375000X-0.225000X0*%
%ADD59R,3.175000X3.300000*%
%ADD60RoundRect,0.150000X0.512500X0.150000X-0.512500X0.150000X-0.512500X-0.150000X0.512500X-0.150000X0*%
%ADD61R,1.460500X0.355600*%
%ADD62RoundRect,0.062500X-0.325000X-0.062500X0.325000X-0.062500X0.325000X0.062500X-0.325000X0.062500X0*%
%ADD63RoundRect,0.062500X-0.062500X-0.325000X0.062500X-0.325000X0.062500X0.325000X-0.062500X0.325000X0*%
%ADD64R,2.450000X2.450000*%
%ADD65RoundRect,0.113500X-0.288500X-0.113500X0.288500X-0.113500X0.288500X0.113500X-0.288500X0.113500X0*%
%ADD66RoundRect,0.113500X-0.113500X-0.288500X0.113500X-0.288500X0.113500X0.288500X-0.113500X0.288500X0*%
%ADD67RoundRect,0.113500X-0.113500X-0.838500X0.113500X-0.838500X0.113500X0.838500X-0.113500X0.838500X0*%
%ADD68RoundRect,0.151000X-0.151000X-1.001000X0.151000X-1.001000X0.151000X1.001000X-0.151000X1.001000X0*%
%ADD69RoundRect,0.250000X0.250000X0.250000X-0.250000X0.250000X-0.250000X-0.250000X0.250000X-0.250000X0*%
%ADD70RoundRect,0.250000X-0.250000X-0.250000X0.250000X-0.250000X0.250000X0.250000X-0.250000X0.250000X0*%
%ADD71FreePoly0,270.000000*%
%ADD72RoundRect,0.125000X-0.125000X0.300000X-0.125000X-0.300000X0.125000X-0.300000X0.125000X0.300000X0*%
%ADD73RoundRect,0.150000X0.587500X0.150000X-0.587500X0.150000X-0.587500X-0.150000X0.587500X-0.150000X0*%
%ADD74RoundRect,0.250000X0.450000X0.450000X-0.450000X0.450000X-0.450000X-0.450000X0.450000X-0.450000X0*%
%ADD75R,1.270000X0.610000*%
%ADD76R,3.810000X3.910000*%
%ADD77R,1.020000X0.610000*%
%ADD78FreePoly1,180.000000*%
%ADD79C,10.160000*%
%ADD80RoundRect,0.250000X-0.250000X0.250000X-0.250000X-0.250000X0.250000X-0.250000X0.250000X0.250000X0*%
%ADD81RoundRect,0.150000X-0.825000X-0.150000X0.825000X-0.150000X0.825000X0.150000X-0.825000X0.150000X0*%
%ADD82O,1.200000X0.399999*%
G04 APERTURE END LIST*
D10*
%TO.C,U11*%
X111816000Y-180601000D02*
X111823000Y-180602000D01*
X111831000Y-180603000D01*
X111839000Y-180605000D01*
X111846000Y-180607000D01*
X111854000Y-180610000D01*
X111861000Y-180613000D01*
X111868000Y-180616000D01*
X111875000Y-180620000D01*
X111882000Y-180624000D01*
X111888000Y-180629000D01*
X111894000Y-180633000D01*
X111900000Y-180639000D01*
X111906000Y-180644000D01*
X111911000Y-180650000D01*
X111917000Y-180656000D01*
X111921000Y-180662000D01*
X111926000Y-180668000D01*
X111930000Y-180675000D01*
X111934000Y-180682000D01*
X111937000Y-180689000D01*
X111940000Y-180696000D01*
X111943000Y-180704000D01*
X111945000Y-180711000D01*
X111947000Y-180719000D01*
X111948000Y-180727000D01*
X111949000Y-180734000D01*
X111950000Y-180742000D01*
X111950000Y-180750000D01*
X111950000Y-181425000D01*
X112360000Y-181425000D01*
X112368000Y-181425000D01*
X112376000Y-181426000D01*
X112383000Y-181427000D01*
X112391000Y-181428000D01*
X112399000Y-181430000D01*
X112406000Y-181432000D01*
X112414000Y-181435000D01*
X112421000Y-181438000D01*
X112428000Y-181441000D01*
X112435000Y-181445000D01*
X112442000Y-181449000D01*
X112448000Y-181454000D01*
X112454000Y-181458000D01*
X112460000Y-181464000D01*
X112466000Y-181469000D01*
X112471000Y-181475000D01*
X112477000Y-181481000D01*
X112481000Y-181487000D01*
X112486000Y-181493000D01*
X112490000Y-181500000D01*
X112494000Y-181507000D01*
X112497000Y-181514000D01*
X112500000Y-181521000D01*
X112503000Y-181529000D01*
X112505000Y-181536000D01*
X112507000Y-181544000D01*
X112508000Y-181552000D01*
X112509000Y-181559000D01*
X112510000Y-181567000D01*
X112510000Y-181575000D01*
X112510000Y-181725000D01*
X112510000Y-181733000D01*
X112509000Y-181741000D01*
X112508000Y-181748000D01*
X112507000Y-181756000D01*
X112505000Y-181764000D01*
X112503000Y-181771000D01*
X112500000Y-181779000D01*
X112497000Y-181786000D01*
X112494000Y-181793000D01*
X112490000Y-181800000D01*
X112486000Y-181807000D01*
X112481000Y-181813000D01*
X112477000Y-181819000D01*
X112471000Y-181825000D01*
X112466000Y-181831000D01*
X112460000Y-181836000D01*
X112454000Y-181842000D01*
X112448000Y-181846000D01*
X112442000Y-181851000D01*
X112435000Y-181855000D01*
X112428000Y-181859000D01*
X112421000Y-181862000D01*
X112414000Y-181865000D01*
X112406000Y-181868000D01*
X112399000Y-181870000D01*
X112391000Y-181872000D01*
X112383000Y-181873000D01*
X112376000Y-181874000D01*
X112368000Y-181875000D01*
X112360000Y-181875000D01*
X111950000Y-181875000D01*
X111950000Y-181925000D01*
X112360000Y-181925000D01*
X112368000Y-181925000D01*
X112376000Y-181926000D01*
X112383000Y-181927000D01*
X112391000Y-181928000D01*
X112399000Y-181930000D01*
X112406000Y-181932000D01*
X112414000Y-181935000D01*
X112421000Y-181938000D01*
X112428000Y-181941000D01*
X112435000Y-181945000D01*
X112442000Y-181949000D01*
X112448000Y-181954000D01*
X112454000Y-181958000D01*
X112460000Y-181964000D01*
X112466000Y-181969000D01*
X112471000Y-181975000D01*
X112477000Y-181981000D01*
X112481000Y-181987000D01*
X112486000Y-181993000D01*
X112490000Y-182000000D01*
X112494000Y-182007000D01*
X112497000Y-182014000D01*
X112500000Y-182021000D01*
X112503000Y-182029000D01*
X112505000Y-182036000D01*
X112507000Y-182044000D01*
X112508000Y-182052000D01*
X112509000Y-182059000D01*
X112510000Y-182067000D01*
X112510000Y-182075000D01*
X112510000Y-182225000D01*
X112510000Y-182233000D01*
X112509000Y-182241000D01*
X112508000Y-182248000D01*
X112507000Y-182256000D01*
X112505000Y-182264000D01*
X112503000Y-182271000D01*
X112500000Y-182279000D01*
X112497000Y-182286000D01*
X112494000Y-182293000D01*
X112490000Y-182300000D01*
X112486000Y-182307000D01*
X112481000Y-182313000D01*
X112477000Y-182319000D01*
X112471000Y-182325000D01*
X112466000Y-182331000D01*
X112460000Y-182336000D01*
X112454000Y-182342000D01*
X112448000Y-182346000D01*
X112442000Y-182351000D01*
X112435000Y-182355000D01*
X112428000Y-182359000D01*
X112421000Y-182362000D01*
X112414000Y-182365000D01*
X112406000Y-182368000D01*
X112399000Y-182370000D01*
X112391000Y-182372000D01*
X112383000Y-182373000D01*
X112376000Y-182374000D01*
X112368000Y-182375000D01*
X112360000Y-182375000D01*
X111950000Y-182375000D01*
X111950000Y-182425000D01*
X112360000Y-182425000D01*
X112367000Y-182426000D01*
X112376000Y-182427000D01*
X112384000Y-182429000D01*
X112392000Y-182431000D01*
X112401000Y-182433000D01*
X112409000Y-182436000D01*
X112416000Y-182440000D01*
X112424000Y-182444000D01*
X112431000Y-182448000D01*
X112439000Y-182452000D01*
X112446000Y-182457000D01*
X112452000Y-182463000D01*
X112459000Y-182468000D01*
X112465000Y-182474000D01*
X112471000Y-182481000D01*
X112476000Y-182487000D01*
X112481000Y-182494000D01*
X112486000Y-182501000D01*
X112490000Y-182508000D01*
X112494000Y-182516000D01*
X112498000Y-182524000D01*
X112501000Y-182532000D01*
X112503000Y-182540000D01*
X112506000Y-182548000D01*
X112507000Y-182556000D01*
X112509000Y-182565000D01*
X112510000Y-182573000D01*
X112510000Y-182582000D01*
X112510000Y-182590000D01*
X112510000Y-182600000D01*
X112510000Y-182700000D01*
X112510000Y-182710000D01*
X112510000Y-182718000D01*
X112510000Y-182727000D01*
X112509000Y-182735000D01*
X112507000Y-182744000D01*
X112506000Y-182752000D01*
X112503000Y-182760000D01*
X112501000Y-182768000D01*
X112498000Y-182776000D01*
X112494000Y-182784000D01*
X112490000Y-182792000D01*
X112486000Y-182799000D01*
X112481000Y-182806000D01*
X112476000Y-182813000D01*
X112471000Y-182819000D01*
X112465000Y-182826000D01*
X112459000Y-182832000D01*
X112452000Y-182837000D01*
X112446000Y-182843000D01*
X112439000Y-182848000D01*
X112431000Y-182852000D01*
X112424000Y-182856000D01*
X112416000Y-182860000D01*
X112409000Y-182864000D01*
X112401000Y-182867000D01*
X112392000Y-182869000D01*
X112384000Y-182871000D01*
X112376000Y-182873000D01*
X112367000Y-182874000D01*
X112360000Y-182875000D01*
X111950000Y-182875000D01*
X111950000Y-182900000D01*
X111500000Y-182900000D01*
X111492000Y-182900000D01*
X111484000Y-182899000D01*
X111477000Y-182898000D01*
X111469000Y-182897000D01*
X111461000Y-182895000D01*
X111454000Y-182893000D01*
X111446000Y-182890000D01*
X111439000Y-182887000D01*
X111432000Y-182884000D01*
X111425000Y-182880000D01*
X111418000Y-182876000D01*
X111412000Y-182871000D01*
X111406000Y-182867000D01*
X111400000Y-182861000D01*
X111394000Y-182856000D01*
X111389000Y-182850000D01*
X111383000Y-182844000D01*
X111379000Y-182838000D01*
X111374000Y-182832000D01*
X111370000Y-182825000D01*
X111366000Y-182818000D01*
X111363000Y-182811000D01*
X111360000Y-182804000D01*
X111357000Y-182796000D01*
X111355000Y-182789000D01*
X111353000Y-182781000D01*
X111352000Y-182773000D01*
X111351000Y-182766000D01*
X111350000Y-182758000D01*
X111350000Y-182750000D01*
X111350000Y-180750000D01*
X111350000Y-180742000D01*
X111351000Y-180734000D01*
X111352000Y-180727000D01*
X111353000Y-180719000D01*
X111355000Y-180711000D01*
X111357000Y-180704000D01*
X111360000Y-180696000D01*
X111363000Y-180689000D01*
X111366000Y-180682000D01*
X111370000Y-180675000D01*
X111374000Y-180668000D01*
X111379000Y-180662000D01*
X111383000Y-180656000D01*
X111389000Y-180650000D01*
X111394000Y-180644000D01*
X111400000Y-180639000D01*
X111406000Y-180633000D01*
X111412000Y-180629000D01*
X111418000Y-180624000D01*
X111425000Y-180620000D01*
X111432000Y-180616000D01*
X111439000Y-180613000D01*
X111446000Y-180610000D01*
X111454000Y-180607000D01*
X111461000Y-180605000D01*
X111469000Y-180603000D01*
X111477000Y-180602000D01*
X111484000Y-180601000D01*
X111492000Y-180600000D01*
X111500000Y-180600000D01*
X111800000Y-180600000D01*
X111808000Y-180600000D01*
X111816000Y-180601000D01*
G36*
X111816000Y-180601000D02*
G01*
X111823000Y-180602000D01*
X111831000Y-180603000D01*
X111839000Y-180605000D01*
X111846000Y-180607000D01*
X111854000Y-180610000D01*
X111861000Y-180613000D01*
X111868000Y-180616000D01*
X111875000Y-180620000D01*
X111882000Y-180624000D01*
X111888000Y-180629000D01*
X111894000Y-180633000D01*
X111900000Y-180639000D01*
X111906000Y-180644000D01*
X111911000Y-180650000D01*
X111917000Y-180656000D01*
X111921000Y-180662000D01*
X111926000Y-180668000D01*
X111930000Y-180675000D01*
X111934000Y-180682000D01*
X111937000Y-180689000D01*
X111940000Y-180696000D01*
X111943000Y-180704000D01*
X111945000Y-180711000D01*
X111947000Y-180719000D01*
X111948000Y-180727000D01*
X111949000Y-180734000D01*
X111950000Y-180742000D01*
X111950000Y-180750000D01*
X111950000Y-181425000D01*
X112360000Y-181425000D01*
X112368000Y-181425000D01*
X112376000Y-181426000D01*
X112383000Y-181427000D01*
X112391000Y-181428000D01*
X112399000Y-181430000D01*
X112406000Y-181432000D01*
X112414000Y-181435000D01*
X112421000Y-181438000D01*
X112428000Y-181441000D01*
X112435000Y-181445000D01*
X112442000Y-181449000D01*
X112448000Y-181454000D01*
X112454000Y-181458000D01*
X112460000Y-181464000D01*
X112466000Y-181469000D01*
X112471000Y-181475000D01*
X112477000Y-181481000D01*
X112481000Y-181487000D01*
X112486000Y-181493000D01*
X112490000Y-181500000D01*
X112494000Y-181507000D01*
X112497000Y-181514000D01*
X112500000Y-181521000D01*
X112503000Y-181529000D01*
X112505000Y-181536000D01*
X112507000Y-181544000D01*
X112508000Y-181552000D01*
X112509000Y-181559000D01*
X112510000Y-181567000D01*
X112510000Y-181575000D01*
X112510000Y-181725000D01*
X112510000Y-181733000D01*
X112509000Y-181741000D01*
X112508000Y-181748000D01*
X112507000Y-181756000D01*
X112505000Y-181764000D01*
X112503000Y-181771000D01*
X112500000Y-181779000D01*
X112497000Y-181786000D01*
X112494000Y-181793000D01*
X112490000Y-181800000D01*
X112486000Y-181807000D01*
X112481000Y-181813000D01*
X112477000Y-181819000D01*
X112471000Y-181825000D01*
X112466000Y-181831000D01*
X112460000Y-181836000D01*
X112454000Y-181842000D01*
X112448000Y-181846000D01*
X112442000Y-181851000D01*
X112435000Y-181855000D01*
X112428000Y-181859000D01*
X112421000Y-181862000D01*
X112414000Y-181865000D01*
X112406000Y-181868000D01*
X112399000Y-181870000D01*
X112391000Y-181872000D01*
X112383000Y-181873000D01*
X112376000Y-181874000D01*
X112368000Y-181875000D01*
X112360000Y-181875000D01*
X111950000Y-181875000D01*
X111950000Y-181925000D01*
X112360000Y-181925000D01*
X112368000Y-181925000D01*
X112376000Y-181926000D01*
X112383000Y-181927000D01*
X112391000Y-181928000D01*
X112399000Y-181930000D01*
X112406000Y-181932000D01*
X112414000Y-181935000D01*
X112421000Y-181938000D01*
X112428000Y-181941000D01*
X112435000Y-181945000D01*
X112442000Y-181949000D01*
X112448000Y-181954000D01*
X112454000Y-181958000D01*
X112460000Y-181964000D01*
X112466000Y-181969000D01*
X112471000Y-181975000D01*
X112477000Y-181981000D01*
X112481000Y-181987000D01*
X112486000Y-181993000D01*
X112490000Y-182000000D01*
X112494000Y-182007000D01*
X112497000Y-182014000D01*
X112500000Y-182021000D01*
X112503000Y-182029000D01*
X112505000Y-182036000D01*
X112507000Y-182044000D01*
X112508000Y-182052000D01*
X112509000Y-182059000D01*
X112510000Y-182067000D01*
X112510000Y-182075000D01*
X112510000Y-182225000D01*
X112510000Y-182233000D01*
X112509000Y-182241000D01*
X112508000Y-182248000D01*
X112507000Y-182256000D01*
X112505000Y-182264000D01*
X112503000Y-182271000D01*
X112500000Y-182279000D01*
X112497000Y-182286000D01*
X112494000Y-182293000D01*
X112490000Y-182300000D01*
X112486000Y-182307000D01*
X112481000Y-182313000D01*
X112477000Y-182319000D01*
X112471000Y-182325000D01*
X112466000Y-182331000D01*
X112460000Y-182336000D01*
X112454000Y-182342000D01*
X112448000Y-182346000D01*
X112442000Y-182351000D01*
X112435000Y-182355000D01*
X112428000Y-182359000D01*
X112421000Y-182362000D01*
X112414000Y-182365000D01*
X112406000Y-182368000D01*
X112399000Y-182370000D01*
X112391000Y-182372000D01*
X112383000Y-182373000D01*
X112376000Y-182374000D01*
X112368000Y-182375000D01*
X112360000Y-182375000D01*
X111950000Y-182375000D01*
X111950000Y-182425000D01*
X112360000Y-182425000D01*
X112367000Y-182426000D01*
X112376000Y-182427000D01*
X112384000Y-182429000D01*
X112392000Y-182431000D01*
X112401000Y-182433000D01*
X112409000Y-182436000D01*
X112416000Y-182440000D01*
X112424000Y-182444000D01*
X112431000Y-182448000D01*
X112439000Y-182452000D01*
X112446000Y-182457000D01*
X112452000Y-182463000D01*
X112459000Y-182468000D01*
X112465000Y-182474000D01*
X112471000Y-182481000D01*
X112476000Y-182487000D01*
X112481000Y-182494000D01*
X112486000Y-182501000D01*
X112490000Y-182508000D01*
X112494000Y-182516000D01*
X112498000Y-182524000D01*
X112501000Y-182532000D01*
X112503000Y-182540000D01*
X112506000Y-182548000D01*
X112507000Y-182556000D01*
X112509000Y-182565000D01*
X112510000Y-182573000D01*
X112510000Y-182582000D01*
X112510000Y-182590000D01*
X112510000Y-182600000D01*
X112510000Y-182700000D01*
X112510000Y-182710000D01*
X112510000Y-182718000D01*
X112510000Y-182727000D01*
X112509000Y-182735000D01*
X112507000Y-182744000D01*
X112506000Y-182752000D01*
X112503000Y-182760000D01*
X112501000Y-182768000D01*
X112498000Y-182776000D01*
X112494000Y-182784000D01*
X112490000Y-182792000D01*
X112486000Y-182799000D01*
X112481000Y-182806000D01*
X112476000Y-182813000D01*
X112471000Y-182819000D01*
X112465000Y-182826000D01*
X112459000Y-182832000D01*
X112452000Y-182837000D01*
X112446000Y-182843000D01*
X112439000Y-182848000D01*
X112431000Y-182852000D01*
X112424000Y-182856000D01*
X112416000Y-182860000D01*
X112409000Y-182864000D01*
X112401000Y-182867000D01*
X112392000Y-182869000D01*
X112384000Y-182871000D01*
X112376000Y-182873000D01*
X112367000Y-182874000D01*
X112360000Y-182875000D01*
X111950000Y-182875000D01*
X111950000Y-182900000D01*
X111500000Y-182900000D01*
X111492000Y-182900000D01*
X111484000Y-182899000D01*
X111477000Y-182898000D01*
X111469000Y-182897000D01*
X111461000Y-182895000D01*
X111454000Y-182893000D01*
X111446000Y-182890000D01*
X111439000Y-182887000D01*
X111432000Y-182884000D01*
X111425000Y-182880000D01*
X111418000Y-182876000D01*
X111412000Y-182871000D01*
X111406000Y-182867000D01*
X111400000Y-182861000D01*
X111394000Y-182856000D01*
X111389000Y-182850000D01*
X111383000Y-182844000D01*
X111379000Y-182838000D01*
X111374000Y-182832000D01*
X111370000Y-182825000D01*
X111366000Y-182818000D01*
X111363000Y-182811000D01*
X111360000Y-182804000D01*
X111357000Y-182796000D01*
X111355000Y-182789000D01*
X111353000Y-182781000D01*
X111352000Y-182773000D01*
X111351000Y-182766000D01*
X111350000Y-182758000D01*
X111350000Y-182750000D01*
X111350000Y-180750000D01*
X111350000Y-180742000D01*
X111351000Y-180734000D01*
X111352000Y-180727000D01*
X111353000Y-180719000D01*
X111355000Y-180711000D01*
X111357000Y-180704000D01*
X111360000Y-180696000D01*
X111363000Y-180689000D01*
X111366000Y-180682000D01*
X111370000Y-180675000D01*
X111374000Y-180668000D01*
X111379000Y-180662000D01*
X111383000Y-180656000D01*
X111389000Y-180650000D01*
X111394000Y-180644000D01*
X111400000Y-180639000D01*
X111406000Y-180633000D01*
X111412000Y-180629000D01*
X111418000Y-180624000D01*
X111425000Y-180620000D01*
X111432000Y-180616000D01*
X111439000Y-180613000D01*
X111446000Y-180610000D01*
X111454000Y-180607000D01*
X111461000Y-180605000D01*
X111469000Y-180603000D01*
X111477000Y-180602000D01*
X111484000Y-180601000D01*
X111492000Y-180600000D01*
X111500000Y-180600000D01*
X111800000Y-180600000D01*
X111808000Y-180600000D01*
X111816000Y-180601000D01*
G37*
%TO.C,U10*%
X125016000Y-180601000D02*
X125023000Y-180602000D01*
X125031000Y-180603000D01*
X125039000Y-180605000D01*
X125046000Y-180607000D01*
X125054000Y-180610000D01*
X125061000Y-180613000D01*
X125068000Y-180616000D01*
X125075000Y-180620000D01*
X125082000Y-180624000D01*
X125088000Y-180629000D01*
X125094000Y-180633000D01*
X125100000Y-180639000D01*
X125106000Y-180644000D01*
X125111000Y-180650000D01*
X125117000Y-180656000D01*
X125121000Y-180662000D01*
X125126000Y-180668000D01*
X125130000Y-180675000D01*
X125134000Y-180682000D01*
X125137000Y-180689000D01*
X125140000Y-180696000D01*
X125143000Y-180704000D01*
X125145000Y-180711000D01*
X125147000Y-180719000D01*
X125148000Y-180727000D01*
X125149000Y-180734000D01*
X125150000Y-180742000D01*
X125150000Y-180750000D01*
X125150000Y-181425000D01*
X125560000Y-181425000D01*
X125568000Y-181425000D01*
X125576000Y-181426000D01*
X125583000Y-181427000D01*
X125591000Y-181428000D01*
X125599000Y-181430000D01*
X125606000Y-181432000D01*
X125614000Y-181435000D01*
X125621000Y-181438000D01*
X125628000Y-181441000D01*
X125635000Y-181445000D01*
X125642000Y-181449000D01*
X125648000Y-181454000D01*
X125654000Y-181458000D01*
X125660000Y-181464000D01*
X125666000Y-181469000D01*
X125671000Y-181475000D01*
X125677000Y-181481000D01*
X125681000Y-181487000D01*
X125686000Y-181493000D01*
X125690000Y-181500000D01*
X125694000Y-181507000D01*
X125697000Y-181514000D01*
X125700000Y-181521000D01*
X125703000Y-181529000D01*
X125705000Y-181536000D01*
X125707000Y-181544000D01*
X125708000Y-181552000D01*
X125709000Y-181559000D01*
X125710000Y-181567000D01*
X125710000Y-181575000D01*
X125710000Y-181725000D01*
X125710000Y-181733000D01*
X125709000Y-181741000D01*
X125708000Y-181748000D01*
X125707000Y-181756000D01*
X125705000Y-181764000D01*
X125703000Y-181771000D01*
X125700000Y-181779000D01*
X125697000Y-181786000D01*
X125694000Y-181793000D01*
X125690000Y-181800000D01*
X125686000Y-181807000D01*
X125681000Y-181813000D01*
X125677000Y-181819000D01*
X125671000Y-181825000D01*
X125666000Y-181831000D01*
X125660000Y-181836000D01*
X125654000Y-181842000D01*
X125648000Y-181846000D01*
X125642000Y-181851000D01*
X125635000Y-181855000D01*
X125628000Y-181859000D01*
X125621000Y-181862000D01*
X125614000Y-181865000D01*
X125606000Y-181868000D01*
X125599000Y-181870000D01*
X125591000Y-181872000D01*
X125583000Y-181873000D01*
X125576000Y-181874000D01*
X125568000Y-181875000D01*
X125560000Y-181875000D01*
X125150000Y-181875000D01*
X125150000Y-181925000D01*
X125560000Y-181925000D01*
X125568000Y-181925000D01*
X125576000Y-181926000D01*
X125583000Y-181927000D01*
X125591000Y-181928000D01*
X125599000Y-181930000D01*
X125606000Y-181932000D01*
X125614000Y-181935000D01*
X125621000Y-181938000D01*
X125628000Y-181941000D01*
X125635000Y-181945000D01*
X125642000Y-181949000D01*
X125648000Y-181954000D01*
X125654000Y-181958000D01*
X125660000Y-181964000D01*
X125666000Y-181969000D01*
X125671000Y-181975000D01*
X125677000Y-181981000D01*
X125681000Y-181987000D01*
X125686000Y-181993000D01*
X125690000Y-182000000D01*
X125694000Y-182007000D01*
X125697000Y-182014000D01*
X125700000Y-182021000D01*
X125703000Y-182029000D01*
X125705000Y-182036000D01*
X125707000Y-182044000D01*
X125708000Y-182052000D01*
X125709000Y-182059000D01*
X125710000Y-182067000D01*
X125710000Y-182075000D01*
X125710000Y-182225000D01*
X125710000Y-182233000D01*
X125709000Y-182241000D01*
X125708000Y-182248000D01*
X125707000Y-182256000D01*
X125705000Y-182264000D01*
X125703000Y-182271000D01*
X125700000Y-182279000D01*
X125697000Y-182286000D01*
X125694000Y-182293000D01*
X125690000Y-182300000D01*
X125686000Y-182307000D01*
X125681000Y-182313000D01*
X125677000Y-182319000D01*
X125671000Y-182325000D01*
X125666000Y-182331000D01*
X125660000Y-182336000D01*
X125654000Y-182342000D01*
X125648000Y-182346000D01*
X125642000Y-182351000D01*
X125635000Y-182355000D01*
X125628000Y-182359000D01*
X125621000Y-182362000D01*
X125614000Y-182365000D01*
X125606000Y-182368000D01*
X125599000Y-182370000D01*
X125591000Y-182372000D01*
X125583000Y-182373000D01*
X125576000Y-182374000D01*
X125568000Y-182375000D01*
X125560000Y-182375000D01*
X125150000Y-182375000D01*
X125150000Y-182425000D01*
X125560000Y-182425000D01*
X125567000Y-182426000D01*
X125576000Y-182427000D01*
X125584000Y-182429000D01*
X125592000Y-182431000D01*
X125601000Y-182433000D01*
X125609000Y-182436000D01*
X125616000Y-182440000D01*
X125624000Y-182444000D01*
X125631000Y-182448000D01*
X125639000Y-182452000D01*
X125646000Y-182457000D01*
X125652000Y-182463000D01*
X125659000Y-182468000D01*
X125665000Y-182474000D01*
X125671000Y-182481000D01*
X125676000Y-182487000D01*
X125681000Y-182494000D01*
X125686000Y-182501000D01*
X125690000Y-182508000D01*
X125694000Y-182516000D01*
X125698000Y-182524000D01*
X125701000Y-182532000D01*
X125703000Y-182540000D01*
X125706000Y-182548000D01*
X125707000Y-182556000D01*
X125709000Y-182565000D01*
X125710000Y-182573000D01*
X125710000Y-182582000D01*
X125710000Y-182590000D01*
X125710000Y-182600000D01*
X125710000Y-182700000D01*
X125710000Y-182710000D01*
X125710000Y-182718000D01*
X125710000Y-182727000D01*
X125709000Y-182735000D01*
X125707000Y-182744000D01*
X125706000Y-182752000D01*
X125703000Y-182760000D01*
X125701000Y-182768000D01*
X125698000Y-182776000D01*
X125694000Y-182784000D01*
X125690000Y-182792000D01*
X125686000Y-182799000D01*
X125681000Y-182806000D01*
X125676000Y-182813000D01*
X125671000Y-182819000D01*
X125665000Y-182826000D01*
X125659000Y-182832000D01*
X125652000Y-182837000D01*
X125646000Y-182843000D01*
X125639000Y-182848000D01*
X125631000Y-182852000D01*
X125624000Y-182856000D01*
X125616000Y-182860000D01*
X125609000Y-182864000D01*
X125601000Y-182867000D01*
X125592000Y-182869000D01*
X125584000Y-182871000D01*
X125576000Y-182873000D01*
X125567000Y-182874000D01*
X125560000Y-182875000D01*
X125150000Y-182875000D01*
X125150000Y-182900000D01*
X124700000Y-182900000D01*
X124692000Y-182900000D01*
X124684000Y-182899000D01*
X124677000Y-182898000D01*
X124669000Y-182897000D01*
X124661000Y-182895000D01*
X124654000Y-182893000D01*
X124646000Y-182890000D01*
X124639000Y-182887000D01*
X124632000Y-182884000D01*
X124625000Y-182880000D01*
X124618000Y-182876000D01*
X124612000Y-182871000D01*
X124606000Y-182867000D01*
X124600000Y-182861000D01*
X124594000Y-182856000D01*
X124589000Y-182850000D01*
X124583000Y-182844000D01*
X124579000Y-182838000D01*
X124574000Y-182832000D01*
X124570000Y-182825000D01*
X124566000Y-182818000D01*
X124563000Y-182811000D01*
X124560000Y-182804000D01*
X124557000Y-182796000D01*
X124555000Y-182789000D01*
X124553000Y-182781000D01*
X124552000Y-182773000D01*
X124551000Y-182766000D01*
X124550000Y-182758000D01*
X124550000Y-182750000D01*
X124550000Y-180750000D01*
X124550000Y-180742000D01*
X124551000Y-180734000D01*
X124552000Y-180727000D01*
X124553000Y-180719000D01*
X124555000Y-180711000D01*
X124557000Y-180704000D01*
X124560000Y-180696000D01*
X124563000Y-180689000D01*
X124566000Y-180682000D01*
X124570000Y-180675000D01*
X124574000Y-180668000D01*
X124579000Y-180662000D01*
X124583000Y-180656000D01*
X124589000Y-180650000D01*
X124594000Y-180644000D01*
X124600000Y-180639000D01*
X124606000Y-180633000D01*
X124612000Y-180629000D01*
X124618000Y-180624000D01*
X124625000Y-180620000D01*
X124632000Y-180616000D01*
X124639000Y-180613000D01*
X124646000Y-180610000D01*
X124654000Y-180607000D01*
X124661000Y-180605000D01*
X124669000Y-180603000D01*
X124677000Y-180602000D01*
X124684000Y-180601000D01*
X124692000Y-180600000D01*
X124700000Y-180600000D01*
X125000000Y-180600000D01*
X125008000Y-180600000D01*
X125016000Y-180601000D01*
G36*
X125016000Y-180601000D02*
G01*
X125023000Y-180602000D01*
X125031000Y-180603000D01*
X125039000Y-180605000D01*
X125046000Y-180607000D01*
X125054000Y-180610000D01*
X125061000Y-180613000D01*
X125068000Y-180616000D01*
X125075000Y-180620000D01*
X125082000Y-180624000D01*
X125088000Y-180629000D01*
X125094000Y-180633000D01*
X125100000Y-180639000D01*
X125106000Y-180644000D01*
X125111000Y-180650000D01*
X125117000Y-180656000D01*
X125121000Y-180662000D01*
X125126000Y-180668000D01*
X125130000Y-180675000D01*
X125134000Y-180682000D01*
X125137000Y-180689000D01*
X125140000Y-180696000D01*
X125143000Y-180704000D01*
X125145000Y-180711000D01*
X125147000Y-180719000D01*
X125148000Y-180727000D01*
X125149000Y-180734000D01*
X125150000Y-180742000D01*
X125150000Y-180750000D01*
X125150000Y-181425000D01*
X125560000Y-181425000D01*
X125568000Y-181425000D01*
X125576000Y-181426000D01*
X125583000Y-181427000D01*
X125591000Y-181428000D01*
X125599000Y-181430000D01*
X125606000Y-181432000D01*
X125614000Y-181435000D01*
X125621000Y-181438000D01*
X125628000Y-181441000D01*
X125635000Y-181445000D01*
X125642000Y-181449000D01*
X125648000Y-181454000D01*
X125654000Y-181458000D01*
X125660000Y-181464000D01*
X125666000Y-181469000D01*
X125671000Y-181475000D01*
X125677000Y-181481000D01*
X125681000Y-181487000D01*
X125686000Y-181493000D01*
X125690000Y-181500000D01*
X125694000Y-181507000D01*
X125697000Y-181514000D01*
X125700000Y-181521000D01*
X125703000Y-181529000D01*
X125705000Y-181536000D01*
X125707000Y-181544000D01*
X125708000Y-181552000D01*
X125709000Y-181559000D01*
X125710000Y-181567000D01*
X125710000Y-181575000D01*
X125710000Y-181725000D01*
X125710000Y-181733000D01*
X125709000Y-181741000D01*
X125708000Y-181748000D01*
X125707000Y-181756000D01*
X125705000Y-181764000D01*
X125703000Y-181771000D01*
X125700000Y-181779000D01*
X125697000Y-181786000D01*
X125694000Y-181793000D01*
X125690000Y-181800000D01*
X125686000Y-181807000D01*
X125681000Y-181813000D01*
X125677000Y-181819000D01*
X125671000Y-181825000D01*
X125666000Y-181831000D01*
X125660000Y-181836000D01*
X125654000Y-181842000D01*
X125648000Y-181846000D01*
X125642000Y-181851000D01*
X125635000Y-181855000D01*
X125628000Y-181859000D01*
X125621000Y-181862000D01*
X125614000Y-181865000D01*
X125606000Y-181868000D01*
X125599000Y-181870000D01*
X125591000Y-181872000D01*
X125583000Y-181873000D01*
X125576000Y-181874000D01*
X125568000Y-181875000D01*
X125560000Y-181875000D01*
X125150000Y-181875000D01*
X125150000Y-181925000D01*
X125560000Y-181925000D01*
X125568000Y-181925000D01*
X125576000Y-181926000D01*
X125583000Y-181927000D01*
X125591000Y-181928000D01*
X125599000Y-181930000D01*
X125606000Y-181932000D01*
X125614000Y-181935000D01*
X125621000Y-181938000D01*
X125628000Y-181941000D01*
X125635000Y-181945000D01*
X125642000Y-181949000D01*
X125648000Y-181954000D01*
X125654000Y-181958000D01*
X125660000Y-181964000D01*
X125666000Y-181969000D01*
X125671000Y-181975000D01*
X125677000Y-181981000D01*
X125681000Y-181987000D01*
X125686000Y-181993000D01*
X125690000Y-182000000D01*
X125694000Y-182007000D01*
X125697000Y-182014000D01*
X125700000Y-182021000D01*
X125703000Y-182029000D01*
X125705000Y-182036000D01*
X125707000Y-182044000D01*
X125708000Y-182052000D01*
X125709000Y-182059000D01*
X125710000Y-182067000D01*
X125710000Y-182075000D01*
X125710000Y-182225000D01*
X125710000Y-182233000D01*
X125709000Y-182241000D01*
X125708000Y-182248000D01*
X125707000Y-182256000D01*
X125705000Y-182264000D01*
X125703000Y-182271000D01*
X125700000Y-182279000D01*
X125697000Y-182286000D01*
X125694000Y-182293000D01*
X125690000Y-182300000D01*
X125686000Y-182307000D01*
X125681000Y-182313000D01*
X125677000Y-182319000D01*
X125671000Y-182325000D01*
X125666000Y-182331000D01*
X125660000Y-182336000D01*
X125654000Y-182342000D01*
X125648000Y-182346000D01*
X125642000Y-182351000D01*
X125635000Y-182355000D01*
X125628000Y-182359000D01*
X125621000Y-182362000D01*
X125614000Y-182365000D01*
X125606000Y-182368000D01*
X125599000Y-182370000D01*
X125591000Y-182372000D01*
X125583000Y-182373000D01*
X125576000Y-182374000D01*
X125568000Y-182375000D01*
X125560000Y-182375000D01*
X125150000Y-182375000D01*
X125150000Y-182425000D01*
X125560000Y-182425000D01*
X125567000Y-182426000D01*
X125576000Y-182427000D01*
X125584000Y-182429000D01*
X125592000Y-182431000D01*
X125601000Y-182433000D01*
X125609000Y-182436000D01*
X125616000Y-182440000D01*
X125624000Y-182444000D01*
X125631000Y-182448000D01*
X125639000Y-182452000D01*
X125646000Y-182457000D01*
X125652000Y-182463000D01*
X125659000Y-182468000D01*
X125665000Y-182474000D01*
X125671000Y-182481000D01*
X125676000Y-182487000D01*
X125681000Y-182494000D01*
X125686000Y-182501000D01*
X125690000Y-182508000D01*
X125694000Y-182516000D01*
X125698000Y-182524000D01*
X125701000Y-182532000D01*
X125703000Y-182540000D01*
X125706000Y-182548000D01*
X125707000Y-182556000D01*
X125709000Y-182565000D01*
X125710000Y-182573000D01*
X125710000Y-182582000D01*
X125710000Y-182590000D01*
X125710000Y-182600000D01*
X125710000Y-182700000D01*
X125710000Y-182710000D01*
X125710000Y-182718000D01*
X125710000Y-182727000D01*
X125709000Y-182735000D01*
X125707000Y-182744000D01*
X125706000Y-182752000D01*
X125703000Y-182760000D01*
X125701000Y-182768000D01*
X125698000Y-182776000D01*
X125694000Y-182784000D01*
X125690000Y-182792000D01*
X125686000Y-182799000D01*
X125681000Y-182806000D01*
X125676000Y-182813000D01*
X125671000Y-182819000D01*
X125665000Y-182826000D01*
X125659000Y-182832000D01*
X125652000Y-182837000D01*
X125646000Y-182843000D01*
X125639000Y-182848000D01*
X125631000Y-182852000D01*
X125624000Y-182856000D01*
X125616000Y-182860000D01*
X125609000Y-182864000D01*
X125601000Y-182867000D01*
X125592000Y-182869000D01*
X125584000Y-182871000D01*
X125576000Y-182873000D01*
X125567000Y-182874000D01*
X125560000Y-182875000D01*
X125150000Y-182875000D01*
X125150000Y-182900000D01*
X124700000Y-182900000D01*
X124692000Y-182900000D01*
X124684000Y-182899000D01*
X124677000Y-182898000D01*
X124669000Y-182897000D01*
X124661000Y-182895000D01*
X124654000Y-182893000D01*
X124646000Y-182890000D01*
X124639000Y-182887000D01*
X124632000Y-182884000D01*
X124625000Y-182880000D01*
X124618000Y-182876000D01*
X124612000Y-182871000D01*
X124606000Y-182867000D01*
X124600000Y-182861000D01*
X124594000Y-182856000D01*
X124589000Y-182850000D01*
X124583000Y-182844000D01*
X124579000Y-182838000D01*
X124574000Y-182832000D01*
X124570000Y-182825000D01*
X124566000Y-182818000D01*
X124563000Y-182811000D01*
X124560000Y-182804000D01*
X124557000Y-182796000D01*
X124555000Y-182789000D01*
X124553000Y-182781000D01*
X124552000Y-182773000D01*
X124551000Y-182766000D01*
X124550000Y-182758000D01*
X124550000Y-182750000D01*
X124550000Y-180750000D01*
X124550000Y-180742000D01*
X124551000Y-180734000D01*
X124552000Y-180727000D01*
X124553000Y-180719000D01*
X124555000Y-180711000D01*
X124557000Y-180704000D01*
X124560000Y-180696000D01*
X124563000Y-180689000D01*
X124566000Y-180682000D01*
X124570000Y-180675000D01*
X124574000Y-180668000D01*
X124579000Y-180662000D01*
X124583000Y-180656000D01*
X124589000Y-180650000D01*
X124594000Y-180644000D01*
X124600000Y-180639000D01*
X124606000Y-180633000D01*
X124612000Y-180629000D01*
X124618000Y-180624000D01*
X124625000Y-180620000D01*
X124632000Y-180616000D01*
X124639000Y-180613000D01*
X124646000Y-180610000D01*
X124654000Y-180607000D01*
X124661000Y-180605000D01*
X124669000Y-180603000D01*
X124677000Y-180602000D01*
X124684000Y-180601000D01*
X124692000Y-180600000D01*
X124700000Y-180600000D01*
X125000000Y-180600000D01*
X125008000Y-180600000D01*
X125016000Y-180601000D01*
G37*
D11*
%TO.C,G\u002A\u002A\u002A*%
G36*
X63073901Y-74328783D02*
G01*
X63077402Y-74336057D01*
X63076832Y-74338825D01*
X63073716Y-74349312D01*
X63067629Y-74369440D01*
X63059442Y-74396328D01*
X63050030Y-74427099D01*
X63049876Y-74427604D01*
X63040765Y-74457892D01*
X63033277Y-74483864D01*
X63028164Y-74502832D01*
X63026178Y-74512109D01*
X63026175Y-74512252D01*
X63029726Y-74510525D01*
X63039307Y-74500030D01*
X63053304Y-74482637D01*
X63064635Y-74467672D01*
X63095007Y-74429462D01*
X63126879Y-74394226D01*
X63157524Y-74364793D01*
X63183149Y-74344695D01*
X63207577Y-74334616D01*
X63232220Y-74337213D01*
X63257886Y-74352610D01*
X63262768Y-74356832D01*
X63285745Y-74373706D01*
X63306074Y-74378703D01*
X63326613Y-74371826D01*
X63346007Y-74356977D01*
X63371214Y-74334205D01*
X63385373Y-74349277D01*
X63399533Y-74364349D01*
X63350641Y-74416977D01*
X63318880Y-74449056D01*
X63292383Y-74470388D01*
X63269563Y-74481387D01*
X63248834Y-74482467D01*
X63228608Y-74474041D01*
X63207299Y-74456524D01*
X63205571Y-74454813D01*
X63187312Y-74438917D01*
X63172052Y-74433241D01*
X63155431Y-74437168D01*
X63140189Y-74445588D01*
X63111925Y-74469111D01*
X63083535Y-74504194D01*
X63055919Y-74549342D01*
X63029975Y-74603059D01*
X63006601Y-74663849D01*
X63003532Y-74673003D01*
X62985660Y-74727251D01*
X62940600Y-74749943D01*
X62915729Y-74761146D01*
X62892846Y-74769156D01*
X62874715Y-74773251D01*
X62864103Y-74772714D01*
X62862473Y-74770258D01*
X62864018Y-74763523D01*
X62868361Y-74745847D01*
X62875064Y-74718979D01*
X62883689Y-74684671D01*
X62893798Y-74644671D01*
X62902054Y-74612132D01*
X62912957Y-74568550D01*
X62922554Y-74528886D01*
X62930420Y-74494994D01*
X62936135Y-74468728D01*
X62939276Y-74451945D01*
X62939705Y-74446771D01*
X62934707Y-74447699D01*
X62921844Y-74457538D01*
X62902030Y-74475478D01*
X62876179Y-74500710D01*
X62858069Y-74519097D01*
X62778361Y-74601034D01*
X62763927Y-74585669D01*
X62749492Y-74570304D01*
X62792973Y-74522501D01*
X62846493Y-74466506D01*
X62896606Y-74419813D01*
X62942538Y-74383065D01*
X62983519Y-74356904D01*
X63002948Y-74347560D01*
X63037128Y-74334481D01*
X63060628Y-74328240D01*
X63073901Y-74328783D01*
G37*
G36*
X63801317Y-74344253D02*
G01*
X63822977Y-74361206D01*
X63835383Y-74386390D01*
X63838137Y-74409645D01*
X63834938Y-74438957D01*
X63824098Y-74464253D01*
X63803750Y-74489200D01*
X63791895Y-74500477D01*
X63760231Y-74523503D01*
X63719731Y-74544828D01*
X63674655Y-74562816D01*
X63629263Y-74575832D01*
X63587816Y-74582241D01*
X63577850Y-74582627D01*
X63569879Y-74583692D01*
X63565456Y-74588707D01*
X63563547Y-74600635D01*
X63563119Y-74622441D01*
X63563117Y-74624828D01*
X63563680Y-74648466D01*
X63566253Y-74663178D01*
X63572163Y-74673119D01*
X63581124Y-74681174D01*
X63594588Y-74689729D01*
X63609424Y-74693031D01*
X63631056Y-74692185D01*
X63633818Y-74691913D01*
X63667871Y-74684378D01*
X63702218Y-74668026D01*
X63738997Y-74641692D01*
X63760721Y-74622821D01*
X63795881Y-74590686D01*
X63814601Y-74606789D01*
X63833321Y-74622892D01*
X63811174Y-74645952D01*
X63779785Y-74675579D01*
X63743841Y-74704645D01*
X63707429Y-74730103D01*
X63674635Y-74748904D01*
X63670478Y-74750871D01*
X63631607Y-74764290D01*
X63590734Y-74770921D01*
X63551849Y-74770517D01*
X63518942Y-74762826D01*
X63514007Y-74760670D01*
X63480746Y-74738988D01*
X63458777Y-74711249D01*
X63451643Y-74693513D01*
X63445265Y-74648190D01*
X63450603Y-74599967D01*
X63467097Y-74550500D01*
X63472581Y-74540570D01*
X63576213Y-74540570D01*
X63580326Y-74540124D01*
X63590564Y-74532434D01*
X63594221Y-74529141D01*
X63611293Y-74517477D01*
X63634221Y-74510518D01*
X63651141Y-74508066D01*
X63689212Y-74500227D01*
X63720209Y-74486635D01*
X63742654Y-74468506D01*
X63755069Y-74447055D01*
X63755977Y-74423499D01*
X63755649Y-74422107D01*
X63745593Y-74404298D01*
X63728070Y-74395166D01*
X63705351Y-74394629D01*
X63679709Y-74402608D01*
X63653413Y-74419022D01*
X63645274Y-74426004D01*
X63631453Y-74441470D01*
X63615820Y-74463047D01*
X63600437Y-74487317D01*
X63587361Y-74510865D01*
X63578652Y-74530274D01*
X63576213Y-74540570D01*
X63472581Y-74540570D01*
X63494185Y-74501447D01*
X63531309Y-74454464D01*
X63533225Y-74452405D01*
X63583359Y-74405319D01*
X63634147Y-74370146D01*
X63684784Y-74347436D01*
X63688810Y-74346172D01*
X63733434Y-74336396D01*
X63771203Y-74335869D01*
X63801317Y-74344253D01*
G37*
G36*
X64387275Y-74309586D02*
G01*
X64388173Y-74312632D01*
X64386085Y-74320476D01*
X64380440Y-74337842D01*
X64372167Y-74361945D01*
X64364704Y-74383024D01*
X64351479Y-74422220D01*
X64338316Y-74465318D01*
X64325879Y-74509706D01*
X64314829Y-74552775D01*
X64305829Y-74591911D01*
X64299541Y-74624504D01*
X64296626Y-74647941D01*
X64296502Y-74651983D01*
X64299355Y-74674605D01*
X64308103Y-74686395D01*
X64323026Y-74687322D01*
X64344406Y-74677356D01*
X64372523Y-74656467D01*
X64388930Y-74642159D01*
X64432246Y-74602936D01*
X64447016Y-74618657D01*
X64461785Y-74634378D01*
X64410807Y-74683890D01*
X64368735Y-74720721D01*
X64329248Y-74747621D01*
X64293191Y-74764726D01*
X64261411Y-74772174D01*
X64234754Y-74770101D01*
X64214065Y-74758644D01*
X64200192Y-74737938D01*
X64193979Y-74708122D01*
X64196273Y-74669331D01*
X64200101Y-74649858D01*
X64205146Y-74624847D01*
X64205731Y-74612038D01*
X64201786Y-74611292D01*
X64193238Y-74622472D01*
X64189250Y-74629001D01*
X64174313Y-74650002D01*
X64152636Y-74675293D01*
X64127436Y-74701600D01*
X64101932Y-74725649D01*
X64079344Y-74744163D01*
X64069812Y-74750521D01*
X64044588Y-74761416D01*
X64015109Y-74768467D01*
X63986262Y-74770963D01*
X63962932Y-74768192D01*
X63958742Y-74766684D01*
X63945922Y-74757981D01*
X63930855Y-74743622D01*
X63926903Y-74739137D01*
X63918071Y-74727836D01*
X63912873Y-74717381D01*
X63910577Y-74704104D01*
X63910450Y-74684340D01*
X63911410Y-74661578D01*
X63912578Y-74645755D01*
X64022228Y-74645755D01*
X64026314Y-74663495D01*
X64031676Y-74672957D01*
X64046249Y-74685114D01*
X64065670Y-74685927D01*
X64086595Y-74677878D01*
X64104809Y-74664739D01*
X64126844Y-74643324D01*
X64150024Y-74616728D01*
X64171673Y-74588047D01*
X64189115Y-74560376D01*
X64190687Y-74557480D01*
X64199338Y-74539665D01*
X64209983Y-74515496D01*
X64221407Y-74488029D01*
X64232399Y-74460321D01*
X64241746Y-74435429D01*
X64248234Y-74416411D01*
X64250652Y-74406326D01*
X64244780Y-74403020D01*
X64229724Y-74401333D01*
X64209282Y-74401159D01*
X64187253Y-74402390D01*
X64167435Y-74404919D01*
X64153627Y-74408639D01*
X64152686Y-74409092D01*
X64125832Y-74428543D01*
X64098662Y-74458048D01*
X64073090Y-74494756D01*
X64051034Y-74535817D01*
X64034408Y-74578380D01*
X64030996Y-74590146D01*
X64023797Y-74622330D01*
X64022228Y-74645755D01*
X63912578Y-74645755D01*
X63913683Y-74630788D01*
X63918020Y-74606519D01*
X63925935Y-74582878D01*
X63938947Y-74553968D01*
X63939280Y-74553274D01*
X63971067Y-74500330D01*
X64013004Y-74450615D01*
X64062147Y-74407049D01*
X64115552Y-74372552D01*
X64127576Y-74366471D01*
X64180393Y-74345257D01*
X64226746Y-74335409D01*
X64266670Y-74336921D01*
X64279684Y-74340314D01*
X64294373Y-74344308D01*
X64306188Y-74343896D01*
X64319942Y-74338044D01*
X64336721Y-74328037D01*
X64361194Y-74314396D01*
X64378451Y-74308124D01*
X64387275Y-74309586D01*
G37*
G36*
X64888628Y-74148038D02*
G01*
X64903432Y-74150623D01*
X64913858Y-74156770D01*
X64922396Y-74165666D01*
X64934769Y-74184686D01*
X64939464Y-74205158D01*
X64936003Y-74228126D01*
X64923905Y-74254636D01*
X64902692Y-74285735D01*
X64871884Y-74322468D01*
X64831000Y-74365880D01*
X64830243Y-74366654D01*
X64800318Y-74397535D01*
X64778407Y-74421130D01*
X64763103Y-74439251D01*
X64752996Y-74453707D01*
X64746678Y-74466308D01*
X64742742Y-74478864D01*
X64742652Y-74479234D01*
X64738290Y-74498167D01*
X64735618Y-74511478D01*
X64735223Y-74514600D01*
X64738811Y-74511728D01*
X64748485Y-74500279D01*
X64762609Y-74482251D01*
X64773782Y-74467442D01*
X64815476Y-74416150D01*
X64855419Y-74376436D01*
X64893268Y-74348465D01*
X64928676Y-74332403D01*
X64961298Y-74328415D01*
X64990787Y-74336667D01*
X65012671Y-74352964D01*
X65024913Y-74367162D01*
X65030814Y-74381397D01*
X65032490Y-74401488D01*
X65032501Y-74407472D01*
X65026995Y-74445470D01*
X65010501Y-74481117D01*
X64982391Y-74515307D01*
X64942041Y-74548934D01*
X64925432Y-74560392D01*
X64898925Y-74577933D01*
X64898925Y-74631264D01*
X64901505Y-74669784D01*
X64909244Y-74696269D01*
X64922144Y-74710719D01*
X64940205Y-74713136D01*
X64963430Y-74703518D01*
X64991818Y-74681866D01*
X65025371Y-74648180D01*
X65036534Y-74635624D01*
X65071610Y-74595295D01*
X65087726Y-74611410D01*
X65103841Y-74627526D01*
X65062808Y-74673695D01*
X65018616Y-74719094D01*
X64975755Y-74754684D01*
X64935048Y-74780045D01*
X64897316Y-74794755D01*
X64863384Y-74798395D01*
X64834076Y-74790546D01*
X64816122Y-74778791D01*
X64803557Y-74763466D01*
X64795409Y-74742147D01*
X64790708Y-74712408D01*
X64788642Y-74676990D01*
X64788236Y-74640514D01*
X64789688Y-74614792D01*
X64792930Y-74600844D01*
X64793719Y-74599637D01*
X64802755Y-74592126D01*
X64819704Y-74580595D01*
X64841054Y-74567422D01*
X64843066Y-74566241D01*
X64878999Y-74542937D01*
X64904265Y-74520725D01*
X64920909Y-74497554D01*
X64928055Y-74481061D01*
X64933638Y-74454511D01*
X64929160Y-74435629D01*
X64917062Y-74424780D01*
X64894572Y-74419710D01*
X64869713Y-74426357D01*
X64843291Y-74443734D01*
X64816114Y-74470854D01*
X64788988Y-74506729D01*
X64762720Y-74550372D01*
X64738117Y-74600795D01*
X64715986Y-74657010D01*
X64708134Y-74680497D01*
X64692661Y-74729142D01*
X64645616Y-74750889D01*
X64621039Y-74761332D01*
X64599130Y-74769034D01*
X64584065Y-74772555D01*
X64582520Y-74772635D01*
X64566469Y-74772635D01*
X64585584Y-74702243D01*
X64597872Y-74656154D01*
X64608402Y-74614997D01*
X64616817Y-74580305D01*
X64622758Y-74553612D01*
X64625866Y-74536451D01*
X64625783Y-74530356D01*
X64625775Y-74530356D01*
X64620139Y-74534570D01*
X64606839Y-74546103D01*
X64587745Y-74563294D01*
X64564722Y-74584481D01*
X64559736Y-74589122D01*
X64496707Y-74647887D01*
X64481730Y-74633817D01*
X64471309Y-74621863D01*
X64467159Y-74612756D01*
X64467162Y-74612703D01*
X64472136Y-74606153D01*
X64485455Y-74593231D01*
X64505196Y-74575692D01*
X64529437Y-74555294D01*
X64534280Y-74551333D01*
X64569843Y-74522486D01*
X64596872Y-74500351D01*
X64616757Y-74483091D01*
X64630888Y-74468871D01*
X64640654Y-74455857D01*
X64647445Y-74442214D01*
X64652650Y-74426105D01*
X64657660Y-74405695D01*
X64663496Y-74380680D01*
X64669197Y-74359253D01*
X64774795Y-74359253D01*
X64778465Y-74360848D01*
X64787861Y-74353954D01*
X64801087Y-74340732D01*
X64816243Y-74323342D01*
X64831433Y-74303944D01*
X64844760Y-74284697D01*
X64853290Y-74269900D01*
X64865017Y-74240149D01*
X64868243Y-74215906D01*
X64862870Y-74198901D01*
X64857559Y-74194031D01*
X64848227Y-74190764D01*
X64839194Y-74195662D01*
X64830036Y-74205950D01*
X64821880Y-74219815D01*
X64811672Y-74242411D01*
X64800702Y-74270160D01*
X64790260Y-74299482D01*
X64781634Y-74326800D01*
X64776116Y-74348534D01*
X64774795Y-74359253D01*
X64669197Y-74359253D01*
X64677402Y-74328411D01*
X64692035Y-74286488D01*
X64708644Y-74252174D01*
X64728476Y-74222730D01*
X64743524Y-74205083D01*
X64775484Y-74175619D01*
X64807944Y-74157380D01*
X64844216Y-74148803D01*
X64865101Y-74147645D01*
X64888628Y-74148038D01*
G37*
G36*
X62646130Y-74152913D02*
G01*
X62664341Y-74170212D01*
X62673084Y-74196083D01*
X62673767Y-74209047D01*
X62671701Y-74229055D01*
X62665224Y-74248500D01*
X62653050Y-74269456D01*
X62633893Y-74293996D01*
X62606467Y-74324191D01*
X62594717Y-74336437D01*
X62538343Y-74394619D01*
X62601543Y-74390676D01*
X62638283Y-74387074D01*
X62671685Y-74381405D01*
X62696958Y-74374490D01*
X62697634Y-74374236D01*
X62722404Y-74367144D01*
X62737732Y-74368525D01*
X62744265Y-74378499D01*
X62744607Y-74383049D01*
X62739878Y-74392132D01*
X62727954Y-74405638D01*
X62712236Y-74420289D01*
X62696122Y-74432807D01*
X62687742Y-74437897D01*
X62674710Y-74441301D01*
X62652715Y-74443864D01*
X62625884Y-74445156D01*
X62617809Y-74445231D01*
X62562178Y-74445231D01*
X62579661Y-74486156D01*
X62587479Y-74505874D01*
X62592572Y-74523680D01*
X62595513Y-74543347D01*
X62596869Y-74568648D01*
X62597210Y-74602385D01*
X62597050Y-74635369D01*
X62596025Y-74659062D01*
X62593419Y-74677267D01*
X62588515Y-74693788D01*
X62580596Y-74712429D01*
X62573747Y-74726953D01*
X62552829Y-74763284D01*
X62525115Y-74800464D01*
X62492510Y-74836846D01*
X62456916Y-74870783D01*
X62420235Y-74900626D01*
X62384372Y-74924728D01*
X62351230Y-74941441D01*
X62322711Y-74949118D01*
X62316770Y-74949433D01*
X62300717Y-74948242D01*
X62293974Y-74943156D01*
X62292804Y-74934700D01*
X62294083Y-74919985D01*
X62297637Y-74894584D01*
X62303067Y-74860632D01*
X62309583Y-74822553D01*
X62423817Y-74822553D01*
X62425640Y-74835458D01*
X62431740Y-74837268D01*
X62442631Y-74828555D01*
X62458829Y-74809890D01*
X62466358Y-74800464D01*
X62495410Y-74753307D01*
X62514023Y-74699688D01*
X62522041Y-74641255D01*
X62519306Y-74579660D01*
X62505662Y-74516551D01*
X62496083Y-74488522D01*
X62490152Y-74476460D01*
X62485582Y-74472927D01*
X62485388Y-74473085D01*
X62482911Y-74480648D01*
X62478643Y-74499060D01*
X62472974Y-74526255D01*
X62466294Y-74560168D01*
X62458994Y-74598734D01*
X62451464Y-74639888D01*
X62444093Y-74681566D01*
X62437274Y-74721702D01*
X62431394Y-74758232D01*
X62430939Y-74761176D01*
X62425755Y-74797983D01*
X62423817Y-74822553D01*
X62309583Y-74822553D01*
X62309975Y-74820263D01*
X62317961Y-74775610D01*
X62326626Y-74728810D01*
X62335572Y-74681995D01*
X62344400Y-74637300D01*
X62352710Y-74596861D01*
X62360104Y-74562810D01*
X62366183Y-74537282D01*
X62368992Y-74527082D01*
X62366255Y-74526202D01*
X62355905Y-74533338D01*
X62339553Y-74547212D01*
X62318813Y-74566545D01*
X62317303Y-74568007D01*
X62295051Y-74589115D01*
X62275908Y-74606360D01*
X62261948Y-74617934D01*
X62255316Y-74622029D01*
X62246073Y-74617459D01*
X62235806Y-74607116D01*
X62228882Y-74596047D01*
X62228274Y-74590773D01*
X62233850Y-74584597D01*
X62247544Y-74571693D01*
X62267467Y-74553780D01*
X62291730Y-74532581D01*
X62299338Y-74526038D01*
X62332315Y-74497771D01*
X62355979Y-74476996D01*
X62370853Y-74462563D01*
X62377462Y-74453319D01*
X62376330Y-74448115D01*
X62367983Y-74445798D01*
X62352944Y-74445218D01*
X62336154Y-74445231D01*
X62312467Y-74444784D01*
X62294864Y-74443601D01*
X62286520Y-74441918D01*
X62286242Y-74441526D01*
X62292300Y-74424510D01*
X62308526Y-74409606D01*
X62331995Y-74398561D01*
X62359784Y-74393125D01*
X62367643Y-74392846D01*
X62386189Y-74392052D01*
X62395705Y-74388228D01*
X62400228Y-74379215D01*
X62401289Y-74374839D01*
X62404669Y-74363114D01*
X62509172Y-74363114D01*
X62512973Y-74363263D01*
X62522648Y-74355145D01*
X62536258Y-74341005D01*
X62551865Y-74323085D01*
X62567529Y-74303631D01*
X62581311Y-74284886D01*
X62591273Y-74269094D01*
X62592600Y-74266561D01*
X62602049Y-74242460D01*
X62606584Y-74219703D01*
X62605823Y-74201866D01*
X62600491Y-74193094D01*
X62586699Y-74191501D01*
X62571462Y-74200308D01*
X62559637Y-74215018D01*
X62553450Y-74228149D01*
X62545047Y-74249417D01*
X62535553Y-74275515D01*
X62526095Y-74303140D01*
X62517799Y-74328988D01*
X62511790Y-74349755D01*
X62509195Y-74362136D01*
X62509172Y-74363114D01*
X62404669Y-74363114D01*
X62419742Y-74310834D01*
X62444479Y-74256183D01*
X62474964Y-74211560D01*
X62510657Y-74177637D01*
X62551021Y-74155090D01*
X62584148Y-74146030D01*
X62619162Y-74144686D01*
X62646130Y-74152913D01*
G37*
G36*
X65684446Y-74328651D02*
G01*
X65690305Y-74334889D01*
X65691243Y-74346488D01*
X65689079Y-74361117D01*
X65683294Y-74384004D01*
X65674945Y-74411174D01*
X65670745Y-74423428D01*
X65664041Y-74444223D01*
X65655852Y-74472519D01*
X65646719Y-74506112D01*
X65637179Y-74542803D01*
X65627774Y-74580388D01*
X65619040Y-74616665D01*
X65611519Y-74649435D01*
X65605749Y-74676493D01*
X65602269Y-74695639D01*
X65601618Y-74704670D01*
X65601790Y-74705009D01*
X65609562Y-74704632D01*
X65624467Y-74698834D01*
X65642756Y-74689473D01*
X65660675Y-74678409D01*
X65670808Y-74670800D01*
X65686995Y-74649835D01*
X65691506Y-74625774D01*
X65683899Y-74601642D01*
X65681494Y-74597929D01*
X65675343Y-74586338D01*
X65678328Y-74576873D01*
X65683131Y-74570941D01*
X65697459Y-74557554D01*
X65711813Y-74547101D01*
X65723083Y-74540908D01*
X65730450Y-74541698D01*
X65738190Y-74551161D01*
X65743509Y-74559631D01*
X65755542Y-74590489D01*
X65757507Y-74624583D01*
X65749195Y-74656694D01*
X65747553Y-74660058D01*
X65730074Y-74681869D01*
X65700559Y-74703846D01*
X65660040Y-74725301D01*
X65631645Y-74737337D01*
X65608285Y-74746987D01*
X65593965Y-74755089D01*
X65585385Y-74764479D01*
X65579245Y-74777996D01*
X65577040Y-74784289D01*
X65552549Y-74837128D01*
X65518114Y-74882868D01*
X65475220Y-74919834D01*
X65437798Y-74941068D01*
X65405156Y-74952008D01*
X65366452Y-74958910D01*
X65326303Y-74961460D01*
X65289326Y-74959341D01*
X65262344Y-74953095D01*
X65234223Y-74937812D01*
X65217936Y-74917110D01*
X65213233Y-74893551D01*
X65214276Y-74887738D01*
X65304906Y-74887738D01*
X65310714Y-74899227D01*
X65325282Y-74909392D01*
X65344327Y-74915735D01*
X65354506Y-74916693D01*
X65373618Y-74912958D01*
X65393992Y-74903780D01*
X65396968Y-74901887D01*
X65412738Y-74887218D01*
X65430495Y-74864690D01*
X65447349Y-74838598D01*
X65460409Y-74813239D01*
X65465068Y-74800690D01*
X65469348Y-74786182D01*
X65434453Y-74798187D01*
X65391665Y-74815055D01*
X65355841Y-74833476D01*
X65328457Y-74852432D01*
X65310987Y-74870903D01*
X65304906Y-74887738D01*
X65214276Y-74887738D01*
X65216880Y-74873226D01*
X65228429Y-74854091D01*
X65248791Y-74835531D01*
X65278880Y-74816933D01*
X65319607Y-74797682D01*
X65371885Y-74777165D01*
X65402199Y-74766393D01*
X65431312Y-74756149D01*
X65455660Y-74747259D01*
X65472700Y-74740673D01*
X65479892Y-74737342D01*
X65479897Y-74737336D01*
X65483114Y-74729859D01*
X65488514Y-74713205D01*
X65495230Y-74690533D01*
X65502393Y-74665003D01*
X65509136Y-74639775D01*
X65514588Y-74618008D01*
X65517884Y-74602862D01*
X65518317Y-74597526D01*
X65513602Y-74601122D01*
X65503597Y-74612783D01*
X65491980Y-74627959D01*
X65460405Y-74665402D01*
X65424174Y-74699265D01*
X65387002Y-74726323D01*
X65364830Y-74738397D01*
X65329265Y-74750050D01*
X65297964Y-74750712D01*
X65272193Y-74740482D01*
X65260717Y-74730112D01*
X65250570Y-74710580D01*
X65246366Y-74682092D01*
X65248160Y-74644125D01*
X65256008Y-74596155D01*
X65269966Y-74537657D01*
X65287974Y-74475003D01*
X65293207Y-74456345D01*
X65295886Y-74443671D01*
X65295851Y-74440541D01*
X65290871Y-74444323D01*
X65278316Y-74456069D01*
X65259694Y-74474308D01*
X65236512Y-74497568D01*
X65214747Y-74519774D01*
X65135670Y-74601034D01*
X65121099Y-74585524D01*
X65106528Y-74570014D01*
X65150260Y-74521151D01*
X65206432Y-74461884D01*
X65258283Y-74414406D01*
X65305657Y-74378848D01*
X65348399Y-74355339D01*
X65350619Y-74354395D01*
X65384164Y-74341777D01*
X65409870Y-74335039D01*
X65426709Y-74334296D01*
X65433658Y-74339659D01*
X65432846Y-74345373D01*
X65425676Y-74366076D01*
X65416283Y-74396221D01*
X65405592Y-74432539D01*
X65394531Y-74471761D01*
X65384024Y-74510618D01*
X65375000Y-74545840D01*
X65369663Y-74568342D01*
X65362399Y-74603792D01*
X65359419Y-74628678D01*
X65361052Y-74644919D01*
X65367624Y-74654437D01*
X65379464Y-74659151D01*
X65385329Y-74660072D01*
X65403482Y-74656196D01*
X65424905Y-74641979D01*
X65448210Y-74619318D01*
X65472003Y-74590110D01*
X65494896Y-74556252D01*
X65515497Y-74519641D01*
X65532416Y-74482174D01*
X65544262Y-74445749D01*
X65545163Y-74442029D01*
X65555535Y-74410561D01*
X65569480Y-74386764D01*
X65572034Y-74383833D01*
X65596145Y-74362035D01*
X65623120Y-74343899D01*
X65649172Y-74331616D01*
X65669607Y-74327365D01*
X65684446Y-74328651D01*
G37*
%TD*%
D12*
%TO.C,F1*%
X85523998Y-74400000D03*
X88929999Y-74400000D03*
X93400000Y-74400000D03*
X96806002Y-74400000D03*
%TD*%
D13*
%TO.C,R120*%
X139100000Y-166825000D03*
X139100000Y-165175000D03*
%TD*%
D14*
%TO.C,R53*%
X91021415Y-205500000D03*
X89371415Y-205500000D03*
%TD*%
D15*
%TO.C,L1*%
X125200000Y-197715000D03*
X125200000Y-186285000D03*
%TD*%
D13*
%TO.C,R48*%
X148696415Y-126425000D03*
X148696415Y-124775000D03*
%TD*%
D16*
%TO.C,D17*%
X93983915Y-159300000D03*
X92408915Y-159300000D03*
%TD*%
D17*
%TO.C,C30*%
X108196415Y-107300000D03*
X108196415Y-104350000D03*
%TD*%
D13*
%TO.C,R123*%
X147200000Y-156925000D03*
X147200000Y-155275000D03*
%TD*%
D18*
%TO.C,R57*%
X114096415Y-141425000D03*
X114096415Y-143075000D03*
%TD*%
D19*
%TO.C,R101*%
X72303465Y-182100000D03*
X73953465Y-182100000D03*
%TD*%
D17*
%TO.C,C26*%
X142596415Y-110975000D03*
X142596415Y-108025000D03*
%TD*%
D14*
%TO.C,R13*%
X91025000Y-113100000D03*
X89375000Y-113100000D03*
%TD*%
D20*
%TO.C,R75*%
X85749716Y-118400000D03*
X82824716Y-118400000D03*
%TD*%
D21*
%TO.C,BATT4S3*%
X58403465Y-180500000D03*
D22*
X60403465Y-182100000D03*
D23*
X60403465Y-184600000D03*
X60403465Y-187100000D03*
X60403465Y-189600000D03*
X60403465Y-192100000D03*
%TD*%
D18*
%TO.C,R49*%
X150296415Y-124775000D03*
X150296415Y-126425000D03*
%TD*%
D24*
%TO.C,C54*%
X80087216Y-105800000D03*
X80087216Y-107350000D03*
%TD*%
D25*
%TO.C,REF\u002A\u002A2*%
X100500000Y-68800000D03*
%TD*%
D12*
%TO.C,F2*%
X74500000Y-84500000D03*
X77906001Y-84500000D03*
X82376002Y-84500000D03*
X85782004Y-84500000D03*
%TD*%
D13*
%TO.C,R37*%
X129996415Y-121525000D03*
X129996415Y-119875000D03*
%TD*%
D21*
%TO.C,TH1*%
X99887216Y-105000000D03*
D26*
X97887216Y-103400000D03*
D27*
X97887216Y-100900000D03*
%TD*%
D28*
%TO.C,C75*%
X81628465Y-193400000D03*
X83178465Y-193400000D03*
%TD*%
D29*
%TO.C,U7*%
X135500000Y-161700000D03*
X136150000Y-161700000D03*
X136800000Y-161700000D03*
X137450000Y-161700000D03*
X138100000Y-161700000D03*
X138750000Y-161700000D03*
X139400000Y-161700000D03*
X140050000Y-161700000D03*
X140700000Y-161700000D03*
X141350000Y-161700000D03*
X142000000Y-161700000D03*
X142650000Y-161700000D03*
X143300000Y-161700000D03*
X143950000Y-161700000D03*
X143950000Y-156000000D03*
X143300000Y-156000000D03*
X142650000Y-156000000D03*
X142000000Y-156000000D03*
X141350000Y-156000000D03*
X140700000Y-156000000D03*
X140050000Y-156000000D03*
X139400000Y-156000000D03*
X138750000Y-156000000D03*
X138100000Y-156000000D03*
X137450000Y-156000000D03*
X136800000Y-156000000D03*
X136150000Y-156000000D03*
X135500000Y-156000000D03*
D30*
X139725000Y-158850000D03*
%TD*%
D19*
%TO.C,R70*%
X72287216Y-97000000D03*
X73937216Y-97000000D03*
%TD*%
D31*
%TO.C,Q30*%
X124100000Y-168550000D03*
D32*
X122195000Y-172100000D03*
X123465000Y-172100000D03*
X124735000Y-172100000D03*
X126005000Y-172100000D03*
%TD*%
D33*
%TO.C,C87*%
X109400000Y-173625000D03*
X109400000Y-176575000D03*
%TD*%
D18*
%TO.C,R55*%
X128496415Y-144525000D03*
X128496415Y-146175000D03*
%TD*%
D13*
%TO.C,R56*%
X129996415Y-146175000D03*
X129996415Y-144525000D03*
%TD*%
D17*
%TO.C,C31*%
X110496415Y-107300000D03*
X110496415Y-104350000D03*
%TD*%
D19*
%TO.C,R82*%
X91487216Y-93900000D03*
X93137216Y-93900000D03*
%TD*%
D34*
%TO.C,C71*%
X77653465Y-192100000D03*
X76103465Y-192100000D03*
%TD*%
D35*
%TO.C,C56*%
X84687216Y-107350000D03*
X84687216Y-105800000D03*
%TD*%
D17*
%TO.C,C47*%
X112796415Y-131950000D03*
X112796415Y-129000000D03*
%TD*%
D16*
%TO.C,D22*%
X93983915Y-205500000D03*
X92408915Y-205500000D03*
%TD*%
D12*
%TO.C,F4*%
X74500000Y-172100000D03*
X77906001Y-172100000D03*
X82376002Y-172100000D03*
X85782004Y-172100000D03*
%TD*%
D13*
%TO.C,R63*%
X144696415Y-142675000D03*
X144696415Y-141025000D03*
%TD*%
D17*
%TO.C,C18*%
X115100000Y-82600000D03*
X115100000Y-79650000D03*
%TD*%
D24*
%TO.C,C109*%
X117200000Y-180625000D03*
X117200000Y-182175000D03*
%TD*%
%TO.C,C74*%
X80103465Y-193400000D03*
X80103465Y-194950000D03*
%TD*%
D35*
%TO.C,C83*%
X143600000Y-166775000D03*
X143600000Y-165225000D03*
%TD*%
D36*
%TO.C,C3*%
X124175000Y-203100000D03*
X121225000Y-203100000D03*
%TD*%
D28*
%TO.C,C36*%
X134821415Y-148350000D03*
X136371415Y-148350000D03*
%TD*%
D14*
%TO.C,R34*%
X91021415Y-161700000D03*
X89371415Y-161700000D03*
%TD*%
D19*
%TO.C,R86*%
X72303465Y-140800000D03*
X73953465Y-140800000D03*
%TD*%
D37*
%TO.C,Q21*%
X91282216Y-122730000D03*
X91282216Y-124630000D03*
X93157216Y-123680000D03*
%TD*%
D21*
%TO.C,BATT3S3*%
X66603465Y-183000000D03*
D22*
X68603465Y-184600000D03*
D23*
X68603465Y-187100000D03*
X68603465Y-189600000D03*
X68603465Y-192100000D03*
%TD*%
D18*
%TO.C,R106*%
X81603465Y-194875000D03*
X81603465Y-196525000D03*
%TD*%
D28*
%TO.C,C21*%
X134821415Y-123700000D03*
X136371415Y-123700000D03*
%TD*%
D13*
%TO.C,R112*%
X92703465Y-186300000D03*
X92703465Y-184650000D03*
%TD*%
D18*
%TO.C,R66*%
X144696415Y-149425000D03*
X144696415Y-151075000D03*
%TD*%
D38*
%TO.C,J3*%
X151810000Y-203400000D03*
D39*
X149270000Y-203400000D03*
X146730000Y-203400000D03*
X144190000Y-203400000D03*
%TD*%
D35*
%TO.C,C90*%
X139400000Y-152975000D03*
X139400000Y-151425000D03*
%TD*%
D25*
%TO.C,REF\u002A\u002A5*%
X131101948Y-211899359D03*
%TD*%
D21*
%TO.C,J5*%
X152250000Y-176325000D03*
D40*
X150650000Y-178325000D03*
D41*
X148150000Y-178325000D03*
%TD*%
D42*
%TO.C,D3*%
X80903465Y-156850000D03*
X80903465Y-160150000D03*
%TD*%
D43*
%TO.C,R128*%
X119900000Y-173637500D03*
X119900000Y-176562500D03*
%TD*%
D44*
%TO.C,Q16*%
X90279716Y-86910000D03*
X90279716Y-87570000D03*
X90279716Y-88230000D03*
X90279716Y-88890000D03*
D45*
X92272216Y-87900000D03*
%TD*%
D46*
%TO.C,SW6*%
X144996415Y-144407500D03*
D47*
X147496415Y-144407500D03*
X149996415Y-144407500D03*
X149996415Y-147707500D03*
X147496415Y-147707500D03*
X144996415Y-147707500D03*
%TD*%
D25*
%TO.C,REF\u002A\u002A*%
X158500000Y-211900000D03*
%TD*%
D34*
%TO.C,C24*%
X139771415Y-122400000D03*
X138221415Y-122400000D03*
%TD*%
D16*
%TO.C,D14*%
X93987500Y-117900000D03*
X92412500Y-117900000D03*
%TD*%
D28*
%TO.C,C110*%
X114125000Y-182100000D03*
X115675000Y-182100000D03*
%TD*%
D48*
%TO.C,D5*%
X123350000Y-117300000D03*
X126650000Y-117300000D03*
%TD*%
D24*
%TO.C,C64*%
X80103465Y-149600000D03*
X80103465Y-151150000D03*
%TD*%
D49*
%TO.C,D26*%
X94803465Y-176500000D03*
X94803465Y-174420000D03*
D50*
X98608465Y-175460000D03*
%TD*%
D24*
%TO.C,C62*%
X76103465Y-139800000D03*
X76103465Y-141350000D03*
%TD*%
D21*
%TO.C,J7*%
X152250000Y-189925000D03*
D40*
X150650000Y-191925000D03*
D41*
X148150000Y-191925000D03*
%TD*%
D51*
%TO.C,J15*%
X157400000Y-171640000D03*
D52*
X157400000Y-166560000D03*
%TD*%
D53*
%TO.C,Q10*%
X140590000Y-81165000D03*
X139930000Y-81165000D03*
X139270000Y-81165000D03*
X138610000Y-81165000D03*
D54*
X139600000Y-83157500D03*
%TD*%
D33*
%TO.C,C99*%
X137400000Y-173625000D03*
X137400000Y-176575000D03*
%TD*%
D55*
%TO.C,SW1*%
X108000000Y-88997500D03*
X116200000Y-88997500D03*
D56*
X110100000Y-88997500D03*
D57*
X112100000Y-88997500D03*
X114100000Y-88997500D03*
%TD*%
D35*
%TO.C,C76*%
X84703465Y-194950000D03*
X84703465Y-193400000D03*
%TD*%
D13*
%TO.C,R40*%
X116096415Y-118425000D03*
X116096415Y-116775000D03*
%TD*%
D34*
%TO.C,C5*%
X131575000Y-92200000D03*
X130025000Y-92200000D03*
%TD*%
D58*
%TO.C,D7*%
X152200000Y-165150000D03*
X152200000Y-161850000D03*
%TD*%
D13*
%TO.C,R76*%
X83187216Y-108925000D03*
X83187216Y-107275000D03*
%TD*%
D38*
%TO.C,J11*%
X136940000Y-185240000D03*
D39*
X136940000Y-187780000D03*
X136940000Y-190320000D03*
%TD*%
D28*
%TO.C,C111*%
X113400000Y-183600000D03*
X114950000Y-183600000D03*
%TD*%
D17*
%TO.C,C12*%
X144900000Y-86275000D03*
X144900000Y-83325000D03*
%TD*%
D14*
%TO.C,R84*%
X96507216Y-78930000D03*
X94857216Y-78930000D03*
%TD*%
D38*
%TO.C,J12*%
X139480000Y-185240000D03*
D39*
X139480000Y-187780000D03*
X139480000Y-190320000D03*
%TD*%
D59*
%TO.C,L5*%
X134311415Y-134150000D03*
X122881415Y-134150000D03*
%TD*%
D33*
%TO.C,C86*%
X111700000Y-173625000D03*
X111700000Y-176575000D03*
%TD*%
D24*
%TO.C,C103*%
X131900000Y-180625000D03*
X131900000Y-182175000D03*
%TD*%
D60*
%TO.C,D23*%
X139971415Y-142300000D03*
X139971415Y-140400000D03*
X137696415Y-141350000D03*
%TD*%
D19*
%TO.C,R88*%
X72303465Y-145800000D03*
X73953465Y-145800000D03*
%TD*%
%TO.C,R105*%
X72278465Y-192100000D03*
X73928465Y-192100000D03*
%TD*%
D14*
%TO.C,R79*%
X94212216Y-102600000D03*
X92562216Y-102600000D03*
%TD*%
D17*
%TO.C,C11*%
X142600000Y-86275000D03*
X142600000Y-83325000D03*
%TD*%
D61*
%TO.C,U5*%
X85003465Y-141200000D03*
X85003465Y-141849999D03*
X85003465Y-142499997D03*
X85003465Y-143149998D03*
X85003465Y-143799997D03*
X85003465Y-144449998D03*
X85003465Y-145099997D03*
X85003465Y-145749998D03*
X85003465Y-146399997D03*
X85003465Y-147049998D03*
X85003465Y-147699997D03*
X85003465Y-148349998D03*
X90858165Y-148349998D03*
X90858165Y-147699999D03*
X90858165Y-147049998D03*
X90858165Y-146400000D03*
X90858165Y-145749998D03*
X90858165Y-145100000D03*
X90858165Y-144450001D03*
X90858165Y-143800000D03*
X90858165Y-143150001D03*
X90858165Y-142500000D03*
X90858165Y-141850001D03*
X90858165Y-141200000D03*
%TD*%
D25*
%TO.C,REF\u002A\u002A*%
X53200000Y-211900000D03*
%TD*%
D53*
%TO.C,Q14*%
X140586415Y-130515000D03*
X139926415Y-130515000D03*
X139266415Y-130515000D03*
X138606415Y-130515000D03*
D54*
X139596415Y-132507500D03*
%TD*%
D28*
%TO.C,C73*%
X76103465Y-189600000D03*
X77653465Y-189600000D03*
%TD*%
D18*
%TO.C,R41*%
X148696415Y-116375000D03*
X148696415Y-118025000D03*
%TD*%
D17*
%TO.C,C16*%
X110500000Y-82600000D03*
X110500000Y-79650000D03*
%TD*%
D13*
%TO.C,R92*%
X83203465Y-152725000D03*
X83203465Y-151075000D03*
%TD*%
D37*
%TO.C,Q17*%
X91282216Y-78930000D03*
X91282216Y-80830000D03*
X93157216Y-79880000D03*
%TD*%
D18*
%TO.C,R19*%
X114100000Y-92075000D03*
X114100000Y-93725000D03*
%TD*%
D60*
%TO.C,D15*%
X139975000Y-92950000D03*
X139975000Y-91050000D03*
X137700000Y-92000000D03*
%TD*%
D53*
%TO.C,Q13*%
X140586415Y-134915000D03*
X139926415Y-134915000D03*
X139266415Y-134915000D03*
X138606415Y-134915000D03*
D54*
X139596415Y-136907500D03*
%TD*%
D38*
%TO.C,J14*%
X134400000Y-182700000D03*
D39*
X136940000Y-182700000D03*
X139480000Y-182700000D03*
X142020000Y-182700000D03*
%TD*%
D35*
%TO.C,C40*%
X139796415Y-145450000D03*
X139796415Y-143900000D03*
%TD*%
D19*
%TO.C,R72*%
X72287216Y-102000000D03*
X73937216Y-102000000D03*
%TD*%
D25*
%TO.C,REF\u002A\u002A*%
X53200000Y-68800000D03*
%TD*%
D62*
%TO.C,U3*%
X132008915Y-143400000D03*
X132008915Y-143900000D03*
X132008915Y-144400000D03*
X132008915Y-144900000D03*
X132008915Y-145400000D03*
X132008915Y-145900000D03*
D63*
X132746415Y-146637500D03*
X133246415Y-146637500D03*
X133746415Y-146637500D03*
X134246415Y-146637500D03*
X134746415Y-146637500D03*
X135246415Y-146637500D03*
D62*
X135983915Y-145900000D03*
X135983915Y-145400000D03*
X135983915Y-144900000D03*
X135983915Y-144400000D03*
X135983915Y-143900000D03*
X135983915Y-143400000D03*
D63*
X135246415Y-142662500D03*
X134746415Y-142662500D03*
X134246415Y-142662500D03*
X133746415Y-142662500D03*
X133246415Y-142662500D03*
X132746415Y-142662500D03*
D64*
X133996415Y-144650000D03*
%TD*%
D28*
%TO.C,C118*%
X132925000Y-201700000D03*
X134475000Y-201700000D03*
%TD*%
D13*
%TO.C,R124*%
X137200000Y-165025000D03*
X137200000Y-163375000D03*
%TD*%
D18*
%TO.C,R20*%
X110100000Y-92075000D03*
X110100000Y-93725000D03*
%TD*%
D12*
%TO.C,F3*%
X74500000Y-128300000D03*
X77906001Y-128300000D03*
X82376002Y-128300000D03*
X85782004Y-128300000D03*
%TD*%
D19*
%TO.C,R93*%
X92678465Y-144700000D03*
X94328465Y-144700000D03*
%TD*%
D34*
%TO.C,C77*%
X83203465Y-184500000D03*
X81653465Y-184500000D03*
%TD*%
%TO.C,C7*%
X131665000Y-98300000D03*
X130115000Y-98300000D03*
%TD*%
%TO.C,C85*%
X144400000Y-153800000D03*
X142850000Y-153800000D03*
%TD*%
D42*
%TO.C,D4*%
X80903465Y-200650000D03*
X80903465Y-203950000D03*
%TD*%
D13*
%TO.C,R18*%
X130000000Y-96825000D03*
X130000000Y-95175000D03*
%TD*%
D38*
%TO.C,J9*%
X139120000Y-203400000D03*
D39*
X139120000Y-200860000D03*
X139120000Y-198320000D03*
X139120000Y-195780000D03*
%TD*%
D19*
%TO.C,R78*%
X81537216Y-98400000D03*
X83187216Y-98400000D03*
%TD*%
%TO.C,R77*%
X92662216Y-100900000D03*
X94312216Y-100900000D03*
%TD*%
D14*
%TO.C,R95*%
X94228465Y-146400000D03*
X92578465Y-146400000D03*
%TD*%
D13*
%TO.C,R25*%
X144700000Y-93325000D03*
X144700000Y-91675000D03*
%TD*%
D20*
%TO.C,R45*%
X120043915Y-109500000D03*
X117118915Y-109500000D03*
%TD*%
D18*
%TO.C,R60*%
X148696415Y-141025000D03*
X148696415Y-142675000D03*
%TD*%
%TO.C,R97*%
X88503465Y-132650000D03*
X88503465Y-134300000D03*
%TD*%
D21*
%TO.C,TH2*%
X99903465Y-148800000D03*
D26*
X97903465Y-147200000D03*
D27*
X97903465Y-144700000D03*
%TD*%
D38*
%TO.C,J10*%
X134400000Y-185240000D03*
D39*
X134400000Y-187780000D03*
X134400000Y-190320000D03*
%TD*%
D19*
%TO.C,R104*%
X72303465Y-189600000D03*
X73953465Y-189600000D03*
%TD*%
D33*
%TO.C,C96*%
X130450000Y-173625000D03*
X130450000Y-176575000D03*
%TD*%
D18*
%TO.C,R62*%
X146296415Y-141025000D03*
X146296415Y-142675000D03*
%TD*%
D35*
%TO.C,C44*%
X136996415Y-139425000D03*
X136996415Y-137875000D03*
%TD*%
D24*
%TO.C,C43*%
X112096415Y-141475000D03*
X112096415Y-143025000D03*
%TD*%
D65*
%TO.C,U11*%
X109300000Y-181650000D03*
X109300000Y-182150000D03*
X109300000Y-182650000D03*
X109300000Y-183150000D03*
D66*
X109770000Y-183800000D03*
D67*
X111070000Y-183250000D03*
D66*
X111570000Y-183800000D03*
D68*
X110490000Y-181750000D03*
D66*
X109770000Y-181000000D03*
%TD*%
D18*
%TO.C,R30*%
X150300000Y-100075000D03*
X150300000Y-101725000D03*
%TD*%
D65*
%TO.C,U10*%
X122500000Y-181650000D03*
X122500000Y-182150000D03*
X122500000Y-182650000D03*
X122500000Y-183150000D03*
D66*
X122970000Y-183800000D03*
D67*
X124270000Y-183250000D03*
D66*
X124770000Y-183800000D03*
D68*
X123690000Y-181750000D03*
D66*
X122970000Y-181000000D03*
%TD*%
D18*
%TO.C,R39*%
X110096415Y-116775000D03*
X110096415Y-118425000D03*
%TD*%
%TO.C,R127*%
X145100000Y-165175000D03*
X145100000Y-166825000D03*
%TD*%
D34*
%TO.C,C22*%
X131661415Y-123000000D03*
X130111415Y-123000000D03*
%TD*%
D14*
%TO.C,R116*%
X96507216Y-166530000D03*
X94857216Y-166530000D03*
%TD*%
D20*
%TO.C,R91*%
X85765965Y-162200000D03*
X82840965Y-162200000D03*
%TD*%
D14*
%TO.C,R51*%
X91021415Y-200700000D03*
X89371415Y-200700000D03*
%TD*%
D24*
%TO.C,C88*%
X135700000Y-163425000D03*
X135700000Y-164975000D03*
%TD*%
D18*
%TO.C,R3*%
X79000000Y-155150000D03*
X79000000Y-156800000D03*
%TD*%
D28*
%TO.C,C23*%
X141621415Y-116700000D03*
X143171415Y-116700000D03*
%TD*%
D61*
%TO.C,U4*%
X84987216Y-97400000D03*
X84987216Y-98049999D03*
X84987216Y-98699997D03*
X84987216Y-99349998D03*
X84987216Y-99999997D03*
X84987216Y-100649998D03*
X84987216Y-101299997D03*
X84987216Y-101949998D03*
X84987216Y-102599997D03*
X84987216Y-103249998D03*
X84987216Y-103899997D03*
X84987216Y-104549998D03*
X90841916Y-104549998D03*
X90841916Y-103899999D03*
X90841916Y-103249998D03*
X90841916Y-102600000D03*
X90841916Y-101949998D03*
X90841916Y-101300000D03*
X90841916Y-100650001D03*
X90841916Y-100000000D03*
X90841916Y-99350001D03*
X90841916Y-98700000D03*
X90841916Y-98050001D03*
X90841916Y-97400000D03*
%TD*%
D36*
%TO.C,C19*%
X150071415Y-104050000D03*
X147121415Y-104050000D03*
%TD*%
D28*
%TO.C,C6*%
X134825000Y-99000000D03*
X136375000Y-99000000D03*
%TD*%
D69*
%TO.C,D29*%
X130750000Y-153400000D03*
X128250000Y-153400000D03*
%TD*%
D33*
%TO.C,C97*%
X132800000Y-173625000D03*
X132800000Y-176575000D03*
%TD*%
D70*
%TO.C,D27*%
X134250000Y-166700000D03*
X136750000Y-166700000D03*
%TD*%
D21*
%TO.C,TH3*%
X99903465Y-192600000D03*
D26*
X97903465Y-191000000D03*
D27*
X97903465Y-188500000D03*
%TD*%
D18*
%TO.C,R2*%
X79000000Y-111350000D03*
X79000000Y-113000000D03*
%TD*%
D34*
%TO.C,C37*%
X131661415Y-147650000D03*
X130111415Y-147650000D03*
%TD*%
D18*
%TO.C,R17*%
X128500000Y-95175000D03*
X128500000Y-96825000D03*
%TD*%
D17*
%TO.C,C41*%
X142596415Y-135625000D03*
X142596415Y-132675000D03*
%TD*%
D24*
%TO.C,C52*%
X76087216Y-96000000D03*
X76087216Y-97550000D03*
%TD*%
D15*
%TO.C,L2*%
X112000000Y-197715000D03*
X112000000Y-186285000D03*
%TD*%
D18*
%TO.C,R90*%
X81603465Y-151075000D03*
X81603465Y-152725000D03*
%TD*%
D61*
%TO.C,U6*%
X85003465Y-185000000D03*
X85003465Y-185649999D03*
X85003465Y-186299997D03*
X85003465Y-186949998D03*
X85003465Y-187599997D03*
X85003465Y-188249998D03*
X85003465Y-188899997D03*
X85003465Y-189549998D03*
X85003465Y-190199997D03*
X85003465Y-190849998D03*
X85003465Y-191499997D03*
X85003465Y-192149998D03*
X90858165Y-192149998D03*
X90858165Y-191499999D03*
X90858165Y-190849998D03*
X90858165Y-190200000D03*
X90858165Y-189549998D03*
X90858165Y-188900000D03*
X90858165Y-188250001D03*
X90858165Y-187600000D03*
X90858165Y-186950001D03*
X90858165Y-186300000D03*
X90858165Y-185650001D03*
X90858165Y-185000000D03*
%TD*%
D18*
%TO.C,R47*%
X144696415Y-124775000D03*
X144696415Y-126425000D03*
%TD*%
D71*
%TO.C,Q27*%
X110000000Y-169850000D03*
D72*
X111905000Y-166300000D03*
X110635000Y-166300000D03*
X109365000Y-166300000D03*
X108095000Y-166300000D03*
%TD*%
D73*
%TO.C,Q23*%
X92178465Y-180000000D03*
X92178465Y-178100000D03*
X90303465Y-179050000D03*
%TD*%
D20*
%TO.C,R26*%
X120047500Y-84800000D03*
X117122500Y-84800000D03*
%TD*%
D25*
%TO.C,REF\u002A\u002A6*%
X158500000Y-117800000D03*
%TD*%
D74*
%TO.C,SW7*%
X85287216Y-94542500D03*
D47*
X82787216Y-94542500D03*
X80287216Y-94542500D03*
X80287216Y-91242500D03*
X82787216Y-91242500D03*
X85287216Y-91242500D03*
%TD*%
D36*
%TO.C,C34*%
X150071415Y-128700000D03*
X147121415Y-128700000D03*
%TD*%
D24*
%TO.C,C108*%
X118700000Y-180625000D03*
X118700000Y-182175000D03*
%TD*%
D49*
%TO.C,D25*%
X94803465Y-132700000D03*
X94803465Y-130620000D03*
D50*
X98608465Y-131660000D03*
%TD*%
D75*
%TO.C,Q3*%
X78703465Y-162700000D03*
X78703465Y-161430000D03*
X78703465Y-160160000D03*
X78703465Y-158890000D03*
D76*
X75343465Y-160795000D03*
D77*
X73238465Y-162700000D03*
X73238465Y-161430000D03*
X73238465Y-160160000D03*
X73238465Y-158890000D03*
%TD*%
D21*
%TO.C,J6*%
X152250000Y-183125000D03*
D40*
X150650000Y-185125000D03*
D41*
X148150000Y-185125000D03*
%TD*%
D13*
%TO.C,R29*%
X148700000Y-101725000D03*
X148700000Y-100075000D03*
%TD*%
D55*
%TO.C,SW3*%
X107996415Y-113697500D03*
X116196415Y-113697500D03*
D56*
X110096415Y-113697500D03*
D57*
X112096415Y-113697500D03*
X114096415Y-113697500D03*
%TD*%
D13*
%TO.C,R59*%
X116096415Y-143075000D03*
X116096415Y-141425000D03*
%TD*%
D74*
%TO.C,SW8*%
X85303465Y-138342500D03*
D47*
X82803465Y-138342500D03*
X80303465Y-138342500D03*
X80303465Y-135042500D03*
X82803465Y-135042500D03*
X85303465Y-135042500D03*
%TD*%
D19*
%TO.C,R9*%
X125050000Y-143850000D03*
X126700000Y-143850000D03*
%TD*%
D44*
%TO.C,Q22*%
X93149716Y-128220000D03*
X93149716Y-127560000D03*
X93149716Y-126900000D03*
X93149716Y-126240000D03*
D78*
X91157216Y-127230000D03*
%TD*%
D18*
%TO.C,R4*%
X79000000Y-198950000D03*
X79000000Y-200600000D03*
%TD*%
D19*
%TO.C,R103*%
X72303465Y-187100000D03*
X73953465Y-187100000D03*
%TD*%
D17*
%TO.C,C42*%
X144896415Y-135625000D03*
X144896415Y-132675000D03*
%TD*%
D21*
%TO.C,BATT3S2*%
X66603465Y-139200000D03*
D22*
X68603465Y-140800000D03*
D23*
X68603465Y-143300000D03*
X68603465Y-145800000D03*
X68603465Y-148300000D03*
%TD*%
D17*
%TO.C,C33*%
X115096415Y-107300000D03*
X115096415Y-104350000D03*
%TD*%
D13*
%TO.C,R96*%
X92703465Y-142500000D03*
X92703465Y-140850000D03*
%TD*%
D28*
%TO.C,C55*%
X81612216Y-105800000D03*
X83162216Y-105800000D03*
%TD*%
D13*
%TO.C,R27*%
X146300000Y-101725000D03*
X146300000Y-100075000D03*
%TD*%
D74*
%TO.C,SW9*%
X85303465Y-182142500D03*
D47*
X82803465Y-182142500D03*
X80303465Y-182142500D03*
X80303465Y-178842500D03*
X82803465Y-178842500D03*
X85303465Y-178842500D03*
%TD*%
D16*
%TO.C,D13*%
X93987500Y-115500000D03*
X92412500Y-115500000D03*
%TD*%
D24*
%TO.C,C60*%
X76103465Y-142800000D03*
X76103465Y-144350000D03*
%TD*%
D73*
%TO.C,Q15*%
X92162216Y-92400000D03*
X92162216Y-90500000D03*
X90287216Y-91450000D03*
%TD*%
D35*
%TO.C,C91*%
X137900000Y-152975000D03*
X137900000Y-151425000D03*
%TD*%
D18*
%TO.C,R28*%
X144700000Y-100075000D03*
X144700000Y-101725000D03*
%TD*%
D71*
%TO.C,Q29*%
X129800000Y-169850000D03*
D72*
X131705000Y-166300000D03*
X130435000Y-166300000D03*
X129165000Y-166300000D03*
X127895000Y-166300000D03*
%TD*%
D34*
%TO.C,C100*%
X151575000Y-168200000D03*
X150025000Y-168200000D03*
%TD*%
D24*
%TO.C,C70*%
X76103465Y-186600000D03*
X76103465Y-188150000D03*
%TD*%
D34*
%TO.C,C9*%
X139775000Y-97700000D03*
X138225000Y-97700000D03*
%TD*%
D14*
%TO.C,R100*%
X96507216Y-122730000D03*
X94857216Y-122730000D03*
%TD*%
D21*
%TO.C,J8*%
X152250000Y-196725000D03*
D40*
X150650000Y-198725000D03*
D41*
X148150000Y-198725000D03*
%TD*%
D44*
%TO.C,Q18*%
X93149716Y-84420000D03*
X93149716Y-83760000D03*
X93149716Y-83100000D03*
X93149716Y-82440000D03*
D78*
X91157216Y-83430000D03*
%TD*%
D51*
%TO.C,J2*%
X112160000Y-203600000D03*
D52*
X117240000Y-203600000D03*
%TD*%
D24*
%TO.C,C50*%
X76087216Y-99000000D03*
X76087216Y-100550000D03*
%TD*%
D14*
%TO.C,R50*%
X153221415Y-128700000D03*
X151571415Y-128700000D03*
%TD*%
%TO.C,R5*%
X152725000Y-166700000D03*
X151075000Y-166700000D03*
%TD*%
D17*
%TO.C,C46*%
X110496415Y-131950000D03*
X110496415Y-129000000D03*
%TD*%
D59*
%TO.C,L3*%
X134315000Y-84800000D03*
X122885000Y-84800000D03*
%TD*%
D19*
%TO.C,R109*%
X92678465Y-188500000D03*
X94328465Y-188500000D03*
%TD*%
D13*
%TO.C,R42*%
X150296415Y-118025000D03*
X150296415Y-116375000D03*
%TD*%
%TO.C,R61*%
X150296415Y-142675000D03*
X150296415Y-141025000D03*
%TD*%
D17*
%TO.C,C32*%
X112796415Y-107300000D03*
X112796415Y-104350000D03*
%TD*%
D73*
%TO.C,Q19*%
X92178465Y-136200000D03*
X92178465Y-134300000D03*
X90303465Y-135250000D03*
%TD*%
D62*
%TO.C,U1*%
X132012500Y-94050000D03*
X132012500Y-94550000D03*
X132012500Y-95050000D03*
X132012500Y-95550000D03*
X132012500Y-96050000D03*
X132012500Y-96550000D03*
D63*
X132750000Y-97287500D03*
X133250000Y-97287500D03*
X133750000Y-97287500D03*
X134250000Y-97287500D03*
X134750000Y-97287500D03*
X135250000Y-97287500D03*
D62*
X135987500Y-96550000D03*
X135987500Y-96050000D03*
X135987500Y-95550000D03*
X135987500Y-95050000D03*
X135987500Y-94550000D03*
X135987500Y-94050000D03*
D63*
X135250000Y-93312500D03*
X134750000Y-93312500D03*
X134250000Y-93312500D03*
X133750000Y-93312500D03*
X133250000Y-93312500D03*
X132750000Y-93312500D03*
D64*
X134000000Y-95300000D03*
%TD*%
D19*
%TO.C,R69*%
X72287216Y-94500000D03*
X73937216Y-94500000D03*
%TD*%
D33*
%TO.C,C95*%
X128100000Y-173625000D03*
X128100000Y-176575000D03*
%TD*%
D13*
%TO.C,R67*%
X148696415Y-151075000D03*
X148696415Y-149425000D03*
%TD*%
D14*
%TO.C,R111*%
X94228465Y-190200000D03*
X92578465Y-190200000D03*
%TD*%
D79*
%TO.C,BATT1*%
X64487216Y-114470000D03*
X64487216Y-84500000D03*
%TD*%
D14*
%TO.C,R31*%
X153221415Y-104050000D03*
X151571415Y-104050000D03*
%TD*%
D33*
%TO.C,C98*%
X135100000Y-173625000D03*
X135100000Y-176575000D03*
%TD*%
D48*
%TO.C,D6*%
X123350000Y-141950000D03*
X126650000Y-141950000D03*
%TD*%
D35*
%TO.C,C84*%
X142100000Y-166775000D03*
X142100000Y-165225000D03*
%TD*%
D21*
%TO.C,BATT4S1*%
X58387216Y-92900000D03*
D22*
X60387216Y-94500000D03*
D23*
X60387216Y-97000000D03*
X60387216Y-99500000D03*
X60387216Y-102000000D03*
X60387216Y-104500000D03*
%TD*%
D14*
%TO.C,R15*%
X91025000Y-117900000D03*
X89375000Y-117900000D03*
%TD*%
D35*
%TO.C,C25*%
X139796415Y-120800000D03*
X139796415Y-119250000D03*
%TD*%
D44*
%TO.C,Q24*%
X90295965Y-174510000D03*
X90295965Y-175170000D03*
X90295965Y-175830000D03*
X90295965Y-176490000D03*
D45*
X92288465Y-175500000D03*
%TD*%
D17*
%TO.C,C48*%
X115096415Y-131950000D03*
X115096415Y-129000000D03*
%TD*%
D28*
%TO.C,C78*%
X88328465Y-183600000D03*
X89878465Y-183600000D03*
%TD*%
D35*
%TO.C,C29*%
X136996415Y-114775000D03*
X136996415Y-113225000D03*
%TD*%
D16*
%TO.C,D21*%
X93983915Y-203100000D03*
X92408915Y-203100000D03*
%TD*%
D42*
%TO.C,D2*%
X80887216Y-113050000D03*
X80887216Y-116350000D03*
%TD*%
D44*
%TO.C,Q26*%
X93149716Y-172020000D03*
X93149716Y-171360000D03*
X93149716Y-170700000D03*
X93149716Y-170040000D03*
D78*
X91157216Y-171030000D03*
%TD*%
D28*
%TO.C,C65*%
X81628465Y-149600000D03*
X83178465Y-149600000D03*
%TD*%
D79*
%TO.C,BATT2*%
X64503465Y-158270000D03*
X64503465Y-128300000D03*
%TD*%
D13*
%TO.C,R65*%
X146296415Y-151075000D03*
X146296415Y-149425000D03*
%TD*%
D34*
%TO.C,C20*%
X131571415Y-116900000D03*
X130021415Y-116900000D03*
%TD*%
D24*
%TO.C,C69*%
X76103465Y-180600000D03*
X76103465Y-182150000D03*
%TD*%
D38*
%TO.C,J13*%
X142020000Y-185240000D03*
D39*
X142020000Y-187780000D03*
X142020000Y-190320000D03*
%TD*%
D36*
%TO.C,C4*%
X150075000Y-79350000D03*
X147125000Y-79350000D03*
%TD*%
D28*
%TO.C,C105*%
X127325000Y-182100000D03*
X128875000Y-182100000D03*
%TD*%
D19*
%TO.C,R71*%
X72287216Y-99500000D03*
X73937216Y-99500000D03*
%TD*%
D17*
%TO.C,C15*%
X108200000Y-82600000D03*
X108200000Y-79650000D03*
%TD*%
D28*
%TO.C,C106*%
X126725000Y-183600000D03*
X128275000Y-183600000D03*
%TD*%
D24*
%TO.C,C49*%
X76087216Y-93000000D03*
X76087216Y-94550000D03*
%TD*%
D13*
%TO.C,R83*%
X94957216Y-82480000D03*
X94957216Y-80830000D03*
%TD*%
D28*
%TO.C,C93*%
X110025000Y-155100000D03*
X111575000Y-155100000D03*
%TD*%
D18*
%TO.C,R68*%
X150296415Y-149425000D03*
X150296415Y-151075000D03*
%TD*%
D49*
%TO.C,D24*%
X94787216Y-88900000D03*
X94787216Y-86820000D03*
D50*
X98592216Y-87860000D03*
%TD*%
D53*
%TO.C,Q12*%
X140586415Y-105865000D03*
X139926415Y-105865000D03*
X139266415Y-105865000D03*
X138606415Y-105865000D03*
D54*
X139596415Y-107857500D03*
%TD*%
D18*
%TO.C,R74*%
X81587216Y-107275000D03*
X81587216Y-108925000D03*
%TD*%
D35*
%TO.C,C10*%
X139800000Y-96100000D03*
X139800000Y-94550000D03*
%TD*%
D19*
%TO.C,R110*%
X81578465Y-186000000D03*
X83228465Y-186000000D03*
%TD*%
D18*
%TO.C,R22*%
X148700000Y-91675000D03*
X148700000Y-93325000D03*
%TD*%
%TO.C,R24*%
X146300000Y-91675000D03*
X146300000Y-93325000D03*
%TD*%
D20*
%TO.C,R64*%
X120043915Y-134150000D03*
X117118915Y-134150000D03*
%TD*%
D24*
%TO.C,C13*%
X112100000Y-92125000D03*
X112100000Y-93675000D03*
%TD*%
D34*
%TO.C,C35*%
X131571415Y-141550000D03*
X130021415Y-141550000D03*
%TD*%
D31*
%TO.C,Q28*%
X115700000Y-168550000D03*
D32*
X113795000Y-172100000D03*
X115065000Y-172100000D03*
X116335000Y-172100000D03*
X117605000Y-172100000D03*
%TD*%
D80*
%TO.C,D28*%
X111300000Y-151050000D03*
X111300000Y-153550000D03*
%TD*%
D38*
%TO.C,J4*%
X141660000Y-203400000D03*
D39*
X141660000Y-200860000D03*
X141660000Y-198320000D03*
X141660000Y-195780000D03*
%TD*%
D14*
%TO.C,R32*%
X91021415Y-156900000D03*
X89371415Y-156900000D03*
%TD*%
D81*
%TO.C,U8*%
X146125000Y-169795000D03*
X146125000Y-171065000D03*
X146125000Y-172335000D03*
X146125000Y-173605000D03*
X151075000Y-173605000D03*
X151075000Y-172335000D03*
X151075000Y-171065000D03*
X151075000Y-169795000D03*
%TD*%
D34*
%TO.C,C39*%
X139771415Y-147050000D03*
X138221415Y-147050000D03*
%TD*%
D19*
%TO.C,R8*%
X125050000Y-119200000D03*
X126700000Y-119200000D03*
%TD*%
D18*
%TO.C,R58*%
X110096415Y-141425000D03*
X110096415Y-143075000D03*
%TD*%
D36*
%TO.C,C2*%
X108575000Y-200800000D03*
X105625000Y-200800000D03*
%TD*%
D18*
%TO.C,R38*%
X114096415Y-116775000D03*
X114096415Y-118425000D03*
%TD*%
D19*
%TO.C,R98*%
X91503465Y-137700000D03*
X93153465Y-137700000D03*
%TD*%
D16*
%TO.C,D18*%
X93983915Y-161700000D03*
X92408915Y-161700000D03*
%TD*%
D53*
%TO.C,Q9*%
X140590000Y-85565000D03*
X139930000Y-85565000D03*
X139270000Y-85565000D03*
X138610000Y-85565000D03*
D54*
X139600000Y-87557500D03*
%TD*%
D59*
%TO.C,L6*%
X125615000Y-159000000D03*
X114185000Y-159000000D03*
%TD*%
D13*
%TO.C,R126*%
X146600000Y-166825000D03*
X146600000Y-165175000D03*
%TD*%
D35*
%TO.C,C117*%
X132900000Y-204975000D03*
X132900000Y-203425000D03*
%TD*%
D34*
%TO.C,C94*%
X129775000Y-155100000D03*
X128225000Y-155100000D03*
%TD*%
D19*
%TO.C,R94*%
X81553465Y-142200000D03*
X83203465Y-142200000D03*
%TD*%
%TO.C,R73*%
X72262216Y-104500000D03*
X73912216Y-104500000D03*
%TD*%
D62*
%TO.C,U2*%
X132008915Y-118750000D03*
X132008915Y-119250000D03*
X132008915Y-119750000D03*
X132008915Y-120250000D03*
X132008915Y-120750000D03*
X132008915Y-121250000D03*
D63*
X132746415Y-121987500D03*
X133246415Y-121987500D03*
X133746415Y-121987500D03*
X134246415Y-121987500D03*
X134746415Y-121987500D03*
X135246415Y-121987500D03*
D62*
X135983915Y-121250000D03*
X135983915Y-120750000D03*
X135983915Y-120250000D03*
X135983915Y-119750000D03*
X135983915Y-119250000D03*
X135983915Y-118750000D03*
D63*
X135246415Y-118012500D03*
X134746415Y-118012500D03*
X134246415Y-118012500D03*
X133746415Y-118012500D03*
X133246415Y-118012500D03*
X132746415Y-118012500D03*
D64*
X133996415Y-120000000D03*
%TD*%
D13*
%TO.C,R44*%
X144696415Y-118025000D03*
X144696415Y-116375000D03*
%TD*%
D24*
%TO.C,C28*%
X112096415Y-116825000D03*
X112096415Y-118375000D03*
%TD*%
D36*
%TO.C,C1*%
X124175000Y-200800000D03*
X121225000Y-200800000D03*
%TD*%
D35*
%TO.C,C66*%
X84703465Y-151150000D03*
X84703465Y-149600000D03*
%TD*%
D19*
%TO.C,R89*%
X72278465Y-148300000D03*
X73928465Y-148300000D03*
%TD*%
D75*
%TO.C,Q2*%
X78687216Y-118900000D03*
X78687216Y-117630000D03*
X78687216Y-116360000D03*
X78687216Y-115090000D03*
D76*
X75327216Y-116995000D03*
D77*
X73222216Y-118900000D03*
X73222216Y-117630000D03*
X73222216Y-116360000D03*
X73222216Y-115090000D03*
%TD*%
D35*
%TO.C,C14*%
X137000000Y-90075000D03*
X137000000Y-88525000D03*
%TD*%
D59*
%TO.C,L4*%
X134311415Y-109500000D03*
X122881415Y-109500000D03*
%TD*%
D33*
%TO.C,C89*%
X107100000Y-173625000D03*
X107100000Y-176575000D03*
%TD*%
D82*
%TO.C,U16*%
X125749998Y-200025001D03*
X125749998Y-200675002D03*
X125749998Y-201325001D03*
X125749998Y-201975002D03*
X125749998Y-202625001D03*
X125749998Y-203275002D03*
X125749998Y-203925001D03*
X125749998Y-204575002D03*
X131449997Y-204575002D03*
X131449997Y-203925001D03*
X131449997Y-203275002D03*
X131449997Y-202625001D03*
X131449997Y-201975002D03*
X131449997Y-201325001D03*
X131449997Y-200675002D03*
X131449997Y-200025001D03*
%TD*%
D18*
%TO.C,R113*%
X88503465Y-176450000D03*
X88503465Y-178100000D03*
%TD*%
D24*
%TO.C,C104*%
X130400000Y-180625000D03*
X130400000Y-182175000D03*
%TD*%
%TO.C,C59*%
X76103465Y-136800000D03*
X76103465Y-138350000D03*
%TD*%
D28*
%TO.C,C63*%
X76103465Y-145800000D03*
X77653465Y-145800000D03*
%TD*%
D46*
%TO.C,SW4*%
X144996415Y-119757500D03*
D47*
X147496415Y-119757500D03*
X149996415Y-119757500D03*
X149996415Y-123057500D03*
X147496415Y-123057500D03*
X144996415Y-123057500D03*
%TD*%
D55*
%TO.C,SW5*%
X107996415Y-138347500D03*
X116196415Y-138347500D03*
D56*
X110096415Y-138347500D03*
D57*
X112096415Y-138347500D03*
X114096415Y-138347500D03*
%TD*%
D14*
%TO.C,R14*%
X91025000Y-115500000D03*
X89375000Y-115500000D03*
%TD*%
D33*
%TO.C,C92*%
X104800000Y-173625000D03*
X104800000Y-176575000D03*
%TD*%
D28*
%TO.C,C58*%
X88312216Y-96000000D03*
X89862216Y-96000000D03*
%TD*%
D16*
%TO.C,D20*%
X93983915Y-200700000D03*
X92408915Y-200700000D03*
%TD*%
D25*
%TO.C,REF\u002A\u002A2*%
X74301535Y-195800000D03*
%TD*%
%TO.C,REF\u002A\u002A*%
X158500000Y-68800000D03*
%TD*%
D51*
%TO.C,J1*%
X74760000Y-76100000D03*
D52*
X79840000Y-76100000D03*
%TD*%
D14*
%TO.C,R33*%
X91021415Y-159300000D03*
X89371415Y-159300000D03*
%TD*%
D16*
%TO.C,D12*%
X93987500Y-113100000D03*
X92412500Y-113100000D03*
%TD*%
D13*
%TO.C,R21*%
X116100000Y-93725000D03*
X116100000Y-92075000D03*
%TD*%
%TO.C,R46*%
X146296415Y-126425000D03*
X146296415Y-124775000D03*
%TD*%
D19*
%TO.C,R102*%
X72303465Y-184600000D03*
X73953465Y-184600000D03*
%TD*%
D13*
%TO.C,R80*%
X92687216Y-98700000D03*
X92687216Y-97050000D03*
%TD*%
D18*
%TO.C,R36*%
X128496415Y-119875000D03*
X128496415Y-121525000D03*
%TD*%
D37*
%TO.C,Q25*%
X91282216Y-166530000D03*
X91282216Y-168430000D03*
X93157216Y-167480000D03*
%TD*%
D13*
%TO.C,R23*%
X150300000Y-93325000D03*
X150300000Y-91675000D03*
%TD*%
D60*
%TO.C,D19*%
X139971415Y-117650000D03*
X139971415Y-115750000D03*
X137696415Y-116700000D03*
%TD*%
D19*
%TO.C,R85*%
X72303465Y-138300000D03*
X73953465Y-138300000D03*
%TD*%
D34*
%TO.C,C61*%
X77653465Y-148300000D03*
X76103465Y-148300000D03*
%TD*%
D44*
%TO.C,Q20*%
X90295965Y-130710000D03*
X90295965Y-131370000D03*
X90295965Y-132030000D03*
X90295965Y-132690000D03*
D45*
X92288465Y-131700000D03*
%TD*%
D28*
%TO.C,C53*%
X76087216Y-102000000D03*
X77637216Y-102000000D03*
%TD*%
D13*
%TO.C,R115*%
X94957216Y-170080000D03*
X94957216Y-168430000D03*
%TD*%
D34*
%TO.C,C67*%
X83203465Y-140700000D03*
X81653465Y-140700000D03*
%TD*%
D46*
%TO.C,SW2*%
X145000000Y-95057500D03*
D47*
X147500000Y-95057500D03*
X150000000Y-95057500D03*
X150000000Y-98357500D03*
X147500000Y-98357500D03*
X145000000Y-98357500D03*
%TD*%
D18*
%TO.C,R43*%
X146296415Y-116375000D03*
X146296415Y-118025000D03*
%TD*%
D28*
%TO.C,C68*%
X88328465Y-139800000D03*
X89878465Y-139800000D03*
%TD*%
D13*
%TO.C,R108*%
X83203465Y-196525000D03*
X83203465Y-194875000D03*
%TD*%
%TO.C,R125*%
X134200000Y-165025000D03*
X134200000Y-163375000D03*
%TD*%
D20*
%TO.C,R107*%
X85765965Y-206000000D03*
X82840965Y-206000000D03*
%TD*%
D19*
%TO.C,R114*%
X91503465Y-181500000D03*
X93153465Y-181500000D03*
%TD*%
D18*
%TO.C,R121*%
X140600000Y-165175000D03*
X140600000Y-166825000D03*
%TD*%
D21*
%TO.C,BATT3S1*%
X66587216Y-95400000D03*
D22*
X68587216Y-97000000D03*
D23*
X68587216Y-99500000D03*
X68587216Y-102000000D03*
X68587216Y-104500000D03*
%TD*%
D14*
%TO.C,R12*%
X153225000Y-79350000D03*
X151575000Y-79350000D03*
%TD*%
D17*
%TO.C,C27*%
X144896415Y-110975000D03*
X144896415Y-108025000D03*
%TD*%
D34*
%TO.C,C51*%
X77637216Y-104500000D03*
X76087216Y-104500000D03*
%TD*%
D53*
%TO.C,Q11*%
X140586415Y-110265000D03*
X139926415Y-110265000D03*
X139266415Y-110265000D03*
X138606415Y-110265000D03*
D54*
X139596415Y-112257500D03*
%TD*%
D34*
%TO.C,C57*%
X83187216Y-96900000D03*
X81637216Y-96900000D03*
%TD*%
D75*
%TO.C,Q4*%
X78703465Y-206500000D03*
X78703465Y-205230000D03*
X78703465Y-203960000D03*
X78703465Y-202690000D03*
D76*
X75343465Y-204595000D03*
D77*
X73238465Y-206500000D03*
X73238465Y-205230000D03*
X73238465Y-203960000D03*
X73238465Y-202690000D03*
%TD*%
D21*
%TO.C,BATT4S2*%
X58403465Y-136700000D03*
D22*
X60403465Y-138300000D03*
D23*
X60403465Y-140800000D03*
X60403465Y-143300000D03*
X60403465Y-145800000D03*
X60403465Y-148300000D03*
%TD*%
D24*
%TO.C,C72*%
X76103465Y-183600000D03*
X76103465Y-185150000D03*
%TD*%
D79*
%TO.C,BATT3*%
X64503465Y-202070000D03*
X64503465Y-172100000D03*
%TD*%
D14*
%TO.C,R52*%
X91021415Y-203100000D03*
X89371415Y-203100000D03*
%TD*%
D19*
%TO.C,R87*%
X72303465Y-143300000D03*
X73953465Y-143300000D03*
%TD*%
D17*
%TO.C,C45*%
X108196415Y-131950000D03*
X108196415Y-129000000D03*
%TD*%
D16*
%TO.C,D16*%
X93983915Y-156900000D03*
X92408915Y-156900000D03*
%TD*%
D13*
%TO.C,R99*%
X94957216Y-126280000D03*
X94957216Y-124630000D03*
%TD*%
D28*
%TO.C,C8*%
X141625000Y-92000000D03*
X143175000Y-92000000D03*
%TD*%
D17*
%TO.C,C17*%
X112800000Y-82600000D03*
X112800000Y-79650000D03*
%TD*%
D28*
%TO.C,C38*%
X141621415Y-141350000D03*
X143171415Y-141350000D03*
%TD*%
D18*
%TO.C,R122*%
X145700000Y-155275000D03*
X145700000Y-156925000D03*
%TD*%
%TO.C,R81*%
X88487216Y-88850000D03*
X88487216Y-90500000D03*
%TD*%
M02*
